<?xml version="1.0" encoding="UTF-8" standalone="no"?>
<!-- Created with Inkscape (http://www.inkscape.org/) -->
<svg
   xmlns:dc="http://purl.org/dc/elements/1.1/"
   xmlns:cc="http://web.resource.org/cc/"
   xmlns:rdf="http://www.w3.org/1999/02/22-rdf-syntax-ns#"
   xmlns:svg="http://www.w3.org/2000/svg"
   xmlns="http://www.w3.org/2000/svg"
   xmlns:xlink="http://www.w3.org/1999/xlink"
   xmlns:sodipodi="http://inkscape.sourceforge.net/DTD/sodipodi-0.dtd"
   xmlns:inkscape="http://www.inkscape.org/namespaces/inkscape"
   sodipodi:docname="grids.svg"
   sodipodi:docbase="/home/agoode/workspace/Escape/src/org/spacebar/escape/j2se/resources"
   inkscape:version="0.41"
   sodipodi:version="0.32"
   id="svg1859"
   height="297mm"
   width="210mm">
  <defs
     id="defs3" />
  <sodipodi:namedview
     inkscape:window-y="50"
     inkscape:window-x="25"
     inkscape:window-height="848"
     inkscape:window-width="984"
     inkscape:grid-points="true"
     gridtolerance="2.0000000px"
     gridempspacing="4"
     gridspacingy="8.0000000px"
     gridspacingx="8.0000000px"
     showgrid="true"
     inkscape:current-layer="layer1"
     inkscape:document-units="px"
     inkscape:cy="841.91402"
     inkscape:cx="133.11450"
     inkscape:zoom="7.7356967"
     inkscape:pageshadow="2"
     inkscape:pageopacity="0.0"
     borderopacity="1.0"
     bordercolor="#666666"
     pagecolor="#ffffff"
     id="base" />
  <metadata
     id="metadata4">
    <rdf:RDF
       id="RDF5">
      <cc:Work
         id="Work6"
         rdf:about="">
        <dc:format
           id="format7">image/svg+xml</dc:format>
        <dc:type
           rdf:resource="http://purl.org/dc/dcmitype/StillImage"
           id="type9" />
      </cc:Work>
    </rdf:RDF>
  </metadata>
  <g
     id="layer1"
     inkscape:groupmode="layer"
     inkscape:label="Layer 1">
    <image
       y="28.362183"
       x="64.000000"
       id="image2598"
       height="96.000000"
       width="96.000000"
       sodipodi:absref="/tmp/tt/bricks.png"
       xlink:href="/tmp/tt/bricks.png" />
    <g
       transform="translate(0.000000,128.0000)"
       id="g3481">
      <path
         id="path3487"
         d="M 64.000000,76.362183 L 64.000000,28.362183 L 112.00000,28.362183 L 160.00000,28.362183 L 160.00000,76.362183 L 160.00000,124.36218 L 112.00000,124.36218 L 64.000000,124.36218 L 64.000000,76.362183 z "
         style="fill:#c7c7c7" />
      <path
         id="path3485"
         d="M 69.000000,123.36218 C 70.958372,122.09659 72.282182,122.09659 71.500000,123.36218 C 71.160081,123.91218 70.121024,124.35529 69.190983,124.34687 C 67.733708,124.33367 67.707313,124.19758 69.000000,123.36218 z M 90.270833,123.75802 C 90.603125,123.42572 91.465625,123.39020 92.187500,123.67907 C 92.985233,123.99829 92.748276,124.23525 91.583333,124.28324 C 90.529167,124.32666 89.938542,124.09031 90.270833,123.75802 z M 95.000000,123.42120 C 95.000000,122.83874 95.450000,122.36218 96.000000,122.36218 C 97.281385,122.36218 97.281385,123.07024 96.000000,123.86218 C 95.450000,124.20210 95.000000,124.00366 95.000000,123.42120 z M 101.00000,123.36218 C 102.95837,122.09659 104.28218,122.09659 103.50000,123.36218 C 103.16008,123.91218 102.12102,124.35529 101.19098,124.34687 C 99.733708,124.33367 99.707313,124.19758 101.00000,123.36218 z M 122.27083,123.75802 C 122.60313,123.42572 123.46563,123.39020 124.18750,123.67907 C 124.98523,123.99829 124.74828,124.23525 123.58333,124.28324 C 122.52917,124.32666 121.93854,124.09031 122.27083,123.75802 z M 127.00000,123.42120 C 127.00000,122.83874 127.45000,122.36218 128.00000,122.36218 C 129.28139,122.36218 129.28139,123.07024 128.00000,123.86218 C 127.45000,124.20210 127.00000,124.00366 127.00000,123.42120 z M 133.00000,123.36218 C 134.95837,122.09659 136.28218,122.09659 135.50000,123.36218 C 135.16008,123.91218 134.12102,124.35529 133.19098,124.34687 C 131.73371,124.33367 131.70731,124.19758 133.00000,123.36218 z M 154.27083,123.75802 C 154.60313,123.42572 155.46562,123.39020 156.18750,123.67907 C 156.98523,123.99829 156.74828,124.23525 155.58333,124.28324 C 154.52917,124.32666 153.93854,124.09031 154.27083,123.75802 z M 84.270833,122.75802 C 84.603125,122.42572 85.465625,122.39020 86.187500,122.67907 C 86.985233,122.99829 86.748276,123.23525 85.583333,123.28324 C 84.529167,123.32666 83.938542,123.09031 84.270833,122.75802 z M 116.27083,122.75802 C 116.60313,122.42572 117.46563,122.39020 118.18750,122.67907 C 118.98523,122.99829 118.74828,123.23525 117.58333,123.28324 C 116.52917,123.32666 115.93854,123.09031 116.27083,122.75802 z M 148.27083,122.75802 C 148.60313,122.42572 149.46562,122.39020 150.18750,122.67907 C 150.98523,122.99829 150.74828,123.23525 149.58333,123.28324 C 148.52917,123.32666 147.93854,123.09031 148.27083,122.75802 z M 65.550219,120.28093 C 65.804452,119.86957 65.447157,119.32582 64.756231,119.07259 C 63.773593,118.71246 63.763006,118.33284 64.707618,117.32957 C 65.688593,116.28767 66.240735,116.31113 67.649577,117.45457 C 69.143253,118.66686 69.265134,118.66515 68.527913,117.44224 C 67.895253,116.39279 68.084489,116.18063 69.253196,116.62910 C 70.163386,116.97837 71.068485,116.62610 71.385856,115.79904 C 72.313833,113.38077 73.752929,114.20382 73.244751,116.86218 C 72.863963,118.85415 72.168900,119.36218 69.824406,119.36218 C 68.206064,119.36218 67.113729,119.73718 67.396994,120.19552 C 67.680260,120.65385 67.276612,121.02885 66.500000,121.02885 C 65.723388,121.02885 65.295986,120.69228 65.550219,120.28093 z M 97.603006,120.19552 C 97.886271,119.73718 96.816476,119.36218 95.225684,119.36218 C 93.349134,119.36218 92.333333,118.84652 92.333333,117.89389 C 92.333333,116.43968 95.258609,116.28746 96.640897,117.66975 C 97.021737,118.05059 97.820833,118.35529 98.416667,118.34687 C 99.012500,118.33845 98.825000,117.89534 98.000000,117.36218 C 97.175000,116.82903 96.972500,116.38592 97.550000,116.37750 C 98.127500,116.36907 99.206017,116.92468 99.946704,117.61218 C 101.03720,118.62437 101.13916,118.59204 100.48266,117.44224 C 99.889851,116.40400 100.09698,116.18542 101.25320,116.62910 C 102.16339,116.97837 103.06849,116.62610 103.38586,115.79904 C 104.31383,113.38077 105.75293,114.20382 105.24475,116.86218 C 104.86396,118.85415 104.16890,119.36218 101.82441,119.36218 C 100.20606,119.36218 99.113729,119.73718 99.396994,120.19552 C 99.680260,120.65385 99.276612,121.02885 98.500000,121.02885 C 97.723388,121.02885 97.319740,120.65385 97.603006,120.19552 z M 129.60301,120.19552 C 129.88627,119.73718 128.81648,119.36218 127.22568,119.36218 C 125.34913,119.36218 124.33333,118.84652 124.33333,117.89389 C 124.33333,116.43968 127.25861,116.28746 128.64090,117.66975 C 129.02174,118.05059 129.82083,118.35529 130.41667,118.34687 C 131.01250,118.33845 130.82500,117.89534 130.00000,117.36218 C 129.17500,116.82903 128.97250,116.38592 129.55000,116.37750 C 130.12750,116.36907 131.20602,116.92468 131.94670,117.61218 C 133.03720,118.62437 133.13916,118.59204 132.48266,117.44224 C 131.88985,116.40400 132.09698,116.18542 133.25320,116.62910 C 134.16339,116.97837 135.06849,116.62610 135.38586,115.79904 C 136.31383,113.38077 137.75293,114.20382 137.24475,116.86218 C 136.86396,118.85415 136.16890,119.36218 133.82441,119.36218 C 132.20606,119.36218 131.11373,119.73718 131.39699,120.19552 C 131.68026,120.65385 131.27661,121.02885 130.50000,121.02885 C 129.72339,121.02885 129.31974,120.65385 129.60301,120.19552 z M 77.414436,119.25324 C 76.361496,118.84047 76.110645,118.47113 76.856989,118.43247 C 77.642865,118.39176 77.971188,117.72948 77.637098,116.85886 C 77.167813,115.63592 77.560295,115.68255 79.741433,117.10886 C 81.216101,118.07319 82.105137,118.34684 81.717068,117.71697 C 81.326933,117.08375 81.729306,116.29630 82.617084,115.95563 C 83.808060,115.49861 84.058900,115.76631 83.588448,116.99229 C 83.033519,118.43841 83.168637,118.47109 84.669066,117.25363 C 86.109204,116.08509 86.250769,116.08321 85.552763,117.24192 C 84.977994,118.19604 85.150133,118.47881 86.110804,118.15858 C 86.874862,117.90390 87.500000,117.20802 87.500000,116.61218 C 87.500000,116.01635 87.837500,115.19135 88.250000,114.77885 C 88.662500,114.36635 89.000000,115.22885 89.000000,116.69552 C 89.000000,118.91774 88.541667,119.37607 86.250000,119.44552 C 84.737500,119.49135 82.561496,119.63569 81.414436,119.76628 C 80.267375,119.89687 78.467375,119.66600 77.414436,119.25324 z M 109.41444,119.25324 C 108.36150,118.84047 108.11065,118.47113 108.85699,118.43247 C 109.64287,118.39176 109.97119,117.72948 109.63710,116.85886 C 109.16781,115.63592 109.56029,115.68255 111.74143,117.10886 C 113.21610,118.07319 114.10514,118.34684 113.71707,117.71697 C 113.32693,117.08375 113.72931,116.29630 114.61708,115.95563 C 115.80806,115.49861 116.05890,115.76631 115.58845,116.99229 C 115.03352,118.43841 115.16864,118.47109 116.66907,117.25363 C 118.10920,116.08509 118.25077,116.08321 117.55276,117.24192 C 116.97799,118.19604 117.15013,118.47881 118.11080,118.15858 C 118.87486,117.90390 119.50000,117.20802 119.50000,116.61218 C 119.50000,116.01635 119.83750,115.19135 120.25000,114.77885 C 120.66250,114.36635 121.00000,115.22885 121.00000,116.69552 C 121.00000,118.91774 120.54167,119.37607 118.25000,119.44552 C 116.73750,119.49135 114.56150,119.63569 113.41444,119.76628 C 112.26738,119.89687 110.46738,119.66600 109.41444,119.25324 z M 141.41444,119.25324 C 140.36150,118.84047 140.11065,118.47113 140.85699,118.43247 C 141.64287,118.39176 141.97119,117.72948 141.63710,116.85886 C 141.16781,115.63592 141.56029,115.68255 143.74143,117.10886 C 145.21610,118.07319 146.10514,118.34684 145.71707,117.71697 C 145.32693,117.08375 145.72931,116.29630 146.61708,115.95563 C 147.80806,115.49861 148.05890,115.76631 147.58845,116.99229 C 147.03352,118.43841 147.16864,118.47109 148.66907,117.25363 C 150.10920,116.08509 150.25077,116.08321 149.55276,117.24192 C 148.97799,118.19604 149.15013,118.47881 150.11080,118.15858 C 150.87486,117.90390 151.50000,117.20802 151.50000,116.61218 C 151.50000,116.01635 151.83750,115.19135 152.25000,114.77885 C 152.66250,114.36635 153.00000,115.22885 153.00000,116.69552 C 153.00000,118.91774 152.54167,119.37607 150.25000,119.44552 C 148.73750,119.49135 146.56150,119.63569 145.41444,119.76628 C 144.26738,119.89687 142.46738,119.66600 141.41444,119.25324 z M 156.33333,117.93689 C 156.33333,117.15297 157.15833,116.57373 158.16667,116.64969 C 160.55961,116.82995 160.55961,119.36218 158.16667,119.36218 C 157.15833,119.36218 156.33333,118.72080 156.33333,117.93689 z M 67.318419,111.06838 C 67.048590,110.63179 67.363813,109.62874 68.018915,108.83939 C 68.876895,107.80559 69.719727,107.67700 71.032563,108.37961 C 72.034967,108.91608 73.568445,109.08128 74.440293,108.74672 C 75.312140,108.41216 76.659336,108.66449 77.434061,109.30746 C 78.584228,110.26201 78.743956,110.09907 78.304694,108.41933 C 78.008818,107.28790 78.218147,106.36218 78.769869,106.36218 C 79.321592,106.36218 79.954628,107.59968 80.176616,109.11218 L 80.580230,111.86218 L 74.194623,111.86218 C 70.682540,111.86218 67.588248,111.50497 67.318419,111.06838 z M 87.500000,111.36736 C 85.300000,111.08952 83.416950,110.38803 83.315444,109.80852 C 83.061412,108.35819 90.163620,108.27011 91.941958,109.70152 C 92.735036,110.33989 93.101643,110.38975 92.756642,109.81233 C 92.411640,109.23492 93.000259,108.21860 94.064683,107.55386 C 95.775896,106.48519 96.000000,106.62221 96.000000,108.73713 C 96.000000,111.48777 93.812660,112.16462 87.500000,111.36736 z M 89.187500,109.67907 C 88.465625,109.39020 87.603125,109.42572 87.270833,109.75802 C 86.938542,110.09031 87.529167,110.32666 88.583333,110.28324 C 89.748276,110.23525 89.985233,109.99829 89.187500,109.67907 z M 99.318419,111.06838 C 99.048589,110.63179 99.363813,109.62874 100.01891,108.83939 C 100.87689,107.80559 101.71973,107.67700 103.03256,108.37961 C 104.03497,108.91608 105.56844,109.08128 106.44029,108.74672 C 107.31214,108.41216 108.65934,108.66449 109.43406,109.30746 C 110.58423,110.26201 110.74396,110.09907 110.30469,108.41933 C 110.00882,107.28790 110.21815,106.36218 110.76987,106.36218 C 111.32159,106.36218 111.95463,107.59968 112.17662,109.11218 L 112.58023,111.86218 L 106.19462,111.86218 C 102.68254,111.86218 99.588248,111.50497 99.318419,111.06838 z M 119.50000,111.36736 C 117.30000,111.08952 115.41695,110.38803 115.31544,109.80852 C 115.06141,108.35819 122.16362,108.27011 123.94196,109.70152 C 124.73504,110.33989 125.10164,110.38975 124.75664,109.81233 C 124.41164,109.23492 125.00026,108.21860 126.06468,107.55386 C 127.77590,106.48519 128.00000,106.62221 128.00000,108.73713 C 128.00000,111.48777 125.81266,112.16462 119.50000,111.36736 z M 121.18750,109.67907 C 120.46563,109.39020 119.60313,109.42572 119.27083,109.75802 C 118.93854,110.09031 119.52917,110.32666 120.58333,110.28324 C 121.74828,110.23525 121.98523,109.99829 121.18750,109.67907 z M 131.31842,111.06838 C 131.04859,110.63179 131.36381,109.62874 132.01891,108.83939 C 132.87689,107.80559 133.71973,107.67700 135.03256,108.37961 C 136.03497,108.91608 137.56844,109.08128 138.44029,108.74672 C 139.31214,108.41216 140.65934,108.66449 141.43406,109.30746 C 142.58423,110.26201 142.74396,110.09907 142.30469,108.41933 C 142.00882,107.28790 142.21815,106.36218 142.76987,106.36218 C 143.32159,106.36218 143.95463,107.59968 144.17662,109.11218 L 144.58023,111.86218 L 138.19462,111.86218 C 134.68254,111.86218 131.58825,111.50497 131.31842,111.06838 z M 151.50000,111.36736 C 149.30000,111.08952 147.41695,110.38803 147.31544,109.80852 C 147.06141,108.35819 154.16362,108.27011 155.94196,109.70152 C 156.73504,110.33989 157.10164,110.38975 156.75664,109.81233 C 156.41164,109.23492 157.00026,108.21860 158.06468,107.55386 C 159.77590,106.48519 160.00000,106.62221 160.00000,108.73713 C 160.00000,111.48777 157.81266,112.16462 151.50000,111.36736 z M 153.18750,109.67907 C 152.46562,109.39020 151.60313,109.42572 151.27083,109.75802 C 150.93854,110.09031 151.52917,110.32666 152.58333,110.28324 C 153.74828,110.23525 153.98523,109.99829 153.18750,109.67907 z M 80.000000,103.36433 C 76.113344,102.80671 74.675805,100.35317 78.250000,100.37750 C 80.069438,100.38988 80.212959,100.57831 79.000000,101.36218 C 78.098708,101.94464 77.975367,102.33767 78.690983,102.34687 C 79.346024,102.35529 80.133972,101.95443 80.441979,101.45606 C 80.749986,100.95770 81.839486,100.76895 82.863090,101.03663 C 83.951482,101.32125 84.963358,100.90005 85.300239,100.02216 C 85.617066,99.196517 86.691624,98.640660 87.688144,98.786918 C 88.684665,98.933176 89.387500,99.347443 89.250000,99.707512 C 89.112500,100.06758 89.000000,100.98611 89.000000,101.74868 C 89.000000,103.36266 84.997005,104.08126 80.000000,103.36433 z M 112.00000,103.36433 C 108.11334,102.80671 106.67580,100.35317 110.25000,100.37750 C 112.06944,100.38988 112.21296,100.57831 111.00000,101.36218 C 110.09871,101.94464 109.97537,102.33767 110.69098,102.34687 C 111.34602,102.35529 112.13397,101.95443 112.44198,101.45606 C 112.74999,100.95770 113.83949,100.76895 114.86309,101.03663 C 115.95148,101.32125 116.96336,100.90005 117.30024,100.02216 C 117.61707,99.196517 118.69162,98.640660 119.68814,98.786918 C 120.68466,98.933176 121.38750,99.347443 121.25000,99.707512 C 121.11250,100.06758 121.00000,100.98611 121.00000,101.74868 C 121.00000,103.36266 116.99701,104.08126 112.00000,103.36433 z M 144.00000,103.36433 C 140.11334,102.80671 138.67580,100.35317 142.25000,100.37750 C 144.06944,100.38988 144.21296,100.57831 143.00000,101.36218 C 142.09871,101.94464 141.97537,102.33767 142.69098,102.34687 C 143.34602,102.35529 144.13397,101.95443 144.44198,101.45606 C 144.74999,100.95770 145.83949,100.76895 146.86309,101.03663 C 147.95148,101.32125 148.96336,100.90005 149.30024,100.02216 C 149.61707,99.196517 150.69162,98.640660 151.68814,98.786918 C 152.68466,98.933176 153.38750,99.347443 153.25000,99.707512 C 153.11250,100.06758 153.00000,100.98611 153.00000,101.74868 C 153.00000,103.36266 148.99701,104.08126 144.00000,103.36433 z M 64.000000,102.36846 C 64.000000,101.82191 65.012500,101.53106 66.250000,101.72212 C 67.607838,101.93176 69.018130,101.33450 69.806704,100.21585 C 71.630568,97.628551 73.000000,97.905730 73.000000,100.86218 C 73.000000,103.15848 72.633333,103.36218 68.500000,103.36218 C 66.025000,103.36218 64.000000,102.91501 64.000000,102.36846 z M 92.000000,102.42120 C 92.000000,101.03200 94.122125,99.966320 94.861803,100.98407 C 95.987643,102.53315 100.45704,101.99629 101.80670,100.14985 C 103.64922,97.629156 105.00000,97.930478 105.00000,100.86218 C 105.00000,103.27244 104.76667,103.36218 98.500000,103.36218 C 94.925000,103.36218 92.000000,102.93874 92.000000,102.42120 z M 124.00000,102.42120 C 124.00000,101.03200 126.12212,99.966320 126.86180,100.98407 C 127.98764,102.53315 132.45704,101.99629 133.80670,100.14985 C 135.64922,97.629156 137.00000,97.930478 137.00000,100.86218 C 137.00000,103.27244 136.76667,103.36218 130.50000,103.36218 C 126.92500,103.36218 124.00000,102.93874 124.00000,102.42120 z M 156.22917,102.17468 C 156.84637,100.32308 158.69045,100.11314 159.34541,101.81992 C 159.76019,102.90081 159.32339,103.36218 157.88528,103.36218 C 156.74577,103.36218 156.00935,102.83414 156.22917,102.17468 z M 68.210249,95.417311 C 66.959248,94.523722 67.377113,92.366916 69.000000,91.341021 C 71.401645,89.822841 72.692009,90.280561 70.558870,91.893986 C 68.464285,93.478251 68.420105,93.461054 75.250022,93.720004 C 78.359868,93.837911 79.012040,93.520757 79.070308,91.862183 C 79.140571,89.862183 79.140571,89.862183 79.956745,91.862183 C 80.405642,92.962183 80.486513,94.173799 80.136460,94.554662 C 79.330464,95.431599 69.250938,96.160673 68.210249,95.417311 z M 85.943303,95.362183 C 84.599487,95.087183 83.376351,94.266235 83.225223,93.537853 C 83.049354,92.690221 83.409307,92.500122 84.225223,93.009733 C 86.332557,94.325947 87.848009,94.250247 89.078757,92.767287 C 90.757769,90.744201 93.056585,90.984012 92.384912,93.112183 C 91.966699,94.437276 92.316744,94.315874 93.826590,92.612183 C 96.401075,89.707166 96.739502,89.776990 96.250000,93.112183 C 95.892422,95.548518 95.420954,95.862183 92.116496,95.862183 C 90.065057,95.862183 87.287120,95.637183 85.943303,95.362183 z M 100.21025,95.417311 C 98.959248,94.523722 99.377113,92.366916 101.00000,91.341021 C 103.40165,89.822841 104.69201,90.280561 102.55887,91.893986 C 100.46428,93.478251 100.42011,93.461054 107.25002,93.720004 C 110.35987,93.837911 111.01204,93.520757 111.07031,91.862183 C 111.14057,89.862183 111.14057,89.862183 111.95674,91.862183 C 112.40564,92.962183 112.48651,94.173799 112.13646,94.554662 C 111.33046,95.431599 101.25094,96.160673 100.21025,95.417311 z M 117.94330,95.362183 C 116.59949,95.087183 115.37635,94.266235 115.22522,93.537853 C 115.04935,92.690221 115.40931,92.500122 116.22522,93.009733 C 118.33256,94.325947 119.84801,94.250247 121.07876,92.767287 C 122.75777,90.744201 125.05658,90.984012 124.38491,93.112183 C 123.96670,94.437276 124.31674,94.315874 125.82659,92.612183 C 128.40107,89.707166 128.73950,89.776990 128.25000,93.112183 C 127.89242,95.548518 127.42095,95.862183 124.11650,95.862183 C 122.06506,95.862183 119.28712,95.637183 117.94330,95.362183 z M 132.21025,95.417311 C 130.95925,94.523722 131.37711,92.366916 133.00000,91.341021 C 135.40165,89.822841 136.69201,90.280561 134.55887,91.893986 C 132.46429,93.478251 132.42011,93.461054 139.25002,93.720004 C 142.35987,93.837911 143.01204,93.520757 143.07031,91.862183 C 143.14057,89.862183 143.14057,89.862183 143.95675,91.862183 C 144.40564,92.962183 144.48651,94.173799 144.13646,94.554662 C 143.33046,95.431599 133.25094,96.160673 132.21025,95.417311 z M 149.94330,95.362183 C 148.59949,95.087183 147.37635,94.266235 147.22522,93.537853 C 147.04935,92.690221 147.40931,92.500122 148.22522,93.009733 C 150.33256,94.325947 151.84801,94.250247 153.07876,92.767287 C 154.75777,90.744201 157.05658,90.984012 156.38491,93.112183 C 155.98520,94.378658 156.40832,94.209898 157.91630,92.501399 L 160.00000,90.140615 L 160.00000,93.001399 C 160.00000,95.648102 159.71513,95.862183 156.19330,95.862183 C 154.09962,95.862183 151.28712,95.637183 149.94330,95.362183 z M 84.270833,90.758016 C 84.603125,90.425725 85.465625,90.390198 86.187500,90.679069 C 86.985233,90.998295 86.748276,91.235252 85.583333,91.283236 C 84.529167,91.326657 83.938542,91.090308 84.270833,90.758016 z M 116.27083,90.758016 C 116.60313,90.425725 117.46563,90.390198 118.18750,90.679069 C 118.98523,90.998295 118.74828,91.235252 117.58333,91.283236 C 116.52917,91.326657 115.93854,91.090308 116.27083,90.758016 z M 148.27083,90.758016 C 148.60313,90.425725 149.46562,90.390198 150.18750,90.679069 C 150.98523,90.998295 150.74828,91.235252 149.58333,91.283236 C 148.52917,91.326657 147.93854,91.090308 148.27083,90.758016 z M 65.550219,88.280927 C 65.804452,87.869569 65.447157,87.325819 64.756231,87.072593 C 63.773593,86.712455 63.763006,86.332843 64.707618,85.329565 C 65.688593,84.287666 66.240735,84.311126 67.649577,85.454565 C 69.143253,86.666856 69.265134,86.665146 68.527913,85.442244 C 67.895253,84.392787 68.084489,84.180627 69.253196,84.629102 C 70.163386,84.978374 71.068485,84.626097 71.385856,83.799041 C 72.313833,81.380772 73.752929,82.203823 73.244751,84.862183 C 72.863963,86.854148 72.168900,87.362183 69.824406,87.362183 C 68.206064,87.362183 67.113729,87.737183 67.396994,88.195516 C 67.680260,88.653850 67.276612,89.028850 66.500000,89.028850 C 65.723388,89.028850 65.295986,88.692284 65.550219,88.280927 z M 97.603006,88.195516 C 97.886271,87.737183 96.816476,87.362183 95.225684,87.362183 C 93.349134,87.362183 92.333333,86.846516 92.333333,85.893893 C 92.333333,84.439676 95.258609,84.287458 96.640897,85.669747 C 97.021737,86.050587 97.820833,86.355292 98.416667,86.346870 C 99.012500,86.338448 98.825000,85.895339 98.000000,85.362183 C 97.175000,84.829027 96.972500,84.385918 97.550000,84.377496 C 98.127500,84.369074 99.206017,84.924683 99.946704,85.612183 C 101.03720,86.624372 101.13916,86.592042 100.48266,85.442244 C 99.889851,84.404004 100.09698,84.185421 101.25320,84.629102 C 102.16339,84.978374 103.06849,84.626097 103.38586,83.799041 C 104.31383,81.380772 105.75293,82.203823 105.24475,84.862183 C 104.86396,86.854148 104.16890,87.362183 101.82441,87.362183 C 100.20606,87.362183 99.113729,87.737183 99.396994,88.195516 C 99.680260,88.653850 99.276612,89.028850 98.500000,89.028850 C 97.723388,89.028850 97.319740,88.653850 97.603006,88.195516 z M 129.60301,88.195516 C 129.88627,87.737183 128.81648,87.362183 127.22568,87.362183 C 125.34913,87.362183 124.33333,86.846516 124.33333,85.893893 C 124.33333,84.439676 127.25861,84.287458 128.64090,85.669747 C 129.02174,86.050587 129.82083,86.355292 130.41667,86.346870 C 131.01250,86.338448 130.82500,85.895339 130.00000,85.362183 C 129.17500,84.829027 128.97250,84.385918 129.55000,84.377496 C 130.12750,84.369074 131.20602,84.924683 131.94670,85.612183 C 133.03720,86.624372 133.13916,86.592042 132.48266,85.442244 C 131.88985,84.404004 132.09698,84.185421 133.25320,84.629102 C 134.16339,84.978374 135.06849,84.626097 135.38586,83.799041 C 136.31383,81.380772 137.75293,82.203823 137.24475,84.862183 C 136.86396,86.854148 136.16890,87.362183 133.82441,87.362183 C 132.20606,87.362183 131.11373,87.737183 131.39699,88.195516 C 131.68026,88.653850 131.27661,89.028850 130.50000,89.028850 C 129.72339,89.028850 129.31974,88.653850 129.60301,88.195516 z M 77.414436,87.253235 C 76.361496,86.840470 76.110645,86.471125 76.856989,86.432468 C 77.642865,86.391764 77.971188,85.729482 77.637098,84.858858 C 77.167813,83.635921 77.560295,83.682549 79.741433,85.108858 C 81.216101,86.073187 82.105137,86.346836 81.717068,85.716968 C 81.326933,85.083747 81.729306,84.296300 82.617084,83.955627 C 83.808060,83.498607 84.058900,83.766308 83.588448,84.992286 C 83.033519,86.438410 83.168637,86.471087 84.669066,85.253627 C 86.109204,84.085087 86.250769,84.083211 85.552763,85.241915 C 84.977994,86.196041 85.150133,86.478805 86.110804,86.158582 C 86.874862,85.903896 87.500000,85.208016 87.500000,84.612183 C 87.500000,84.016350 87.837500,83.191350 88.250000,82.778850 C 88.662500,82.366350 89.000000,83.228850 89.000000,84.695516 C 89.000000,86.917739 88.541667,87.376072 86.250000,87.445516 C 84.737500,87.491350 82.561496,87.635695 81.414436,87.766283 C 80.267375,87.896871 78.467375,87.666000 77.414436,87.253235 z M 109.41444,87.253235 C 108.36150,86.840470 108.11065,86.471125 108.85699,86.432468 C 109.64287,86.391764 109.97119,85.729482 109.63710,84.858858 C 109.16781,83.635921 109.56029,83.682549 111.74143,85.108858 C 113.21610,86.073187 114.10514,86.346836 113.71707,85.716968 C 113.32693,85.083747 113.72931,84.296300 114.61708,83.955627 C 115.80806,83.498607 116.05890,83.766308 115.58845,84.992286 C 115.03352,86.438410 115.16864,86.471087 116.66907,85.253627 C 118.10920,84.085087 118.25077,84.083211 117.55276,85.241915 C 116.97799,86.196041 117.15013,86.478805 118.11080,86.158582 C 118.87486,85.903896 119.50000,85.208016 119.50000,84.612183 C 119.50000,84.016350 119.83750,83.191350 120.25000,82.778850 C 120.66250,82.366350 121.00000,83.228850 121.00000,84.695516 C 121.00000,86.917739 120.54167,87.376072 118.25000,87.445516 C 116.73750,87.491350 114.56150,87.635695 113.41444,87.766283 C 112.26738,87.896871 110.46738,87.666000 109.41444,87.253235 z M 141.41444,87.253235 C 140.36150,86.840470 140.11065,86.471125 140.85699,86.432468 C 141.64287,86.391764 141.97119,85.729482 141.63710,84.858858 C 141.16781,83.635921 141.56029,83.682549 143.74143,85.108858 C 145.21610,86.073187 146.10514,86.346836 145.71707,85.716968 C 145.32693,85.083747 145.72931,84.296300 146.61708,83.955627 C 147.80806,83.498607 148.05890,83.766308 147.58845,84.992286 C 147.03352,86.438410 147.16864,86.471087 148.66907,85.253627 C 150.10920,84.085087 150.25077,84.083211 149.55276,85.241915 C 148.97799,86.196041 149.15013,86.478805 150.11080,86.158582 C 150.87486,85.903896 151.50000,85.208016 151.50000,84.612183 C 151.50000,84.016350 151.83750,83.191350 152.25000,82.778850 C 152.66250,82.366350 153.00000,83.228850 153.00000,84.695516 C 153.00000,86.917739 152.54167,87.376072 150.25000,87.445516 C 148.73750,87.491350 146.56150,87.635695 145.41444,87.766283 C 144.26738,87.896871 142.46738,87.666000 141.41444,87.253235 z M 156.33333,85.936887 C 156.33333,85.152973 157.15833,84.573735 158.16667,84.649691 C 160.55961,84.829946 160.55961,87.362183 158.16667,87.362183 C 157.15833,87.362183 156.33333,86.720800 156.33333,85.936887 z M 67.318419,79.068378 C 67.048590,78.631785 67.363813,77.628741 68.018915,76.839391 C 68.876895,75.805589 69.719727,75.677001 71.032563,76.379610 C 72.034967,76.916081 73.568445,77.081280 74.440293,76.746721 C 75.312140,76.412162 76.659336,76.664494 77.434061,77.307458 C 78.584228,78.262012 78.743956,78.099074 78.304694,76.419334 C 78.008818,75.287901 78.218147,74.362183 78.769869,74.362183 C 79.321592,74.362183 79.954628,75.599683 80.176616,77.112183 L 80.580230,79.862183 L 74.194623,79.862183 C 70.682540,79.862183 67.588248,79.504971 67.318419,79.068378 z M 87.500000,79.367364 C 85.300000,79.089515 83.416950,78.388033 83.315444,77.808516 C 83.061412,76.358193 90.163620,76.270105 91.941958,77.701523 C 92.735036,78.339886 93.101643,78.389751 92.756642,77.812334 C 92.411640,77.234918 93.000259,76.218604 94.064683,75.553860 C 95.775896,74.485190 96.000000,74.622209 96.000000,76.737132 C 96.000000,79.487775 93.812660,80.164624 87.500000,79.367364 z M 89.187500,77.679069 C 88.465625,77.390198 87.603125,77.425725 87.270833,77.758016 C 86.938542,78.090308 87.529167,78.326657 88.583333,78.283236 C 89.748276,78.235252 89.985233,77.998295 89.187500,77.679069 z M 99.318419,79.068378 C 99.048589,78.631785 99.363813,77.628741 100.01891,76.839391 C 100.87689,75.805589 101.71973,75.677001 103.03256,76.379610 C 104.03497,76.916081 105.56844,77.081280 106.44029,76.746721 C 107.31214,76.412162 108.65934,76.664494 109.43406,77.307458 C 110.58423,78.262012 110.74396,78.099074 110.30469,76.419334 C 110.00882,75.287901 110.21815,74.362183 110.76987,74.362183 C 111.32159,74.362183 111.95463,75.599683 112.17662,77.112183 L 112.58023,79.862183 L 106.19462,79.862183 C 102.68254,79.862183 99.588248,79.504971 99.318419,79.068378 z M 119.50000,79.367364 C 117.30000,79.089515 115.41695,78.388033 115.31544,77.808516 C 115.06141,76.358193 122.16362,76.270105 123.94196,77.701523 C 124.73504,78.339886 125.10164,78.389751 124.75664,77.812334 C 124.41164,77.234918 125.00026,76.218604 126.06468,75.553860 C 127.77590,74.485190 128.00000,74.622209 128.00000,76.737132 C 128.00000,79.487775 125.81266,80.164624 119.50000,79.367364 z M 121.18750,77.679069 C 120.46563,77.390198 119.60313,77.425725 119.27083,77.758016 C 118.93854,78.090308 119.52917,78.326657 120.58333,78.283236 C 121.74828,78.235252 121.98523,77.998295 121.18750,77.679069 z M 131.31842,79.068378 C 131.04859,78.631785 131.36381,77.628741 132.01891,76.839391 C 132.87689,75.805589 133.71973,75.677001 135.03256,76.379610 C 136.03497,76.916081 137.56844,77.081280 138.44029,76.746721 C 139.31214,76.412162 140.65934,76.664494 141.43406,77.307458 C 142.58423,78.262012 142.74396,78.099074 142.30469,76.419334 C 142.00882,75.287901 142.21815,74.362183 142.76987,74.362183 C 143.32159,74.362183 143.95463,75.599683 144.17662,77.112183 L 144.58023,79.862183 L 138.19462,79.862183 C 134.68254,79.862183 131.58825,79.504971 131.31842,79.068378 z M 151.50000,79.367364 C 149.30000,79.089515 147.41695,78.388033 147.31544,77.808516 C 147.06141,76.358193 154.16362,76.270105 155.94196,77.701523 C 156.73504,78.339886 157.10164,78.389751 156.75664,77.812334 C 156.41164,77.234918 157.00026,76.218604 158.06468,75.553860 C 159.77590,74.485190 160.00000,74.622209 160.00000,76.737132 C 160.00000,79.487775 157.81266,80.164624 151.50000,79.367364 z M 153.18750,77.679069 C 152.46562,77.390198 151.60313,77.425725 151.27083,77.758016 C 150.93854,78.090308 151.52917,78.326657 152.58333,78.283236 C 153.74828,78.235252 153.98523,77.998295 153.18750,77.679069 z M 80.000000,71.364332 C 76.113344,70.806709 74.675805,68.353171 78.250000,68.377496 C 80.069438,68.389878 80.212959,68.578309 79.000000,69.362183 C 78.098708,69.944643 77.975367,70.337669 78.690983,70.346870 C 79.346024,70.355292 80.133972,69.954429 80.441979,69.456063 C 80.749986,68.957697 81.839486,68.768953 82.863090,69.036631 C 83.951482,69.321252 84.963358,68.900054 85.300239,68.022157 C 85.617066,67.196517 86.691624,66.640660 87.688144,66.786918 C 88.684665,66.933176 89.387500,67.347443 89.250000,67.707512 C 89.112500,68.067581 89.000000,68.986108 89.000000,69.748684 C 89.000000,71.362655 84.997005,72.081258 80.000000,71.364332 z M 112.00000,71.364332 C 108.11334,70.806709 106.67580,68.353171 110.25000,68.377496 C 112.06944,68.389878 112.21296,68.578309 111.00000,69.362183 C 110.09871,69.944643 109.97537,70.337669 110.69098,70.346870 C 111.34602,70.355292 112.13397,69.954429 112.44198,69.456063 C 112.74999,68.957697 113.83949,68.768953 114.86309,69.036631 C 115.95148,69.321252 116.96336,68.900054 117.30024,68.022157 C 117.61707,67.196517 118.69162,66.640660 119.68814,66.786918 C 120.68466,66.933176 121.38750,67.347443 121.25000,67.707512 C 121.11250,68.067581 121.00000,68.986108 121.00000,69.748684 C 121.00000,71.362655 116.99701,72.081258 112.00000,71.364332 z M 144.00000,71.364332 C 140.11334,70.806709 138.67580,68.353171 142.25000,68.377496 C 144.06944,68.389878 144.21296,68.578309 143.00000,69.362183 C 142.09871,69.944643 141.97537,70.337669 142.69098,70.346870 C 143.34602,70.355292 144.13397,69.954429 144.44198,69.456063 C 144.74999,68.957697 145.83949,68.768953 146.86309,69.036631 C 147.95148,69.321252 148.96336,68.900054 149.30024,68.022157 C 149.61707,67.196517 150.69162,66.640660 151.68814,66.786918 C 152.68466,66.933176 153.38750,67.347443 153.25000,67.707512 C 153.11250,68.067581 153.00000,68.986108 153.00000,69.748684 C 153.00000,71.362655 148.99701,72.081258 144.00000,71.364332 z M 64.000000,70.368458 C 64.000000,69.821909 65.012500,69.531057 66.250000,69.722121 C 67.607838,69.931764 69.018130,69.334501 69.806704,68.215846 C 71.630568,65.628551 73.000000,65.905730 73.000000,68.862183 C 73.000000,71.158479 72.633333,71.362183 68.500000,71.362183 C 66.025000,71.362183 64.000000,70.915007 64.000000,70.368458 z M 92.000000,70.421200 C 92.000000,69.032002 94.122125,67.966320 94.861803,68.984068 C 95.987643,70.533147 100.45704,69.996285 101.80670,68.149849 C 103.64922,65.629156 105.00000,65.930478 105.00000,68.862183 C 105.00000,71.272439 104.76667,71.362183 98.500000,71.362183 C 94.925000,71.362183 92.000000,70.938741 92.000000,70.421200 z M 124.00000,70.421200 C 124.00000,69.032002 126.12212,67.966320 126.86180,68.984068 C 127.98764,70.533147 132.45704,69.996285 133.80670,68.149849 C 135.64922,65.629156 137.00000,65.930478 137.00000,68.862183 C 137.00000,71.272439 136.76667,71.362183 130.50000,71.362183 C 126.92500,71.362183 124.00000,70.938741 124.00000,70.421200 z M 156.22917,70.174683 C 156.84637,68.323075 158.69045,68.113138 159.34541,69.819919 C 159.76019,70.900811 159.32339,71.362183 157.88528,71.362183 C 156.74577,71.362183 156.00935,70.834142 156.22917,70.174683 z M 68.210249,63.417311 C 66.959248,62.523722 67.377113,60.366916 69.000000,59.341021 C 71.401645,57.822841 72.692009,58.280561 70.558870,59.893986 C 68.464285,61.478251 68.420105,61.461054 75.250022,61.720004 C 78.359868,61.837911 79.012040,61.520757 79.070308,59.862183 C 79.140571,57.862183 79.140571,57.862183 79.956745,59.862183 C 80.405642,60.962183 80.486513,62.173799 80.136460,62.554662 C 79.330464,63.431599 69.250938,64.160673 68.210249,63.417311 z M 85.943303,63.362183 C 84.599487,63.087183 83.376351,62.266235 83.225223,61.537853 C 83.049354,60.690221 83.409307,60.500122 84.225223,61.009733 C 86.332557,62.325947 87.848009,62.250247 89.078757,60.767287 C 90.757769,58.744201 93.056585,58.984012 92.384912,61.112183 C 91.966699,62.437276 92.316744,62.315874 93.826590,60.612183 C 96.401075,57.707166 96.739502,57.776990 96.250000,61.112183 C 95.892422,63.548518 95.420954,63.862183 92.116496,63.862183 C 90.065057,63.862183 87.287120,63.637183 85.943303,63.362183 z M 100.21025,63.417311 C 98.959248,62.523722 99.377113,60.366916 101.00000,59.341021 C 103.40165,57.822841 104.69201,58.280561 102.55887,59.893986 C 100.46428,61.478251 100.42011,61.461054 107.25002,61.720004 C 110.35987,61.837911 111.01204,61.520757 111.07031,59.862183 C 111.14057,57.862183 111.14057,57.862183 111.95674,59.862183 C 112.40564,60.962183 112.48651,62.173799 112.13646,62.554662 C 111.33046,63.431599 101.25094,64.160673 100.21025,63.417311 z M 117.94330,63.362183 C 116.59949,63.087183 115.37635,62.266235 115.22522,61.537853 C 115.04935,60.690221 115.40931,60.500122 116.22522,61.009733 C 118.33256,62.325947 119.84801,62.250247 121.07876,60.767287 C 122.75777,58.744201 125.05658,58.984012 124.38491,61.112183 C 123.96670,62.437276 124.31674,62.315874 125.82659,60.612183 C 128.40107,57.707166 128.73950,57.776990 128.25000,61.112183 C 127.89242,63.548518 127.42095,63.862183 124.11650,63.862183 C 122.06506,63.862183 119.28712,63.637183 117.94330,63.362183 z M 132.21025,63.417311 C 130.95925,62.523722 131.37711,60.366916 133.00000,59.341021 C 135.40165,57.822841 136.69201,58.280561 134.55887,59.893986 C 132.46429,61.478251 132.42011,61.461054 139.25002,61.720004 C 142.35987,61.837911 143.01204,61.520757 143.07031,59.862183 C 143.14057,57.862183 143.14057,57.862183 143.95675,59.862183 C 144.40564,60.962183 144.48651,62.173799 144.13646,62.554662 C 143.33046,63.431599 133.25094,64.160673 132.21025,63.417311 z M 149.94330,63.362183 C 148.59949,63.087183 147.37635,62.266235 147.22522,61.537853 C 147.04935,60.690221 147.40931,60.500122 148.22522,61.009733 C 150.33256,62.325947 151.84801,62.250247 153.07876,60.767287 C 154.75777,58.744201 157.05658,58.984012 156.38491,61.112183 C 155.98520,62.378658 156.40832,62.209898 157.91630,60.501399 L 160.00000,58.140615 L 160.00000,61.001399 C 160.00000,63.648102 159.71513,63.862183 156.19330,63.862183 C 154.09962,63.862183 151.28712,63.637183 149.94330,63.362183 z M 84.270833,58.758016 C 84.603125,58.425725 85.465625,58.390198 86.187500,58.679069 C 86.985233,58.998295 86.748276,59.235252 85.583333,59.283236 C 84.529167,59.326657 83.938542,59.090308 84.270833,58.758016 z M 116.27083,58.758016 C 116.60313,58.425725 117.46563,58.390198 118.18750,58.679069 C 118.98523,58.998295 118.74828,59.235252 117.58333,59.283236 C 116.52917,59.326657 115.93854,59.090308 116.27083,58.758016 z M 148.27083,58.758016 C 148.60313,58.425725 149.46562,58.390198 150.18750,58.679069 C 150.98523,58.998295 150.74828,59.235252 149.58333,59.283236 C 148.52917,59.326657 147.93854,59.090308 148.27083,58.758016 z M 65.550219,56.280927 C 65.804452,55.869569 65.447157,55.325819 64.756231,55.072593 C 63.773593,54.712455 63.763006,54.332843 64.707618,53.329565 C 65.688593,52.287666 66.240735,52.311126 67.649577,53.454565 C 69.143253,54.666856 69.265134,54.665146 68.527913,53.442244 C 67.895253,52.392787 68.084489,52.180627 69.253196,52.629102 C 70.163386,52.978374 71.068485,52.626097 71.385856,51.799041 C 72.313833,49.380772 73.752929,50.203823 73.244751,52.862183 C 72.863963,54.854148 72.168900,55.362183 69.824406,55.362183 C 68.206064,55.362183 67.113729,55.737183 67.396994,56.195516 C 67.680260,56.653850 67.276612,57.028850 66.500000,57.028850 C 65.723388,57.028850 65.295986,56.692284 65.550219,56.280927 z M 97.603006,56.195516 C 97.886271,55.737183 96.816476,55.362183 95.225684,55.362183 C 93.349134,55.362183 92.333333,54.846516 92.333333,53.893893 C 92.333333,52.439676 95.258609,52.287458 96.640897,53.669747 C 97.021737,54.050587 97.820833,54.355292 98.416667,54.346870 C 99.012500,54.338448 98.825000,53.895339 98.000000,53.362183 C 97.175000,52.829027 96.972500,52.385918 97.550000,52.377496 C 98.127500,52.369074 99.206017,52.924683 99.946704,53.612183 C 101.03720,54.624372 101.13916,54.592042 100.48266,53.442244 C 99.889851,52.404004 100.09698,52.185421 101.25320,52.629102 C 102.16339,52.978374 103.06849,52.626097 103.38586,51.799041 C 104.31383,49.380772 105.75293,50.203823 105.24475,52.862183 C 104.86396,54.854148 104.16890,55.362183 101.82441,55.362183 C 100.20606,55.362183 99.113729,55.737183 99.396994,56.195516 C 99.680260,56.653850 99.276612,57.028850 98.500000,57.028850 C 97.723388,57.028850 97.319740,56.653850 97.603006,56.195516 z M 129.60301,56.195516 C 129.88627,55.737183 128.81648,55.362183 127.22568,55.362183 C 125.34913,55.362183 124.33333,54.846516 124.33333,53.893893 C 124.33333,52.439676 127.25861,52.287458 128.64090,53.669747 C 129.02174,54.050587 129.82083,54.355292 130.41667,54.346870 C 131.01250,54.338448 130.82500,53.895339 130.00000,53.362183 C 129.17500,52.829027 128.97250,52.385918 129.55000,52.377496 C 130.12750,52.369074 131.20602,52.924683 131.94670,53.612183 C 133.03720,54.624372 133.13916,54.592042 132.48266,53.442244 C 131.88985,52.404004 132.09698,52.185421 133.25320,52.629102 C 134.16339,52.978374 135.06849,52.626097 135.38586,51.799041 C 136.31383,49.380772 137.75293,50.203823 137.24475,52.862183 C 136.86396,54.854148 136.16890,55.362183 133.82441,55.362183 C 132.20606,55.362183 131.11373,55.737183 131.39699,56.195516 C 131.68026,56.653850 131.27661,57.028850 130.50000,57.028850 C 129.72339,57.028850 129.31974,56.653850 129.60301,56.195516 z M 77.414436,55.253235 C 76.361496,54.840470 76.110645,54.471125 76.856989,54.432468 C 77.642865,54.391764 77.971188,53.729482 77.637098,52.858858 C 77.167813,51.635921 77.560295,51.682549 79.741433,53.108858 C 81.216101,54.073187 82.105137,54.346836 81.717068,53.716968 C 81.326933,53.083747 81.729306,52.296300 82.617084,51.955627 C 83.808060,51.498607 84.058900,51.766308 83.588448,52.992286 C 83.033519,54.438410 83.168637,54.471087 84.669066,53.253627 C 86.109204,52.085087 86.250769,52.083211 85.552763,53.241915 C 84.977994,54.196041 85.150133,54.478805 86.110804,54.158582 C 86.874862,53.903896 87.500000,53.208016 87.500000,52.612183 C 87.500000,52.016350 87.837500,51.191350 88.250000,50.778850 C 88.662500,50.366350 89.000000,51.228850 89.000000,52.695516 C 89.000000,54.917739 88.541667,55.376072 86.250000,55.445516 C 84.737500,55.491350 82.561496,55.635695 81.414436,55.766283 C 80.267375,55.896871 78.467375,55.666000 77.414436,55.253235 z M 109.41444,55.253235 C 108.36150,54.840470 108.11065,54.471125 108.85699,54.432468 C 109.64287,54.391764 109.97119,53.729482 109.63710,52.858858 C 109.16781,51.635921 109.56029,51.682549 111.74143,53.108858 C 113.21610,54.073187 114.10514,54.346836 113.71707,53.716968 C 113.32693,53.083747 113.72931,52.296300 114.61708,51.955627 C 115.80806,51.498607 116.05890,51.766308 115.58845,52.992286 C 115.03352,54.438410 115.16864,54.471087 116.66907,53.253627 C 118.10920,52.085087 118.25077,52.083211 117.55276,53.241915 C 116.97799,54.196041 117.15013,54.478805 118.11080,54.158582 C 118.87486,53.903896 119.50000,53.208016 119.50000,52.612183 C 119.50000,52.016350 119.83750,51.191350 120.25000,50.778850 C 120.66250,50.366350 121.00000,51.228850 121.00000,52.695516 C 121.00000,54.917739 120.54167,55.376072 118.25000,55.445516 C 116.73750,55.491350 114.56150,55.635695 113.41444,55.766283 C 112.26738,55.896871 110.46738,55.666000 109.41444,55.253235 z M 141.41444,55.253235 C 140.36150,54.840470 140.11065,54.471125 140.85699,54.432468 C 141.64287,54.391764 141.97119,53.729482 141.63710,52.858858 C 141.16781,51.635921 141.56029,51.682549 143.74143,53.108858 C 145.21610,54.073187 146.10514,54.346836 145.71707,53.716968 C 145.32693,53.083747 145.72931,52.296300 146.61708,51.955627 C 147.80806,51.498607 148.05890,51.766308 147.58845,52.992286 C 147.03352,54.438410 147.16864,54.471087 148.66907,53.253627 C 150.10920,52.085087 150.25077,52.083211 149.55276,53.241915 C 148.97799,54.196041 149.15013,54.478805 150.11080,54.158582 C 150.87486,53.903896 151.50000,53.208016 151.50000,52.612183 C 151.50000,52.016350 151.83750,51.191350 152.25000,50.778850 C 152.66250,50.366350 153.00000,51.228850 153.00000,52.695516 C 153.00000,54.917739 152.54167,55.376072 150.25000,55.445516 C 148.73750,55.491350 146.56150,55.635695 145.41444,55.766283 C 144.26738,55.896871 142.46738,55.666000 141.41444,55.253235 z M 156.33333,53.936887 C 156.33333,53.152973 157.15833,52.573735 158.16667,52.649691 C 160.55961,52.829946 160.55961,55.362183 158.16667,55.362183 C 157.15833,55.362183 156.33333,54.720800 156.33333,53.936887 z M 67.318419,47.068378 C 67.048590,46.631785 67.363813,45.628741 68.018915,44.839391 C 68.876895,43.805589 69.719727,43.677001 71.032563,44.379610 C 72.034967,44.916081 73.568445,45.081280 74.440293,44.746721 C 75.312140,44.412162 76.659336,44.664494 77.434061,45.307458 C 78.584228,46.262012 78.743956,46.099074 78.304694,44.419334 C 78.008818,43.287901 78.218147,42.362183 78.769869,42.362183 C 79.321592,42.362183 79.954628,43.599683 80.176616,45.112183 L 80.580230,47.862183 L 74.194623,47.862183 C 70.682540,47.862183 67.588248,47.504971 67.318419,47.068378 z M 87.500000,47.367364 C 85.300000,47.089515 83.416950,46.388033 83.315444,45.808516 C 83.061412,44.358193 90.163620,44.270105 91.941958,45.701523 C 92.735036,46.339886 93.101643,46.389751 92.756642,45.812334 C 92.411640,45.234918 93.000259,44.218604 94.064683,43.553860 C 95.775896,42.485190 96.000000,42.622209 96.000000,44.737132 C 96.000000,47.487775 93.812660,48.164624 87.500000,47.367364 z M 89.187500,45.679069 C 88.465625,45.390198 87.603125,45.425725 87.270833,45.758016 C 86.938542,46.090308 87.529167,46.326657 88.583333,46.283236 C 89.748276,46.235252 89.985233,45.998295 89.187500,45.679069 z M 99.318419,47.068378 C 99.048589,46.631785 99.363813,45.628741 100.01891,44.839391 C 100.87689,43.805589 101.71973,43.677001 103.03256,44.379610 C 104.03497,44.916081 105.56844,45.081280 106.44029,44.746721 C 107.31214,44.412162 108.65934,44.664494 109.43406,45.307458 C 110.58423,46.262012 110.74396,46.099074 110.30469,44.419334 C 110.00882,43.287901 110.21815,42.362183 110.76987,42.362183 C 111.32159,42.362183 111.95463,43.599683 112.17662,45.112183 L 112.58023,47.862183 L 106.19462,47.862183 C 102.68254,47.862183 99.588248,47.504971 99.318419,47.068378 z M 119.50000,47.367364 C 117.30000,47.089515 115.41695,46.388033 115.31544,45.808516 C 115.06141,44.358193 122.16362,44.270105 123.94196,45.701523 C 124.73504,46.339886 125.10164,46.389751 124.75664,45.812334 C 124.41164,45.234918 125.00026,44.218604 126.06468,43.553860 C 127.77590,42.485190 128.00000,42.622209 128.00000,44.737132 C 128.00000,47.487775 125.81266,48.164624 119.50000,47.367364 z M 121.18750,45.679069 C 120.46563,45.390198 119.60313,45.425725 119.27083,45.758016 C 118.93854,46.090308 119.52917,46.326657 120.58333,46.283236 C 121.74828,46.235252 121.98523,45.998295 121.18750,45.679069 z M 131.31842,47.068378 C 131.04859,46.631785 131.36381,45.628741 132.01891,44.839391 C 132.87689,43.805589 133.71973,43.677001 135.03256,44.379610 C 136.03497,44.916081 137.56844,45.081280 138.44029,44.746721 C 139.31214,44.412162 140.65934,44.664494 141.43406,45.307458 C 142.58423,46.262012 142.74396,46.099074 142.30469,44.419334 C 142.00882,43.287901 142.21815,42.362183 142.76987,42.362183 C 143.32159,42.362183 143.95463,43.599683 144.17662,45.112183 L 144.58023,47.862183 L 138.19462,47.862183 C 134.68254,47.862183 131.58825,47.504971 131.31842,47.068378 z M 151.50000,47.367364 C 149.30000,47.089515 147.41695,46.388033 147.31544,45.808516 C 147.06141,44.358193 154.16362,44.270105 155.94196,45.701523 C 156.73504,46.339886 157.10164,46.389751 156.75664,45.812334 C 156.41164,45.234918 157.00026,44.218604 158.06468,43.553860 C 159.77590,42.485190 160.00000,42.622209 160.00000,44.737132 C 160.00000,47.487775 157.81266,48.164624 151.50000,47.367364 z M 153.18750,45.679069 C 152.46562,45.390198 151.60313,45.425725 151.27083,45.758016 C 150.93854,46.090308 151.52917,46.326657 152.58333,46.283236 C 153.74828,46.235252 153.98523,45.998295 153.18750,45.679069 z M 80.000000,39.364332 C 76.113344,38.806709 74.675805,36.353171 78.250000,36.377496 C 80.069438,36.389878 80.212959,36.578309 79.000000,37.362183 C 78.098708,37.944643 77.975367,38.337669 78.690983,38.346870 C 79.346024,38.355292 80.133972,37.954429 80.441979,37.456063 C 80.749986,36.957697 81.839486,36.768953 82.863090,37.036631 C 83.951482,37.321252 84.963358,36.900054 85.300239,36.022157 C 85.617066,35.196517 86.691624,34.640660 87.688144,34.786918 C 88.684665,34.933176 89.387500,35.347443 89.250000,35.707512 C 89.112500,36.067581 89.000000,36.986108 89.000000,37.748684 C 89.000000,39.362655 84.997005,40.081258 80.000000,39.364332 z M 112.00000,39.364332 C 108.11334,38.806709 106.67580,36.353171 110.25000,36.377496 C 112.06944,36.389878 112.21296,36.578309 111.00000,37.362183 C 110.09871,37.944643 109.97537,38.337669 110.69098,38.346870 C 111.34602,38.355292 112.13397,37.954429 112.44198,37.456063 C 112.74999,36.957697 113.83949,36.768953 114.86309,37.036631 C 115.95148,37.321252 116.96336,36.900054 117.30024,36.022157 C 117.61707,35.196517 118.69162,34.640660 119.68814,34.786918 C 120.68466,34.933176 121.38750,35.347443 121.25000,35.707512 C 121.11250,36.067581 121.00000,36.986108 121.00000,37.748684 C 121.00000,39.362655 116.99701,40.081258 112.00000,39.364332 z M 144.00000,39.364332 C 140.11334,38.806709 138.67580,36.353171 142.25000,36.377496 C 144.06944,36.389878 144.21296,36.578309 143.00000,37.362183 C 142.09871,37.944643 141.97537,38.337669 142.69098,38.346870 C 143.34602,38.355292 144.13397,37.954429 144.44198,37.456063 C 144.74999,36.957697 145.83949,36.768953 146.86309,37.036631 C 147.95148,37.321252 148.96336,36.900054 149.30024,36.022157 C 149.61707,35.196517 150.69162,34.640660 151.68814,34.786918 C 152.68466,34.933176 153.38750,35.347443 153.25000,35.707512 C 153.11250,36.067581 153.00000,36.986108 153.00000,37.748684 C 153.00000,39.362655 148.99701,40.081258 144.00000,39.364332 z M 64.000000,38.368458 C 64.000000,37.821908 65.012500,37.531057 66.250000,37.722121 C 67.607838,37.931764 69.018130,37.334501 69.806704,36.215846 C 71.630568,33.628551 73.000000,33.905730 73.000000,36.862183 C 73.000000,39.158479 72.633333,39.362183 68.500000,39.362183 C 66.025000,39.362183 64.000000,38.915007 64.000000,38.368458 z M 92.000000,38.421200 C 92.000000,37.032002 94.122125,35.966320 94.861803,36.984068 C 95.987643,38.533147 100.45704,37.996285 101.80670,36.149849 C 103.64922,33.629156 105.00000,33.930478 105.00000,36.862183 C 105.00000,39.272439 104.76667,39.362183 98.500000,39.362183 C 94.925000,39.362183 92.000000,38.938741 92.000000,38.421200 z M 124.00000,38.421200 C 124.00000,37.032002 126.12212,35.966320 126.86180,36.984068 C 127.98764,38.533147 132.45704,37.996285 133.80670,36.149849 C 135.64922,33.629156 137.00000,33.930478 137.00000,36.862183 C 137.00000,39.272439 136.76667,39.362183 130.50000,39.362183 C 126.92500,39.362183 124.00000,38.938741 124.00000,38.421200 z M 156.22917,38.174683 C 156.84637,36.323075 158.69045,36.113138 159.34541,37.819919 C 159.76019,38.900811 159.32339,39.362183 157.88528,39.362183 C 156.74577,39.362183 156.00935,38.834142 156.22917,38.174683 z M 68.243707,31.417311 C 67.834668,31.111990 67.376196,30.265771 67.224880,29.536823 C 67.027059,28.583844 67.588992,28.417292 69.224880,28.944040 C 72.449195,29.982255 79.000000,30.072311 79.000000,29.078422 C 79.000000,28.619572 79.489210,28.546497 80.087132,28.916034 C 80.685055,29.285570 80.797555,29.961244 80.337132,30.417530 C 79.350453,31.395345 69.324686,32.224190 68.243707,31.417311 z M 85.943303,31.362183 C 84.599487,31.087183 83.362109,30.223510 83.193576,29.442910 C 82.974168,28.426672 83.258140,28.302108 84.193576,29.004263 C 85.646368,30.094754 86.627097,30.071143 89.350925,28.880099 C 90.533172,28.363140 91.481497,28.523228 91.975925,29.323228 C 92.524992,30.211638 92.948830,30.253995 93.434017,29.468946 C 94.482204,27.772943 96.000000,28.153422 96.000000,30.112183 C 96.000000,31.472372 95.152062,31.862183 92.193303,31.862183 C 90.099620,31.862183 87.287120,31.637183 85.943303,31.362183 z M 100.24371,31.417311 C 99.834668,31.111990 99.376196,30.265771 99.224880,29.536823 C 99.027059,28.583844 99.588992,28.417292 101.22488,28.944040 C 104.44920,29.982255 111.00000,30.072311 111.00000,29.078422 C 111.00000,28.619572 111.48921,28.546497 112.08713,28.916034 C 112.68506,29.285570 112.79756,29.961244 112.33713,30.417530 C 111.35045,31.395345 101.32469,32.224190 100.24371,31.417311 z M 117.94330,31.362183 C 116.59949,31.087183 115.36211,30.223510 115.19358,29.442910 C 114.97417,28.426672 115.25814,28.302108 116.19358,29.004263 C 117.64637,30.094754 118.62710,30.071143 121.35092,28.880099 C 122.53317,28.363140 123.48150,28.523228 123.97592,29.323228 C 124.52499,30.211638 124.94883,30.253995 125.43402,29.468946 C 126.48220,27.772943 128.00000,28.153422 128.00000,30.112183 C 128.00000,31.472372 127.15206,31.862183 124.19330,31.862183 C 122.09962,31.862183 119.28712,31.637183 117.94330,31.362183 z M 132.24371,31.417311 C 131.83467,31.111990 131.37620,30.265771 131.22488,29.536823 C 131.02706,28.583844 131.58899,28.417292 133.22488,28.944040 C 136.44920,29.982255 143.00000,30.072311 143.00000,29.078422 C 143.00000,28.619572 143.48921,28.546497 144.08713,28.916034 C 144.68506,29.285570 144.79755,29.961244 144.33713,30.417530 C 143.35045,31.395345 133.32469,32.224190 132.24371,31.417311 z M 149.94330,31.362183 C 148.59949,31.087183 147.36211,30.223510 147.19358,29.442910 C 146.97417,28.426672 147.25814,28.302108 148.19358,29.004263 C 149.64637,30.094754 150.62710,30.071143 153.35093,28.880099 C 154.53317,28.363140 155.48150,28.523228 155.97593,29.323228 C 156.52499,30.211638 156.94883,30.253995 157.43402,29.468946 C 158.48220,27.772943 160.00000,28.153422 160.00000,30.112183 C 160.00000,31.472372 159.15206,31.862183 156.19330,31.862183 C 154.09962,31.862183 151.28712,31.637183 149.94330,31.362183 z "
         style="fill:#b6b6b6" />
      <path
         id="path3483"
         d="M 67.687584,118.66768 C 70.568679,118.38257 72.003303,117.72429 72.285867,116.55774 C 72.575510,115.36195 72.667596,115.45169 72.598283,116.86218 C 72.516135,118.53384 71.761238,118.88023 68.000000,118.97212 L 63.500000,119.08207 L 67.687584,118.66768 z M 81.686486,118.65047 C 86.486785,118.35529 87.965242,117.88825 88.284769,116.56611 C 88.578774,115.34958 88.668453,115.43427 88.598283,116.86218 C 88.511029,118.63775 87.770606,118.87165 82.000000,118.94654 L 75.500000,119.03090 L 81.686486,118.65047 z M 97.686486,118.65047 C 102.48678,118.35529 103.96524,117.88825 104.28477,116.56611 C 104.57877,115.34958 104.66845,115.43427 104.59828,116.86218 C 104.51103,118.63775 103.77061,118.87165 98.000000,118.94654 L 91.500000,119.03090 L 97.686486,118.65047 z M 113.68649,118.65047 C 118.48678,118.35529 119.96524,117.88825 120.28477,116.56611 C 120.57877,115.34958 120.66845,115.43427 120.59828,116.86218 C 120.51103,118.63775 119.77061,118.87165 114.00000,118.94654 L 107.50000,119.03090 L 113.68649,118.65047 z M 129.68649,118.65047 C 134.48678,118.35529 135.96524,117.88825 136.28477,116.56611 C 136.57877,115.34958 136.66845,115.43427 136.59828,116.86218 C 136.51103,118.63775 135.77061,118.87165 130.00000,118.94654 L 123.50000,119.03090 L 129.68649,118.65047 z M 145.68649,118.65047 C 150.48678,118.35529 151.96524,117.88825 152.28477,116.56611 C 152.57877,115.34958 152.66845,115.43427 152.59828,116.86218 C 152.51103,118.63775 151.77061,118.87165 146.00000,118.94654 L 139.50000,119.03090 L 145.68649,118.65047 z M 156.75000,118.69990 C 157.43750,118.42249 158.56250,118.42249 159.25000,118.69990 C 159.93750,118.97732 159.37500,119.20429 158.00000,119.20429 C 156.62500,119.20429 156.06250,118.97732 156.75000,118.69990 z M 72.686486,110.65047 C 77.486785,110.35529 78.965242,109.88825 79.284769,108.56611 C 79.578774,107.34958 79.668453,107.43427 79.598283,108.86218 C 79.511029,110.63775 78.770606,110.87165 73.000000,110.94654 L 66.500000,111.03090 L 72.686486,110.65047 z M 88.686486,110.62344 C 94.129888,110.31249 94.924301,110.00532 95.300304,108.06611 C 95.655814,106.23260 95.750524,106.32438 95.863818,108.61218 L 96.000000,111.36218 L 89.250000,111.16950 L 82.500000,110.97682 L 88.686486,110.62344 z M 104.68649,110.65047 C 109.48678,110.35529 110.96524,109.88825 111.28477,108.56611 C 111.57877,107.34958 111.66845,107.43427 111.59828,108.86218 C 111.51103,110.63775 110.77061,110.87165 105.00000,110.94654 L 98.500000,111.03090 L 104.68649,110.65047 z M 120.68649,110.62344 C 126.12989,110.31249 126.92430,110.00532 127.30030,108.06611 C 127.65581,106.23260 127.75052,106.32438 127.86382,108.61218 L 128.00000,111.36218 L 121.25000,111.16950 L 114.50000,110.97682 L 120.68649,110.62344 z M 136.68649,110.65047 C 141.48678,110.35529 142.96524,109.88825 143.28477,108.56611 C 143.57877,107.34958 143.66845,107.43427 143.59828,108.86218 C 143.51103,110.63775 142.77061,110.87165 137.00000,110.94654 L 130.50000,111.03090 L 136.68649,110.65047 z M 152.68649,110.62344 C 158.12989,110.31249 158.92430,110.00532 159.30030,108.06611 C 159.65581,106.23260 159.75052,106.32438 159.86382,108.61218 L 160.00000,111.36218 L 153.25000,111.16950 L 146.50000,110.97682 L 152.68649,110.62344 z M 67.687584,102.66768 C 70.568679,102.38257 72.003303,101.72429 72.285867,100.55774 C 72.575510,99.361954 72.667596,99.451691 72.598283,100.86218 C 72.516135,102.53384 71.761238,102.88023 68.000000,102.97212 L 63.500000,103.08207 L 67.687584,102.66768 z M 81.686486,102.65047 C 86.486785,102.35529 87.965242,101.88825 88.284769,100.56611 C 88.578774,99.349579 88.668453,99.434267 88.598283,100.86218 C 88.511029,102.63775 87.770606,102.87165 82.000000,102.94654 L 75.500000,103.03090 L 81.686486,102.65047 z M 97.686486,102.65047 C 102.48678,102.35529 103.96524,101.88825 104.28477,100.56611 C 104.57877,99.349579 104.66845,99.434267 104.59828,100.86218 C 104.51103,102.63775 103.77061,102.87165 98.000000,102.94654 L 91.500000,103.03090 L 97.686486,102.65047 z M 113.68649,102.65047 C 118.48678,102.35529 119.96524,101.88825 120.28477,100.56611 C 120.57877,99.349579 120.66845,99.434267 120.59828,100.86218 C 120.51103,102.63775 119.77061,102.87165 114.00000,102.94654 L 107.50000,103.03090 L 113.68649,102.65047 z M 129.68649,102.65047 C 134.48678,102.35529 135.96524,101.88825 136.28477,100.56611 C 136.57877,99.349579 136.66845,99.434267 136.59828,100.86218 C 136.51103,102.63775 135.77061,102.87165 130.00000,102.94654 L 123.50000,103.03090 L 129.68649,102.65047 z M 145.68649,102.65047 C 150.48678,102.35529 151.96524,101.88825 152.28477,100.56611 C 152.57877,99.349579 152.66845,99.434267 152.59828,100.86218 C 152.51103,102.63775 151.77061,102.87165 146.00000,102.94654 L 139.50000,103.03090 L 145.68649,102.65047 z M 156.75000,102.69990 C 157.43750,102.42249 158.56250,102.42249 159.25000,102.69990 C 159.93750,102.97732 159.37500,103.20429 158.00000,103.20429 C 156.62500,103.20429 156.06250,102.97732 156.75000,102.69990 z M 72.686486,94.650473 C 77.486785,94.355287 78.965242,93.888251 79.284769,92.566114 C 79.578774,91.349579 79.668453,91.434267 79.598283,92.862183 C 79.511029,94.637754 78.770606,94.871649 73.000000,94.946542 L 66.500000,95.030900 L 72.686486,94.650473 z M 88.686486,94.650473 C 93.486785,94.355287 94.965242,93.888251 95.284769,92.566114 C 95.578774,91.349579 95.668453,91.434267 95.598283,92.862183 C 95.511029,94.637754 94.770606,94.871649 89.000000,94.946542 L 82.500000,95.030900 L 88.686486,94.650473 z M 104.68649,94.650473 C 109.48678,94.355287 110.96524,93.888251 111.28477,92.566114 C 111.57877,91.349579 111.66845,91.434267 111.59828,92.862183 C 111.51103,94.637754 110.77061,94.871649 105.00000,94.946542 L 98.500000,95.030900 L 104.68649,94.650473 z M 120.68649,94.650473 C 125.48678,94.355287 126.96524,93.888251 127.28477,92.566114 C 127.57877,91.349579 127.66845,91.434267 127.59828,92.862183 C 127.51103,94.637754 126.77061,94.871649 121.00000,94.946542 L 114.50000,95.030900 L 120.68649,94.650473 z M 136.68649,94.650473 C 141.48678,94.355287 142.96524,93.888251 143.28477,92.566114 C 143.57877,91.349579 143.66845,91.434267 143.59828,92.862183 C 143.51103,94.637754 142.77061,94.871649 137.00000,94.946542 L 130.50000,95.030900 L 136.68649,94.650473 z M 152.68649,94.650473 C 157.48678,94.355287 158.96524,93.888251 159.28477,92.566114 C 159.57877,91.349579 159.66845,91.434267 159.59828,92.862183 C 159.51103,94.637754 158.77061,94.871649 153.00000,94.946542 L 146.50000,95.030900 L 152.68649,94.650473 z M 67.687584,86.667676 C 70.568679,86.382573 72.003303,85.724290 72.285867,84.557735 C 72.575510,83.361954 72.667596,83.451691 72.598283,84.862183 C 72.516135,86.533844 71.761238,86.880232 68.000000,86.972124 L 63.500000,87.082065 L 67.687584,86.667676 z M 81.686486,86.650473 C 86.486785,86.355287 87.965242,85.888251 88.284769,84.566114 C 88.578774,83.349579 88.668453,83.434267 88.598283,84.862183 C 88.511029,86.637754 87.770606,86.871649 82.000000,86.946542 L 75.500000,87.030900 L 81.686486,86.650473 z M 97.686486,86.650473 C 102.48678,86.355287 103.96524,85.888251 104.28477,84.566114 C 104.57877,83.349579 104.66845,83.434267 104.59828,84.862183 C 104.51103,86.637754 103.77061,86.871649 98.000000,86.946542 L 91.500000,87.030900 L 97.686486,86.650473 z M 113.68649,86.650473 C 118.48678,86.355287 119.96524,85.888251 120.28477,84.566114 C 120.57877,83.349579 120.66845,83.434267 120.59828,84.862183 C 120.51103,86.637754 119.77061,86.871649 114.00000,86.946542 L 107.50000,87.030900 L 113.68649,86.650473 z M 129.68649,86.650473 C 134.48678,86.355287 135.96524,85.888251 136.28477,84.566114 C 136.57877,83.349579 136.66845,83.434267 136.59828,84.862183 C 136.51103,86.637754 135.77061,86.871649 130.00000,86.946542 L 123.50000,87.030900 L 129.68649,86.650473 z M 145.68649,86.650473 C 150.48678,86.355287 151.96524,85.888251 152.28477,84.566114 C 152.57877,83.349579 152.66845,83.434267 152.59828,84.862183 C 152.51103,86.637754 151.77061,86.871649 146.00000,86.946542 L 139.50000,87.030900 L 145.68649,86.650473 z M 156.75000,86.699902 C 157.43750,86.422490 158.56250,86.422490 159.25000,86.699902 C 159.93750,86.977315 159.37500,87.204288 158.00000,87.204288 C 156.62500,87.204288 156.06250,86.977315 156.75000,86.699902 z M 72.686486,78.650473 C 77.486785,78.355287 78.965242,77.888251 79.284769,76.566114 C 79.578774,75.349579 79.668453,75.434267 79.598283,76.862183 C 79.511029,78.637754 78.770606,78.871649 73.000000,78.946542 L 66.500000,79.030900 L 72.686486,78.650473 z M 88.686486,78.623435 C 94.129888,78.312492 94.924301,78.005322 95.300304,76.066114 C 95.655814,74.232601 95.750524,74.324380 95.863818,76.612183 L 96.000000,79.362183 L 89.250000,79.169503 L 82.500000,78.976824 L 88.686486,78.623435 z M 104.68649,78.650473 C 109.48678,78.355287 110.96524,77.888251 111.28477,76.566114 C 111.57877,75.349579 111.66845,75.434267 111.59828,76.862183 C 111.51103,78.637754 110.77061,78.871649 105.00000,78.946542 L 98.500000,79.030900 L 104.68649,78.650473 z M 120.68649,78.623435 C 126.12989,78.312492 126.92430,78.005322 127.30030,76.066114 C 127.65581,74.232601 127.75052,74.324380 127.86382,76.612183 L 128.00000,79.362183 L 121.25000,79.169503 L 114.50000,78.976824 L 120.68649,78.623435 z M 136.68649,78.650473 C 141.48678,78.355287 142.96524,77.888251 143.28477,76.566114 C 143.57877,75.349579 143.66845,75.434267 143.59828,76.862183 C 143.51103,78.637754 142.77061,78.871649 137.00000,78.946542 L 130.50000,79.030900 L 136.68649,78.650473 z M 152.68649,78.623435 C 158.12989,78.312492 158.92430,78.005322 159.30030,76.066114 C 159.65581,74.232601 159.75052,74.324380 159.86382,76.612183 L 160.00000,79.362183 L 153.25000,79.169503 L 146.50000,78.976824 L 152.68649,78.623435 z M 67.687584,70.667676 C 70.568679,70.382573 72.003303,69.724290 72.285867,68.557735 C 72.575510,67.361954 72.667596,67.451691 72.598283,68.862183 C 72.516135,70.533844 71.761238,70.880232 68.000000,70.972124 L 63.500000,71.082065 L 67.687584,70.667676 z M 81.686486,70.650473 C 86.486785,70.355287 87.965242,69.888251 88.284769,68.566114 C 88.578774,67.349579 88.668453,67.434267 88.598283,68.862183 C 88.511029,70.637754 87.770606,70.871649 82.000000,70.946542 L 75.500000,71.030900 L 81.686486,70.650473 z M 97.686486,70.650473 C 102.48678,70.355287 103.96524,69.888251 104.28477,68.566114 C 104.57877,67.349579 104.66845,67.434267 104.59828,68.862183 C 104.51103,70.637754 103.77061,70.871649 98.000000,70.946542 L 91.500000,71.030900 L 97.686486,70.650473 z M 113.68649,70.650473 C 118.48678,70.355287 119.96524,69.888251 120.28477,68.566114 C 120.57877,67.349579 120.66845,67.434267 120.59828,68.862183 C 120.51103,70.637754 119.77061,70.871649 114.00000,70.946542 L 107.50000,71.030900 L 113.68649,70.650473 z M 129.68649,70.650473 C 134.48678,70.355287 135.96524,69.888251 136.28477,68.566114 C 136.57877,67.349579 136.66845,67.434267 136.59828,68.862183 C 136.51103,70.637754 135.77061,70.871649 130.00000,70.946542 L 123.50000,71.030900 L 129.68649,70.650473 z M 145.68649,70.650473 C 150.48678,70.355287 151.96524,69.888251 152.28477,68.566114 C 152.57877,67.349579 152.66845,67.434267 152.59828,68.862183 C 152.51103,70.637754 151.77061,70.871649 146.00000,70.946542 L 139.50000,71.030900 L 145.68649,70.650473 z M 156.75000,70.699902 C 157.43750,70.422490 158.56250,70.422490 159.25000,70.699902 C 159.93750,70.977315 159.37500,71.204288 158.00000,71.204288 C 156.62500,71.204288 156.06250,70.977315 156.75000,70.699902 z M 72.686486,62.650473 C 77.486785,62.355287 78.965242,61.888251 79.284769,60.566114 C 79.578774,59.349579 79.668453,59.434267 79.598283,60.862183 C 79.511029,62.637754 78.770606,62.871649 73.000000,62.946542 L 66.500000,63.030900 L 72.686486,62.650473 z M 88.686486,62.650473 C 93.486785,62.355287 94.965242,61.888251 95.284769,60.566114 C 95.578774,59.349579 95.668453,59.434267 95.598283,60.862183 C 95.511029,62.637754 94.770606,62.871649 89.000000,62.946542 L 82.500000,63.030900 L 88.686486,62.650473 z M 104.68649,62.650473 C 109.48678,62.355287 110.96524,61.888251 111.28477,60.566114 C 111.57877,59.349579 111.66845,59.434267 111.59828,60.862183 C 111.51103,62.637754 110.77061,62.871649 105.00000,62.946542 L 98.500000,63.030900 L 104.68649,62.650473 z M 120.68649,62.650473 C 125.48678,62.355287 126.96524,61.888251 127.28477,60.566114 C 127.57877,59.349579 127.66845,59.434267 127.59828,60.862183 C 127.51103,62.637754 126.77061,62.871649 121.00000,62.946542 L 114.50000,63.030900 L 120.68649,62.650473 z M 136.68649,62.650473 C 141.48678,62.355287 142.96524,61.888251 143.28477,60.566114 C 143.57877,59.349579 143.66845,59.434267 143.59828,60.862183 C 143.51103,62.637754 142.77061,62.871649 137.00000,62.946542 L 130.50000,63.030900 L 136.68649,62.650473 z M 152.68649,62.650473 C 157.48678,62.355287 158.96524,61.888251 159.28477,60.566114 C 159.57877,59.349579 159.66845,59.434267 159.59828,60.862183 C 159.51103,62.637754 158.77061,62.871649 153.00000,62.946542 L 146.50000,63.030900 L 152.68649,62.650473 z M 67.687584,54.667676 C 70.568679,54.382573 72.003303,53.724290 72.285867,52.557735 C 72.575510,51.361954 72.667596,51.451691 72.598283,52.862183 C 72.516135,54.533844 71.761238,54.880232 68.000000,54.972124 L 63.500000,55.082065 L 67.687584,54.667676 z M 81.686486,54.650473 C 86.486785,54.355287 87.965242,53.888251 88.284769,52.566114 C 88.578774,51.349579 88.668453,51.434267 88.598283,52.862183 C 88.511029,54.637754 87.770606,54.871649 82.000000,54.946542 L 75.500000,55.030900 L 81.686486,54.650473 z M 97.686486,54.650473 C 102.48678,54.355287 103.96524,53.888251 104.28477,52.566114 C 104.57877,51.349579 104.66845,51.434267 104.59828,52.862183 C 104.51103,54.637754 103.77061,54.871649 98.000000,54.946542 L 91.500000,55.030900 L 97.686486,54.650473 z M 113.68649,54.650473 C 118.48678,54.355287 119.96524,53.888251 120.28477,52.566114 C 120.57877,51.349579 120.66845,51.434267 120.59828,52.862183 C 120.51103,54.637754 119.77061,54.871649 114.00000,54.946542 L 107.50000,55.030900 L 113.68649,54.650473 z M 129.68649,54.650473 C 134.48678,54.355287 135.96524,53.888251 136.28477,52.566114 C 136.57877,51.349579 136.66845,51.434267 136.59828,52.862183 C 136.51103,54.637754 135.77061,54.871649 130.00000,54.946542 L 123.50000,55.030900 L 129.68649,54.650473 z M 145.68649,54.650473 C 150.48678,54.355287 151.96524,53.888251 152.28477,52.566114 C 152.57877,51.349579 152.66845,51.434267 152.59828,52.862183 C 152.51103,54.637754 151.77061,54.871649 146.00000,54.946542 L 139.50000,55.030900 L 145.68649,54.650473 z M 156.75000,54.699902 C 157.43750,54.422490 158.56250,54.422490 159.25000,54.699902 C 159.93750,54.977315 159.37500,55.204288 158.00000,55.204288 C 156.62500,55.204288 156.06250,54.977315 156.75000,54.699902 z M 72.686486,46.650473 C 77.486785,46.355287 78.965242,45.888251 79.284769,44.566114 C 79.578774,43.349579 79.668453,43.434267 79.598283,44.862183 C 79.511029,46.637754 78.770606,46.871649 73.000000,46.946542 L 66.500000,47.030900 L 72.686486,46.650473 z M 88.686486,46.623435 C 94.129888,46.312492 94.924301,46.005322 95.300304,44.066114 C 95.655814,42.232601 95.750524,42.324380 95.863818,44.612183 L 96.000000,47.362183 L 89.250000,47.169503 L 82.500000,46.976824 L 88.686486,46.623435 z M 104.68649,46.650473 C 109.48678,46.355287 110.96524,45.888251 111.28477,44.566114 C 111.57877,43.349579 111.66845,43.434267 111.59828,44.862183 C 111.51103,46.637754 110.77061,46.871649 105.00000,46.946542 L 98.500000,47.030900 L 104.68649,46.650473 z M 120.68649,46.623435 C 126.12989,46.312492 126.92430,46.005322 127.30030,44.066114 C 127.65581,42.232601 127.75052,42.324380 127.86382,44.612183 L 128.00000,47.362183 L 121.25000,47.169503 L 114.50000,46.976824 L 120.68649,46.623435 z M 136.68649,46.650473 C 141.48678,46.355287 142.96524,45.888251 143.28477,44.566114 C 143.57877,43.349579 143.66845,43.434267 143.59828,44.862183 C 143.51103,46.637754 142.77061,46.871649 137.00000,46.946542 L 130.50000,47.030900 L 136.68649,46.650473 z M 152.68649,46.623435 C 158.12989,46.312492 158.92430,46.005322 159.30030,44.066114 C 159.65581,42.232601 159.75052,42.324380 159.86382,44.612183 L 160.00000,47.362183 L 153.25000,47.169503 L 146.50000,46.976824 L 152.68649,46.623435 z M 67.687584,38.667676 C 70.568679,38.382573 72.003303,37.724290 72.285867,36.557735 C 72.575510,35.361954 72.667596,35.451691 72.598283,36.862183 C 72.516135,38.533844 71.761238,38.880232 68.000000,38.972124 L 63.500000,39.082065 L 67.687584,38.667676 z M 81.686486,38.650473 C 86.486785,38.355287 87.965242,37.888251 88.284769,36.566114 C 88.578774,35.349579 88.668453,35.434267 88.598283,36.862183 C 88.511029,38.637754 87.770606,38.871649 82.000000,38.946542 L 75.500000,39.030900 L 81.686486,38.650473 z M 97.686486,38.650473 C 102.48678,38.355287 103.96524,37.888251 104.28477,36.566114 C 104.57877,35.349579 104.66845,35.434267 104.59828,36.862183 C 104.51103,38.637754 103.77061,38.871649 98.000000,38.946542 L 91.500000,39.030900 L 97.686486,38.650473 z M 113.68649,38.650473 C 118.48678,38.355287 119.96524,37.888251 120.28477,36.566114 C 120.57877,35.349579 120.66845,35.434267 120.59828,36.862183 C 120.51103,38.637754 119.77061,38.871649 114.00000,38.946542 L 107.50000,39.030900 L 113.68649,38.650473 z M 129.68649,38.650473 C 134.48678,38.355287 135.96524,37.888251 136.28477,36.566114 C 136.57877,35.349579 136.66845,35.434267 136.59828,36.862183 C 136.51103,38.637754 135.77061,38.871649 130.00000,38.946542 L 123.50000,39.030900 L 129.68649,38.650473 z M 145.68649,38.650473 C 150.48678,38.355287 151.96524,37.888251 152.28477,36.566114 C 152.57877,35.349579 152.66845,35.434267 152.59828,36.862183 C 152.51103,38.637754 151.77061,38.871649 146.00000,38.946542 L 139.50000,39.030900 L 145.68649,38.650473 z M 156.75000,38.699902 C 157.43750,38.422490 158.56250,38.422490 159.25000,38.699902 C 159.93750,38.977315 159.37500,39.204288 158.00000,39.204288 C 156.62500,39.204288 156.06250,38.977315 156.75000,38.699902 z M 72.475993,30.643494 C 75.762789,30.426461 78.834548,29.711880 79.302124,29.055536 C 79.897545,28.219734 80.030767,28.311611 79.746762,29.362183 C 79.443150,30.485284 77.727977,30.884284 72.920631,30.950141 L 66.500000,31.038099 L 72.475993,30.643494 z M 88.475993,30.643494 C 91.762789,30.426461 94.834548,29.711880 95.302124,29.055536 C 95.897545,28.219734 96.030767,28.311611 95.746762,29.362183 C 95.443150,30.485284 93.727977,30.884284 88.920631,30.950141 L 82.500000,31.038099 L 88.475993,30.643494 z M 104.47599,30.643494 C 107.76279,30.426461 110.83455,29.711880 111.30212,29.055536 C 111.89755,28.219734 112.03077,28.311611 111.74676,29.362183 C 111.44315,30.485284 109.72798,30.884284 104.92063,30.950141 L 98.500000,31.038099 L 104.47599,30.643494 z M 120.47599,30.643494 C 123.76279,30.426461 126.83455,29.711880 127.30212,29.055536 C 127.89755,28.219734 128.03077,28.311611 127.74676,29.362183 C 127.44315,30.485284 125.72798,30.884284 120.92063,30.950141 L 114.50000,31.038099 L 120.47599,30.643494 z M 136.47599,30.643494 C 139.76279,30.426461 142.83455,29.711880 143.30212,29.055536 C 143.89754,28.219734 144.03077,28.311611 143.74676,29.362183 C 143.44315,30.485284 141.72798,30.884284 136.92063,30.950141 L 130.50000,31.038099 L 136.47599,30.643494 z M 152.47599,30.643494 C 155.76279,30.426461 158.83455,29.711880 159.30212,29.055536 C 159.89754,28.219734 160.03077,28.311611 159.74676,29.362183 C 159.44315,30.485284 157.72798,30.884284 152.92063,30.950141 L 146.50000,31.038099 L 152.47599,30.643494 z "
         style="fill:#7d7d7d" />
    </g>
    <image
       y="204.93361"
       x="212.92857"
       id="image2647"
       height="32.000000"
       width="32.000000"
       sodipodi:absref="/tmp/tt/12tile.png"
       xlink:href="/tmp/tt/12tile.png" />
    <g
       transform="translate(86.78576,-10.35714)"
       id="g2650">
      <path
         id="path2662"
         d="M 137.92857,182.36218 L 137.92857,166.36218 L 153.92857,166.36218 L 169.92857,166.36218 L 169.92857,182.36218 L 169.92857,198.36218 L 153.92857,198.36218 L 137.92857,198.36218 L 137.92857,182.36218 z "
         style="fill:#fefe56" />
      <path
         id="path2660"
         d="M 137.92857,182.36218 L 137.92857,166.36218 L 153.92857,166.36218 L 169.92857,166.36218 L 169.92857,182.36218 L 169.92857,198.36218 L 153.92857,198.36218 L 137.92857,198.36218 L 137.92857,182.36218 z M 153.92857,187.36218 C 153.92857,185.69551 154.59524,185.36218 157.92857,185.36218 C 161.26190,185.36218 161.92857,185.02885 161.92857,183.36218 C 161.92857,181.69551 161.26190,181.36218 157.92857,181.36218 C 154.59524,181.36218 153.92857,181.02885 153.92857,179.36218 C 153.92857,176.60091 152.78961,176.85401 149.42857,180.36218 L 146.55439,183.36218 L 149.42857,186.36218 C 152.78961,189.87035 153.92857,190.12345 153.92857,187.36218 z "
         style="fill:#c2c2c2" />
      <path
         id="path2658"
         d="M 137.92857,182.36218 L 137.92857,166.36218 L 153.92857,166.36218 L 169.92857,166.36218 L 169.92857,182.36218 L 169.92857,198.36218 L 153.92857,198.36218 L 137.92857,198.36218 L 137.92857,182.36218 z M 141.92857,182.23973 L 141.92857,170.36218 L 153.80613,170.36218 C 163.14400,170.36218 165.94987,170.04145 166.92857,168.86218 C 168.02549,167.54048 166.43536,167.36218 153.55102,167.36218 L 138.92857,167.36218 L 138.92857,181.98462 C 138.92857,194.86897 139.10687,196.45910 140.42857,195.36218 C 141.60784,194.38348 141.92857,191.57761 141.92857,182.23973 z M 153.92857,187.36218 C 153.92857,185.69551 154.59524,185.36218 157.92857,185.36218 C 161.26190,185.36218 161.92857,185.02885 161.92857,183.36218 C 161.92857,181.69551 161.26190,181.36218 157.92857,181.36218 C 154.59524,181.36218 153.92857,181.02885 153.92857,179.36218 C 153.92857,176.60091 152.78961,176.85401 149.42857,180.36218 L 146.55439,183.36218 L 149.42857,186.36218 C 152.78961,189.87035 153.92857,190.12345 153.92857,187.36218 z "
         style="fill:#b1b1b1" />
      <path
         id="path2656"
         d="M 139.75426,196.04773 C 141.73059,193.94402 141.92857,192.66925 141.92857,182.04773 L 141.92857,170.36218 L 153.61412,170.36218 C 164.23564,170.36218 165.51041,170.16420 167.61412,168.18787 L 169.92857,166.01355 L 169.92857,182.18787 L 169.92857,198.36218 L 153.75426,198.36218 L 137.57994,198.36218 L 139.75426,196.04773 z M 155.42857,192.36218 C 155.77399,191.80328 155.00434,191.36218 153.68375,191.36218 C 151.06178,191.36218 145.40189,186.04271 144.63980,182.86218 C 144.26360,181.29215 144.13563,181.42837 144.04457,183.49582 C 143.96142,185.38368 145.06208,187.15351 147.93145,189.74582 C 151.96645,193.39120 154.29119,194.20249 155.42857,192.36218 z M 153.92857,187.36218 C 153.92857,185.69551 154.59524,185.36218 157.92857,185.36218 C 161.26190,185.36218 161.92857,185.02885 161.92857,183.36218 C 161.92857,181.69551 161.26190,181.36218 157.92857,181.36218 C 154.59524,181.36218 153.92857,181.02885 153.92857,179.36218 C 153.92857,176.60091 152.78961,176.85401 149.42857,180.36218 L 146.55439,183.36218 L 149.42857,186.36218 C 152.78961,189.87035 153.92857,190.12345 153.92857,187.36218 z M 163.92857,188.36218 C 163.92857,187.81218 162.12857,187.36218 159.92857,187.36218 C 157.72857,187.36218 155.92857,187.81218 155.92857,188.36218 C 155.92857,188.91218 157.72857,189.36218 159.92857,189.36218 C 162.12857,189.36218 163.92857,188.91218 163.92857,188.36218 z "
         style="fill:#979797" />
      <path
         id="path2654"
         d="M 139.42857,196.36218 C 141.05234,194.56793 142.50854,194.36218 153.58356,194.36218 L 165.92857,194.36218 L 165.92857,182.01717 C 165.92857,170.94215 166.13432,169.48595 167.92857,167.86218 C 169.92073,166.05930 169.92857,166.11555 169.92857,182.20719 L 169.92857,198.36218 L 153.77358,198.36218 C 137.68194,198.36218 137.62569,198.35434 139.42857,196.36218 z M 148.12474,188.06457 C 146.36685,186.25089 144.92857,184.08916 144.92857,183.26074 C 144.92857,182.43231 146.41249,180.31624 148.22618,178.55835 C 152.03104,174.87053 155.92857,174.26525 155.92857,177.36218 C 155.92857,179.02885 156.59524,179.36218 159.92857,179.36218 C 163.92857,179.36218 163.92857,179.36218 163.92857,183.36218 C 163.92857,187.36218 163.92857,187.36218 159.92857,187.36218 C 156.59524,187.36218 155.92857,187.69551 155.92857,189.36218 C 155.92857,192.53567 151.79157,191.84778 148.12474,188.06457 z M 153.92857,187.36218 C 153.92857,185.69551 154.59524,185.36218 157.92857,185.36218 C 161.26190,185.36218 161.92857,185.02885 161.92857,183.36218 C 161.92857,181.69551 161.26190,181.36218 157.92857,181.36218 C 154.59524,181.36218 153.92857,181.02885 153.92857,179.36218 C 153.92857,176.60091 152.78961,176.85401 149.42857,180.36218 L 146.55439,183.36218 L 149.42857,186.36218 C 152.78961,189.87035 153.92857,190.12345 153.92857,187.36218 z "
         style="fill:#676767" />
      <path
         id="path2652"
         d="M 148.12474,188.06457 C 146.36685,186.25089 144.92857,184.08916 144.92857,183.26074 C 144.92857,182.43231 146.41249,180.31624 148.22618,178.55835 C 152.03104,174.87053 155.92857,174.26525 155.92857,177.36218 C 155.92857,179.02885 156.59524,179.36218 159.92857,179.36218 C 163.92857,179.36218 163.92857,179.36218 163.92857,183.36218 C 163.92857,187.36218 163.92857,187.36218 159.92857,187.36218 C 156.59524,187.36218 155.92857,187.69551 155.92857,189.36218 C 155.92857,192.53567 151.79157,191.84778 148.12474,188.06457 z M 153.92857,187.36218 C 153.92857,185.69551 154.59524,185.36218 157.92857,185.36218 C 161.26190,185.36218 161.92857,185.02885 161.92857,183.36218 C 161.92857,181.69551 161.26190,181.36218 157.92857,181.36218 C 154.59524,181.36218 153.92857,181.02885 153.92857,179.36218 C 153.92857,176.60091 152.78961,176.85401 149.42857,180.36218 L 146.55439,183.36218 L 149.42857,186.36218 C 152.78961,189.87035 153.92857,190.12345 153.92857,187.36218 z "
         style="fill:#3a3a3a" />
    </g>
    <path
       id="path2692"
       d="M 96.071429,188.43361 L 128.00000,188.36218 L 128.00000,220.36218 L 96.000000,220.36218 L 96.071429,188.43361 z "
       style="fill:#864b83;fill-opacity:0.34705883;fill-rule:evenodd;stroke:none;stroke-width:1.0000000px;stroke-linecap:butt;stroke-linejoin:miter;stroke-opacity:1.0000000" />
  </g>
</svg>
