<?xml version="1.0" encoding="UTF-8" standalone="no"?>
<!-- Created with Inkscape (http://www.inkscape.org/) -->
<svg
   xmlns:dc="http://purl.org/dc/elements/1.1/"
   xmlns:cc="http://web.resource.org/cc/"
   xmlns:rdf="http://www.w3.org/1999/02/22-rdf-syntax-ns#"
   xmlns:svg="http://www.w3.org/2000/svg"
   xmlns="http://www.w3.org/2000/svg"
   xmlns:xlink="http://www.w3.org/1999/xlink"
   xmlns:sodipodi="http://inkscape.sourceforge.net/DTD/sodipodi-0.dtd"
   xmlns:inkscape="http://www.inkscape.org/namespaces/inkscape"
   inkscape:export-ydpi="360.00000"
   inkscape:export-xdpi="360.00000"
   inkscape:export-filename="/home/adam/brick.png"
   sodipodi:docname="00.svg"
   sodipodi:docbase="/home/adam/workspace/Escape/src/org/spacebar/escape/j2se/resources/tiles"
   inkscape:version="0.41"
   sodipodi:version="0.32"
   id="svg7503"
   height="32px"
   width="32px">
  <defs
     id="defs3">
    <linearGradient
       id="linearGradient2685">
      <stop
         id="stop2687"
         offset="0.0000000"
         style="stop-color:#c8c8c8;stop-opacity:1.0000000;" />
      <stop
         id="stop2689"
         offset="1.0000000"
         style="stop-color:#919191;stop-opacity:1.0000000;" />
    </linearGradient>
    <linearGradient
       id="linearGradient2615">
      <stop
         id="stop2617"
         offset="0.0000000"
         style="stop-color:#eaeaea;stop-opacity:1.0000000;" />
      <stop
         id="stop2619"
         offset="1"
         style="stop-color:#dfdfdf;stop-opacity:0;" />
    </linearGradient>
    <pattern
       id="pattern6914"
       patternTransform="translate(-16.00000,140.3622)"
       height="32.000000"
       width="32.000000"
       patternUnits="userSpaceOnUse">
      <rect
         transform="translate(16.00000,-140.3622)"
         inkscape:export-ydpi="360.00000"
         inkscape:export-xdpi="360.00000"
         style="fill:#c4c4c4;fill-opacity:1.0000000;fill-rule:evenodd;stroke:none;stroke-width:0.72500002;stroke-linecap:square;stroke-linejoin:miter;stroke-miterlimit:4.0000000;stroke-dashoffset:0.0000000;stroke-opacity:1.0000000"
         id="rect6916"
         width="32.000000"
         height="32.000000"
         x="-16.000000"
         y="140.36218"
         inkscape:export-filename="/home/adam/brick.png" />
    </pattern>
    <pattern
       patternTransform="translate(0.000000,140.3622)"
       id="pattern6922"
       xlink:href="#pattern6914"
       inkscape:collect="always" />
    <pattern
       patternTransform="translate(0.000000,140.3622)"
       id="pattern7397"
       xlink:href="#pattern6922"
       inkscape:collect="always" />
    <linearGradient
       y2="264.46930"
       x2="-14.394111"
       y1="262.63419"
       x1="-15.950862"
       gradientTransform="scale(1.525896,0.655353)"
       gradientUnits="userSpaceOnUse"
       id="linearGradient8110"
       xlink:href="#linearGradient2615"
       inkscape:collect="always" />
    <linearGradient
       y2="302.22537"
       x2="-10.065067"
       y1="298.02402"
       x1="-11.940928"
       spreadMethod="pad"
       gradientTransform="scale(1.732051,0.577350)"
       gradientUnits="userSpaceOnUse"
       id="linearGradient8112"
       xlink:href="#linearGradient2685"
       inkscape:collect="always" />
    <linearGradient
       y2="264.46930"
       x2="-14.394111"
       y1="262.63419"
       x1="-15.950862"
       gradientTransform="scale(1.525896,0.655353)"
       gradientUnits="userSpaceOnUse"
       id="linearGradient8114"
       xlink:href="#linearGradient2615"
       inkscape:collect="always" />
    <linearGradient
       y2="302.37277"
       x2="-11.715830"
       y1="296.62378"
       x1="-12.616244"
       spreadMethod="pad"
       gradientTransform="scale(1.732051,0.577350)"
       gradientUnits="userSpaceOnUse"
       id="linearGradient8116"
       xlink:href="#linearGradient2685"
       inkscape:collect="always" />
    <linearGradient
       y2="264.46930"
       x2="-14.394111"
       y1="262.63419"
       x1="-15.950862"
       gradientTransform="scale(1.525896,0.655353)"
       gradientUnits="userSpaceOnUse"
       id="linearGradient8118"
       xlink:href="#linearGradient2615"
       inkscape:collect="always" />
    <linearGradient
       y2="303.10980"
       x2="-9.8899860"
       y1="297.43451"
       x1="-13.241533"
       spreadMethod="pad"
       gradientTransform="scale(1.732051,0.577350)"
       gradientUnits="userSpaceOnUse"
       id="linearGradient8120"
       xlink:href="#linearGradient2685"
       inkscape:collect="always" />
    <linearGradient
       y2="264.46930"
       x2="-14.394111"
       y1="262.63419"
       x1="-15.950862"
       gradientTransform="scale(1.525896,0.655353)"
       gradientUnits="userSpaceOnUse"
       id="linearGradient8122"
       xlink:href="#linearGradient2615"
       inkscape:collect="always" />
    <linearGradient
       y2="302.22537"
       x2="-11.990957"
       y1="297.50821"
       x1="-12.641255"
       spreadMethod="pad"
       gradientTransform="scale(1.732051,0.577350)"
       gradientUnits="userSpaceOnUse"
       id="linearGradient8124"
       xlink:href="#linearGradient2685"
       inkscape:collect="always" />
    <linearGradient
       y2="264.46930"
       x2="-14.394111"
       y1="262.63419"
       x1="-15.950862"
       gradientTransform="scale(1.525896,0.655353)"
       gradientUnits="userSpaceOnUse"
       id="linearGradient8126"
       xlink:href="#linearGradient2615"
       inkscape:collect="always" />
    <linearGradient
       y2="301.41449"
       x2="-11.015503"
       y1="297.28717"
       x1="-12.116015"
       spreadMethod="pad"
       gradientTransform="scale(1.732051,0.577350)"
       gradientUnits="userSpaceOnUse"
       id="linearGradient8128"
       xlink:href="#linearGradient2685"
       inkscape:collect="always" />
    <linearGradient
       y2="264.46930"
       x2="-14.394111"
       y1="262.63419"
       x1="-15.950862"
       gradientTransform="scale(1.525896,0.655353)"
       gradientUnits="userSpaceOnUse"
       id="linearGradient8130"
       xlink:href="#linearGradient2615"
       inkscape:collect="always" />
    <linearGradient
       y2="302.96234"
       x2="-10.565296"
       y1="298.17163"
       x1="-12.266085"
       spreadMethod="pad"
       gradientTransform="scale(1.732051,0.577350)"
       gradientUnits="userSpaceOnUse"
       id="linearGradient8132"
       xlink:href="#linearGradient2685"
       inkscape:collect="always" />
    <linearGradient
       y2="264.46930"
       x2="-14.394111"
       y1="262.63419"
       x1="-15.950862"
       gradientTransform="scale(1.525896,0.655353)"
       gradientUnits="userSpaceOnUse"
       id="linearGradient8134"
       xlink:href="#linearGradient2615"
       inkscape:collect="always" />
    <linearGradient
       y2="301.78308"
       x2="-10.865437"
       y1="296.69754"
       x1="-12.766315"
       spreadMethod="pad"
       gradientTransform="scale(1.732051,0.577350)"
       gradientUnits="userSpaceOnUse"
       id="linearGradient8136"
       xlink:href="#linearGradient2685"
       inkscape:collect="always" />
    <linearGradient
       y2="264.46930"
       x2="-14.394111"
       y1="262.63419"
       x1="-15.950862"
       gradientTransform="scale(1.525896,0.655353)"
       gradientUnits="userSpaceOnUse"
       id="linearGradient8138"
       xlink:href="#linearGradient2615"
       inkscape:collect="always" />
    <linearGradient
       y2="301.93048"
       x2="-11.715828"
       y1="296.69754"
       x1="-12.766315"
       spreadMethod="pad"
       gradientTransform="scale(1.732051,0.577350)"
       gradientUnits="userSpaceOnUse"
       id="linearGradient8140"
       xlink:href="#linearGradient2685"
       inkscape:collect="always" />
  </defs>
  <sodipodi:namedview
     inkscape:window-y="122"
     inkscape:window-x="169"
     inkscape:window-height="543"
     inkscape:window-width="640"
     inkscape:document-units="px"
     inkscape:grid-bbox="true"
     showgrid="true"
     inkscape:current-layer="layer1"
     inkscape:cy="11.545763"
     inkscape:cx="24.937796"
     inkscape:zoom="5.5989010"
     inkscape:pageshadow="2"
     inkscape:pageopacity="0.0"
     borderopacity="1.0"
     bordercolor="#666666"
     pagecolor="#ffffff"
     id="base" />
  <metadata
     id="metadata4">
    <rdf:RDF
       id="RDF5">
      <cc:Work
         id="Work6"
         rdf:about="">
        <dc:format
           id="format7">image/svg+xml</dc:format>
        <dc:type
           rdf:resource="http://purl.org/dc/dcmitype/StillImage"
           id="type9" />
      </cc:Work>
    </rdf:RDF>
  </metadata>
  <g
     inkscape:groupmode="layer"
     inkscape:label="Layer 1"
     id="layer1">
    <g
       transform="translate(144.5000,-134.8750)"
       id="g13276">
      <path
         id="path13284"
         transform="translate(-0.500000,-149.5000)"
         d="M -144.00000,284.37500 L -144.00000,316.37500 L -112.00000,316.37500 L -112.00000,284.37500 L -144.00000,284.37500 z "
         style="fill:#e3e3e3" />
      <path
         id="path13282"
         transform="translate(-0.500000,-149.5000)"
         d="M -144.00000,284.37500 L -144.00000,289.46875 L -142.25000,289.50000 C -138.53750,289.57489 -136.53559,289.82308 -137.78125,290.06250 C -139.08778,290.31361 -139.76113,290.96898 -139.37500,291.59375 C -138.93162,292.31116 -139.16337,292.36451 -140.09375,291.78125 C -140.75072,291.36938 -142.45863,291.05074 -144.00000,290.87500 L -144.00000,305.37500 L -142.34375,305.37500 C -134.55428,305.37499 -134.36879,306.49266 -142.12500,306.71875 C -143.10073,306.74719 -143.33573,306.88054 -144.00000,306.93750 L -144.00000,316.37500 L -141.84375,316.37500 C -141.85137,316.23399 -141.86700,316.28650 -141.87500,316.12500 C -142.01085,313.38174 -141.98344,313.35972 -135.25000,313.37500 C -131.38702,313.38376 -129.04690,313.75277 -129.78125,314.21875 C -130.48700,314.66655 -133.28214,314.82750 -135.96875,314.59375 C -140.32094,314.21508 -140.84878,314.39822 -141.25000,316.37500 L -125.84375,316.37500 C -125.85158,316.23365 -125.86695,316.28763 -125.87500,316.12500 C -126.01040,313.39066 -125.95914,313.37500 -119.43750,313.37500 C -115.83004,313.37499 -113.10328,313.71660 -113.37500,314.15625 C -113.64672,314.59589 -116.35622,314.81791 -119.37500,314.62500 C -124.24668,314.31367 -124.81954,314.47480 -125.21875,316.37500 L -112.00000,316.37500 L -112.00000,306.93750 C -114.54657,307.15588 -115.63261,307.60262 -116.12500,309.37500 C -116.76577,311.68149 -116.81429,311.62345 -116.90625,308.62500 L -117.00000,305.37500 L -112.00000,305.37500 L -112.00000,290.87500 C -112.27100,290.84410 -112.42502,290.73429 -112.68750,290.71875 C -115.24132,290.56752 -115.97464,290.95514 -116.31250,292.68750 C -116.65441,294.44063 -116.76472,294.35187 -116.87500,292.12500 L -117.00000,289.37500 L -112.00000,289.46875 L -112.00000,284.37500 L -125.21875,284.37500 C -125.23445,284.44974 -125.26589,284.48216 -125.28125,284.56250 C -125.64467,286.46288 -125.73445,286.34868 -125.84375,284.37500 L -141.25000,284.37500 C -141.26229,284.43556 -141.26908,284.46723 -141.28125,284.53125 C -141.65984,286.52271 -141.73361,286.41368 -141.84375,284.37500 L -144.00000,284.37500 z M -126.34375,289.37500 C -122.67709,289.37499 -119.96417,289.65167 -120.31250,290.00000 C -120.66083,290.34833 -123.24932,290.62501 -126.06250,290.62500 C -130.33538,290.62499 -131.31694,290.98178 -132.03125,292.75000 C -132.81546,294.69124 -132.87936,294.64710 -132.93750,292.12500 C -133.00046,289.39365 -132.96518,289.37500 -126.34375,289.37500 z M -135.34375,297.37500 C -131.67709,297.37499 -128.92904,297.61655 -129.25000,297.93750 C -129.57096,298.25844 -132.22303,298.57789 -135.15625,298.62500 C -139.64271,298.69708 -140.60917,299.03080 -141.15625,300.78125 C -141.71504,302.56915 -141.82060,302.48796 -141.90625,300.12500 C -142.00539,297.39002 -141.97398,297.37500 -135.34375,297.37500 z M -119.34375,297.37500 C -111.34691,297.37499 -111.29279,298.31583 -119.28125,298.50000 C -124.15003,298.61223 -124.95142,298.91147 -125.31250,300.75000 C -125.63855,302.41022 -125.76833,302.27892 -125.87500,300.12500 C -126.01062,297.38637 -125.98283,297.37500 -119.34375,297.37500 z M -133.00000,305.37500 L -125.75000,305.37500 C -121.76250,305.38342 -119.03748,305.74287 -119.68750,306.15625 C -120.33752,306.56961 -123.34435,306.81651 -126.37500,306.71875 C -131.29535,306.56003 -131.93595,306.78924 -132.31250,308.71875 C -132.65296,310.46336 -132.76505,310.34530 -132.87500,308.12500 L -133.00000,305.37500 z "
         style="fill:#b2b2b2" />
      <path
         id="path13280"
         transform="translate(-0.500000,-149.5000)"
         d="M -144.00000,284.37500 L -144.00000,286.28125 C -143.89736,285.94834 -143.82189,285.61480 -143.75000,285.12500 C -143.70192,284.79743 -143.71828,284.64008 -143.68750,284.37500 L -144.00000,284.37500 z M -140.00000,284.37500 C -140.68263,285.43835 -140.69451,286.75390 -139.78125,287.40625 C -138.74056,288.14960 -128.68100,287.43945 -127.87500,286.56250 C -127.57980,286.24131 -127.65576,285.31153 -127.93750,284.37500 L -129.03125,284.37500 C -129.23614,285.54251 -130.02887,285.82192 -132.75000,285.71875 C -138.69973,285.49317 -139.29520,285.42005 -138.00000,284.37500 L -140.00000,284.37500 z M -118.43750,284.37500 C -118.60388,284.52582 -118.77923,284.59055 -118.93750,284.78125 C -120.16825,286.26420 -121.67391,286.31621 -123.78125,285.00000 C -124.59716,284.49038 -124.95712,284.68363 -124.78125,285.53125 C -124.63012,286.25962 -123.40631,287.10000 -122.06250,287.37500 C -120.71868,287.64999 -117.92644,287.87500 -115.87500,287.87500 C -113.23487,287.87500 -112.40790,287.60431 -112.00000,286.28125 L -112.00000,284.37500 L -113.90625,284.37500 C -114.04410,284.52665 -114.03451,284.45237 -114.18750,284.62500 C -115.69735,286.32868 -116.04321,286.45009 -115.62500,285.12500 C -115.52425,284.80577 -115.60395,284.60794 -115.62500,284.37500 L -118.43750,284.37500 z M -135.90625,290.46875 C -136.47426,290.34203 -137.26624,290.89591 -138.18750,292.15625 C -139.25350,293.61461 -142.21996,294.21181 -144.00000,293.65625 L -144.00000,295.21875 C -143.16925,295.27445 -142.47286,295.37500 -141.50000,295.37500 C -135.23333,295.37499 -135.00000,295.28526 -135.00000,292.87500 C -135.00000,291.40914 -135.33824,290.59546 -135.90625,290.46875 z M -120.31250,290.78125 C -121.30902,290.63499 -122.40192,291.20561 -122.71875,292.03125 C -123.05563,292.90914 -124.06786,293.31588 -125.15625,293.03125 C -126.17985,292.76356 -127.25449,292.97039 -127.56250,293.46875 C -127.87051,293.96711 -128.65746,294.35218 -129.31250,294.34375 C -130.02811,294.33454 -129.90129,293.95746 -129.00000,293.37500 C -127.78704,292.59112 -127.93056,292.38737 -129.75000,292.37500 C -133.32420,292.35067 -131.88666,294.81737 -128.00000,295.37500 C -123.00299,296.09191 -119.00000,295.36397 -119.00000,293.75000 C -119.00000,292.98742 -118.88750,292.07882 -118.75000,291.71875 C -118.61250,291.35867 -119.31598,290.92750 -120.31250,290.78125 z M -113.90625,292.59375 C -114.81007,292.52933 -116.00000,293.39560 -116.00000,294.43750 C -116.00000,294.81420 -114.22201,295.06976 -112.00000,295.21875 L -112.00000,293.65625 C -112.47366,293.50842 -112.91963,293.32557 -113.15625,293.00000 C -113.34117,292.74556 -113.60498,292.61522 -113.90625,292.59375 z M -129.21875,298.37500 C -129.77047,298.37499 -129.98337,299.30606 -129.68750,300.43750 C -129.24823,302.11723 -129.41233,302.26705 -130.56250,301.31250 C -131.33722,300.66952 -132.69065,300.41543 -133.56250,300.75000 C -134.43435,301.08455 -135.96634,300.91148 -136.96875,300.37500 C -138.28158,299.67238 -139.14201,299.80996 -140.00000,300.84375 C -140.65510,301.63309 -140.95733,302.62590 -140.68750,303.06250 C -140.41767,303.49908 -137.32458,303.87500 -133.81250,303.87500 L -127.43750,303.87500 L -127.81250,301.12500 C -128.03449,299.61249 -128.66703,298.37500 -129.21875,298.37500 z M -112.34375,298.96875 C -112.61368,298.80370 -113.08189,299.02817 -113.93750,299.56250 C -115.00192,300.22723 -115.59500,301.23508 -115.25000,301.81250 C -114.90500,302.38991 -115.26942,302.35710 -116.06250,301.71875 C -117.84084,300.28732 -124.94153,300.36219 -124.68750,301.81250 C -124.58599,302.39201 -122.70000,303.09714 -120.50000,303.37500 C -114.18734,304.17225 -112.00000,303.50065 -112.00000,300.75000 C -112.00000,299.69253 -112.07382,299.13379 -112.34375,298.96875 z M -118.81250,301.68750 C -118.01477,302.00671 -118.24130,302.23327 -119.40625,302.28125 C -120.46041,302.32466 -121.05104,302.08229 -120.71875,301.75000 C -120.38645,301.41770 -119.53437,301.39863 -118.81250,301.68750 z M -135.15625,306.43750 C -135.56850,306.20172 -136.16102,306.60337 -136.62500,307.81250 C -136.94237,308.63954 -137.83981,308.97426 -138.75000,308.62500 C -139.90622,308.18131 -140.12406,308.39928 -139.53125,309.43750 C -138.87475,310.58729 -138.97200,310.63719 -140.06250,309.62500 C -140.80318,308.93749 -141.89125,308.36657 -142.46875,308.37500 C -143.04625,308.38342 -142.82500,308.84184 -142.00000,309.37500 C -141.17500,309.90815 -140.99792,310.33533 -141.59375,310.34375 C -142.18959,310.35216 -142.99416,310.06835 -143.37500,309.68750 C -143.54779,309.51471 -143.78844,309.43793 -144.00000,309.31250 L -144.00000,311.46875 C -142.93364,311.57585 -142.18107,311.82314 -142.40625,312.18750 C -142.68952,312.64583 -142.27661,313.03124 -141.50000,313.03125 C -140.72339,313.03124 -140.31048,312.64583 -140.59375,312.18750 C -140.87701,311.72916 -139.80586,311.37500 -138.18750,311.37500 C -135.84301,311.37499 -135.13079,310.86696 -134.75000,308.87500 C -134.49591,307.54581 -134.74400,306.67327 -135.15625,306.43750 z M -119.75000,306.78125 C -120.16250,307.19374 -120.50000,308.02917 -120.50000,308.62500 C -120.50000,309.22082 -121.14219,309.90155 -121.90625,310.15625 C -122.86692,310.47646 -123.01227,310.20413 -122.43750,309.25000 C -121.73949,308.09129 -121.90362,308.08145 -123.34375,309.25000 C -124.84418,310.46745 -124.96118,310.44614 -124.40625,309.00000 C -123.93580,307.77401 -124.18402,307.51173 -125.37500,307.96875 C -126.26277,308.30942 -126.67139,309.08552 -126.28125,309.71875 C -125.89318,310.34861 -126.77532,310.08933 -128.25000,309.12500 C -130.43114,307.69868 -130.84429,307.65207 -130.37500,308.87500 C -130.04091,309.74561 -130.37037,310.39680 -131.15625,310.43750 C -131.90259,310.47615 -131.64669,310.83724 -130.59375,311.25000 C -129.54081,311.66276 -127.74081,311.91183 -126.59375,311.78125 C -125.44669,311.65065 -123.26250,311.48333 -121.75000,311.43750 C -119.45833,311.36805 -119.00000,310.90972 -119.00000,308.68750 C -119.00000,307.22083 -119.33750,306.36874 -119.75000,306.78125 z M -114.03125,308.71875 C -114.92878,308.76445 -115.65625,309.17915 -115.65625,309.90625 C -115.65625,310.85886 -114.65780,311.37500 -112.78125,311.37500 C -112.45507,311.37500 -112.27504,311.44113 -112.00000,311.46875 L -112.00000,309.31250 C -112.63467,308.93620 -113.35811,308.68448 -114.03125,308.71875 z M -128.78125,314.37500 C -128.89206,314.37499 -128.90237,314.87500 -128.93750,315.87500 C -128.94478,316.08232 -129.00198,316.20821 -129.03125,316.37500 L -127.93750,316.37500 C -127.98984,316.20100 -127.99217,316.04735 -128.06250,315.87500 C -128.47059,314.87499 -128.67044,314.37500 -128.78125,314.37500 z M -136.50000,314.43750 C -136.85706,314.30878 -137.79918,314.58465 -139.00000,315.34375 C -139.43814,315.62071 -139.74755,315.98176 -140.00000,316.37500 L -138.00000,316.37500 C -137.80839,316.22040 -137.70743,316.11042 -137.43750,315.90625 C -136.37093,315.09954 -136.14294,314.56622 -136.50000,314.43750 z M -143.81250,314.53125 C -143.83910,314.52576 -143.96861,314.68370 -144.00000,314.68750 L -144.00000,316.37500 L -143.68750,316.37500 C -143.56157,315.29063 -143.53508,314.58849 -143.81250,314.53125 z M -121.81250,314.68750 C -122.53437,314.39862 -123.38645,314.41770 -123.71875,314.75000 C -124.05104,315.08229 -123.46041,315.32467 -122.40625,315.28125 C -121.24130,315.23326 -121.01477,315.00672 -121.81250,314.68750 z M -112.00000,314.68750 C -112.32754,314.72713 -112.97362,315.34899 -113.90625,316.37500 L -112.00000,316.37500 L -112.00000,314.68750 z M -116.40625,315.40625 C -116.97607,315.34718 -117.72136,315.72582 -118.43750,316.37500 L -115.62500,316.37500 C -115.67411,315.83147 -115.91470,315.45721 -116.40625,315.40625 z "
         style="fill:#989898" />
      <path
         id="path13278"
         transform="translate(-0.500000,-149.5000)"
         d="M -128.65625,284.37500 C -128.68301,284.47799 -128.68608,284.42733 -128.71875,284.56250 C -129.03828,285.88463 -130.51221,286.36105 -135.31250,286.65625 L -141.50000,287.03125 L -135.00000,286.93750 C -129.22939,286.86260 -128.49350,286.65057 -128.40625,284.87500 C -128.39109,284.56648 -128.40369,284.56204 -128.40625,284.37500 L -128.65625,284.37500 z M -112.65625,284.37500 C -112.68301,284.47799 -112.68608,284.42733 -112.71875,284.56250 C -113.03828,285.88463 -114.51221,286.36105 -119.31250,286.65625 L -125.50000,287.03125 L -119.00000,286.93750 C -113.22939,286.86260 -112.49350,286.65057 -112.40625,284.87500 C -112.39109,284.56648 -112.40369,284.56204 -112.40625,284.37500 L -112.65625,284.37500 z M -135.43750,291.71875 C -135.48790,291.67115 -135.57175,291.95424 -135.71875,292.56250 C -136.03828,293.88463 -137.51221,294.36105 -142.31250,294.65625 L -144.00000,294.75000 L -144.00000,294.96875 L -142.00000,294.93750 C -136.22939,294.86260 -135.49350,294.65057 -135.40625,292.87500 C -135.37116,292.16103 -135.38710,291.76634 -135.43750,291.71875 z M -119.43750,291.71875 C -119.48790,291.67115 -119.57175,291.95424 -119.71875,292.56250 C -120.03828,293.88463 -121.51221,294.36105 -126.31250,294.65625 L -132.50000,295.03125 L -126.00000,294.93750 C -120.22939,294.86260 -119.49350,294.65057 -119.40625,292.87500 C -119.37117,292.16103 -119.38710,291.76634 -119.43750,291.71875 z M -112.00000,294.75000 L -116.50000,295.03125 L -112.00000,294.96875 L -112.00000,294.75000 z M -128.43750,299.71875 C -128.48790,299.67115 -128.57175,299.95424 -128.71875,300.56250 C -129.03828,301.88463 -130.51221,302.36105 -135.31250,302.65625 L -141.50000,303.03125 L -135.00000,302.93750 C -129.22939,302.86260 -128.49350,302.65057 -128.40625,300.87500 C -128.37116,300.16103 -128.38710,299.76634 -128.43750,299.71875 z M -112.43750,299.71875 C -112.48790,299.67115 -112.57175,299.95424 -112.71875,300.56250 C -113.03828,301.88463 -114.51221,302.36105 -119.31250,302.65625 L -125.50000,303.03125 L -119.00000,302.93750 C -113.22939,302.86260 -112.49350,302.65057 -112.40625,300.87500 C -112.37117,300.16103 -112.38710,299.76634 -112.43750,299.71875 z M -135.43750,307.71875 C -135.48790,307.67115 -135.57175,307.95424 -135.71875,308.56250 C -136.03828,309.88463 -137.51221,310.36105 -142.31250,310.65625 L -144.00000,310.75000 L -144.00000,310.96875 L -142.00000,310.93750 C -136.22939,310.86260 -135.49350,310.65057 -135.40625,308.87500 C -135.37116,308.16103 -135.38710,307.76634 -135.43750,307.71875 z M -119.43750,307.71875 C -119.48790,307.67115 -119.57175,307.95424 -119.71875,308.56250 C -120.03828,309.88463 -121.51221,310.36105 -126.31250,310.65625 L -132.50000,311.03125 L -126.00000,310.93750 C -120.22939,310.86260 -119.49350,310.65057 -119.40625,308.87500 C -119.37117,308.16103 -119.38710,307.76634 -119.43750,307.71875 z M -112.00000,310.75000 L -116.50000,311.03125 L -112.00000,310.96875 L -112.00000,310.75000 z M -128.43750,315.71875 C -128.47670,315.68173 -128.56261,316.01453 -128.65625,316.37500 L -128.40625,316.37500 C -128.40961,316.12920 -128.40888,315.74578 -128.43750,315.71875 z M -112.43750,315.71875 C -112.47670,315.68173 -112.56261,316.01453 -112.65625,316.37500 L -112.40625,316.37500 C -112.40961,316.12920 -112.40888,315.74578 -112.43750,315.71875 z "
         style="fill:#070707" />
    </g>
  </g>
</svg>
