<?xml version="1.0" encoding="UTF-8" standalone="no"?>
<!-- Created with Inkscape (http://www.inkscape.org/) -->
<svg
   xmlns:dc="http://purl.org/dc/elements/1.1/"
   xmlns:cc="http://web.resource.org/cc/"
   xmlns:rdf="http://www.w3.org/1999/02/22-rdf-syntax-ns#"
   xmlns:svg="http://www.w3.org/2000/svg"
   xmlns="http://www.w3.org/2000/svg"
   xmlns:xlink="http://www.w3.org/1999/xlink"
   xmlns:sodipodi="http://inkscape.sourceforge.net/DTD/sodipodi-0.dtd"
   xmlns:inkscape="http://www.inkscape.org/namespaces/inkscape"
   width="32px"
   height="32px"
   id="svg21056"
   sodipodi:version="0.32"
   inkscape:version="0.41"
   sodipodi:docbase="/home/agoode/workspace/Escape/src/org/spacebar/escape/j2se/resources/tiles"
   sodipodi:docname="06.svg">
  <defs
     id="defs3">
    <linearGradient
       y2="301.93048"
       x2="-11.715828"
       y1="296.69754"
       x1="-12.766315"
       spreadMethod="pad"
       gradientTransform="scale(1.732051,0.577350)"
       gradientUnits="userSpaceOnUse"
       id="linearGradient8140"
       xlink:href="#linearGradient2685"
       inkscape:collect="always" />
    <linearGradient
       y2="264.46930"
       x2="-14.394111"
       y1="262.63419"
       x1="-15.950862"
       gradientTransform="scale(1.525896,0.655353)"
       gradientUnits="userSpaceOnUse"
       id="linearGradient8138"
       xlink:href="#linearGradient2615"
       inkscape:collect="always" />
    <linearGradient
       y2="301.78308"
       x2="-10.865437"
       y1="296.69754"
       x1="-12.766315"
       spreadMethod="pad"
       gradientTransform="scale(1.732051,0.577350)"
       gradientUnits="userSpaceOnUse"
       id="linearGradient8136"
       xlink:href="#linearGradient2685"
       inkscape:collect="always" />
    <linearGradient
       y2="264.46930"
       x2="-14.394111"
       y1="262.63419"
       x1="-15.950862"
       gradientTransform="scale(1.525896,0.655353)"
       gradientUnits="userSpaceOnUse"
       id="linearGradient8134"
       xlink:href="#linearGradient2615"
       inkscape:collect="always" />
    <linearGradient
       y2="302.96234"
       x2="-10.565296"
       y1="298.17163"
       x1="-12.266085"
       spreadMethod="pad"
       gradientTransform="scale(1.732051,0.577350)"
       gradientUnits="userSpaceOnUse"
       id="linearGradient8132"
       xlink:href="#linearGradient2685"
       inkscape:collect="always" />
    <linearGradient
       y2="264.46930"
       x2="-14.394111"
       y1="262.63419"
       x1="-15.950862"
       gradientTransform="scale(1.525896,0.655353)"
       gradientUnits="userSpaceOnUse"
       id="linearGradient8130"
       xlink:href="#linearGradient2615"
       inkscape:collect="always" />
    <linearGradient
       y2="301.41449"
       x2="-11.015503"
       y1="297.28717"
       x1="-12.116015"
       spreadMethod="pad"
       gradientTransform="scale(1.732051,0.577350)"
       gradientUnits="userSpaceOnUse"
       id="linearGradient8128"
       xlink:href="#linearGradient2685"
       inkscape:collect="always" />
    <linearGradient
       y2="264.46930"
       x2="-14.394111"
       y1="262.63419"
       x1="-15.950862"
       gradientTransform="scale(1.525896,0.655353)"
       gradientUnits="userSpaceOnUse"
       id="linearGradient8126"
       xlink:href="#linearGradient2615"
       inkscape:collect="always" />
    <linearGradient
       y2="302.22537"
       x2="-11.990957"
       y1="297.50821"
       x1="-12.641255"
       spreadMethod="pad"
       gradientTransform="scale(1.732051,0.577350)"
       gradientUnits="userSpaceOnUse"
       id="linearGradient8124"
       xlink:href="#linearGradient2685"
       inkscape:collect="always" />
    <linearGradient
       y2="264.46930"
       x2="-14.394111"
       y1="262.63419"
       x1="-15.950862"
       gradientTransform="scale(1.525896,0.655353)"
       gradientUnits="userSpaceOnUse"
       id="linearGradient8122"
       xlink:href="#linearGradient2615"
       inkscape:collect="always" />
    <linearGradient
       y2="303.10980"
       x2="-9.8899860"
       y1="297.43451"
       x1="-13.241533"
       spreadMethod="pad"
       gradientTransform="scale(1.732051,0.577350)"
       gradientUnits="userSpaceOnUse"
       id="linearGradient8120"
       xlink:href="#linearGradient2685"
       inkscape:collect="always" />
    <linearGradient
       y2="264.46930"
       x2="-14.394111"
       y1="262.63419"
       x1="-15.950862"
       gradientTransform="scale(1.525896,0.655353)"
       gradientUnits="userSpaceOnUse"
       id="linearGradient8118"
       xlink:href="#linearGradient2615"
       inkscape:collect="always" />
    <linearGradient
       y2="302.37277"
       x2="-11.715830"
       y1="296.62378"
       x1="-12.616244"
       spreadMethod="pad"
       gradientTransform="scale(1.732051,0.577350)"
       gradientUnits="userSpaceOnUse"
       id="linearGradient8116"
       xlink:href="#linearGradient2685"
       inkscape:collect="always" />
    <linearGradient
       y2="264.46930"
       x2="-14.394111"
       y1="262.63419"
       x1="-15.950862"
       gradientTransform="scale(1.525896,0.655353)"
       gradientUnits="userSpaceOnUse"
       id="linearGradient8114"
       xlink:href="#linearGradient2615"
       inkscape:collect="always" />
    <linearGradient
       y2="302.22537"
       x2="-10.065067"
       y1="298.02402"
       x1="-11.940928"
       spreadMethod="pad"
       gradientTransform="scale(1.732051,0.577350)"
       gradientUnits="userSpaceOnUse"
       id="linearGradient8112"
       xlink:href="#linearGradient2685"
       inkscape:collect="always" />
    <linearGradient
       y2="264.46930"
       x2="-14.394111"
       y1="262.63419"
       x1="-15.950862"
       gradientTransform="scale(1.525896,0.655353)"
       gradientUnits="userSpaceOnUse"
       id="linearGradient8110"
       xlink:href="#linearGradient2615"
       inkscape:collect="always" />
    <pattern
       patternTransform="translate(0.000000,140.3622)"
       id="pattern7397"
       xlink:href="#pattern6922"
       inkscape:collect="always" />
    <pattern
       patternTransform="translate(0.000000,140.3622)"
       id="pattern6922"
       xlink:href="#pattern6914"
       inkscape:collect="always" />
    <pattern
       id="pattern6914"
       patternTransform="translate(-16.00000,140.3622)"
       height="32.000000"
       width="32.000000"
       patternUnits="userSpaceOnUse">
      <rect
         transform="translate(16.00000,-140.3622)"
         inkscape:export-ydpi="360.00000"
         inkscape:export-xdpi="360.00000"
         style="fill:#c4c4c4;fill-opacity:1.0000000;fill-rule:evenodd;stroke:none;stroke-width:0.72500002;stroke-linecap:square;stroke-linejoin:miter;stroke-miterlimit:4.0000000;stroke-dashoffset:0.0000000;stroke-opacity:1.0000000"
         id="rect6916"
         width="32.000000"
         height="32.000000"
         x="-16.000000"
         y="140.36218"
         inkscape:export-filename="/home/adam/brick.png" />
    </pattern>
    <linearGradient
       id="linearGradient2615">
      <stop
         id="stop2617"
         offset="0.0000000"
         style="stop-color:#eaeaea;stop-opacity:1.0000000;" />
      <stop
         id="stop2619"
         offset="1"
         style="stop-color:#dfdfdf;stop-opacity:0;" />
    </linearGradient>
    <linearGradient
       id="linearGradient2685">
      <stop
         id="stop2687"
         offset="0.0000000"
         style="stop-color:#c8c8c8;stop-opacity:1.0000000;" />
      <stop
         id="stop2689"
         offset="1.0000000"
         style="stop-color:#919191;stop-opacity:1.0000000;" />
    </linearGradient>
    <linearGradient
       y2="301.93048"
       x2="-11.715828"
       y1="296.69754"
       x1="-12.766315"
       spreadMethod="pad"
       gradientTransform="scale(1.732051,0.577350)"
       gradientUnits="userSpaceOnUse"
       id="linearGradient21471"
       xlink:href="#linearGradient2685"
       inkscape:collect="always" />
    <linearGradient
       y2="264.46930"
       x2="-14.394111"
       y1="262.63419"
       x1="-15.950862"
       gradientTransform="scale(1.525896,0.655353)"
       gradientUnits="userSpaceOnUse"
       id="linearGradient21469"
       xlink:href="#linearGradient2615"
       inkscape:collect="always" />
    <linearGradient
       y2="301.78308"
       x2="-10.865437"
       y1="296.69754"
       x1="-12.766315"
       spreadMethod="pad"
       gradientTransform="scale(1.732051,0.577350)"
       gradientUnits="userSpaceOnUse"
       id="linearGradient21467"
       xlink:href="#linearGradient2685"
       inkscape:collect="always" />
    <linearGradient
       y2="264.46930"
       x2="-14.394111"
       y1="262.63419"
       x1="-15.950862"
       gradientTransform="scale(1.525896,0.655353)"
       gradientUnits="userSpaceOnUse"
       id="linearGradient21465"
       xlink:href="#linearGradient2615"
       inkscape:collect="always" />
    <linearGradient
       y2="302.96234"
       x2="-10.565296"
       y1="298.17163"
       x1="-12.266085"
       spreadMethod="pad"
       gradientTransform="scale(1.732051,0.577350)"
       gradientUnits="userSpaceOnUse"
       id="linearGradient21463"
       xlink:href="#linearGradient2685"
       inkscape:collect="always" />
    <linearGradient
       y2="264.46930"
       x2="-14.394111"
       y1="262.63419"
       x1="-15.950862"
       gradientTransform="scale(1.525896,0.655353)"
       gradientUnits="userSpaceOnUse"
       id="linearGradient21461"
       xlink:href="#linearGradient2615"
       inkscape:collect="always" />
    <linearGradient
       y2="301.41449"
       x2="-11.015503"
       y1="297.28717"
       x1="-12.116015"
       spreadMethod="pad"
       gradientTransform="scale(1.732051,0.577350)"
       gradientUnits="userSpaceOnUse"
       id="linearGradient21459"
       xlink:href="#linearGradient2685"
       inkscape:collect="always" />
    <linearGradient
       y2="264.46930"
       x2="-14.394111"
       y1="262.63419"
       x1="-15.950862"
       gradientTransform="scale(1.525896,0.655353)"
       gradientUnits="userSpaceOnUse"
       id="linearGradient21457"
       xlink:href="#linearGradient2615"
       inkscape:collect="always" />
    <linearGradient
       y2="302.22537"
       x2="-11.990957"
       y1="297.50821"
       x1="-12.641255"
       spreadMethod="pad"
       gradientTransform="scale(1.732051,0.577350)"
       gradientUnits="userSpaceOnUse"
       id="linearGradient21455"
       xlink:href="#linearGradient2685"
       inkscape:collect="always" />
    <linearGradient
       y2="264.46930"
       x2="-14.394111"
       y1="262.63419"
       x1="-15.950862"
       gradientTransform="scale(1.525896,0.655353)"
       gradientUnits="userSpaceOnUse"
       id="linearGradient21453"
       xlink:href="#linearGradient2615"
       inkscape:collect="always" />
    <linearGradient
       y2="303.10980"
       x2="-9.8899860"
       y1="297.43451"
       x1="-13.241533"
       spreadMethod="pad"
       gradientTransform="scale(1.732051,0.577350)"
       gradientUnits="userSpaceOnUse"
       id="linearGradient21451"
       xlink:href="#linearGradient2685"
       inkscape:collect="always" />
    <linearGradient
       y2="264.46930"
       x2="-14.394111"
       y1="262.63419"
       x1="-15.950862"
       gradientTransform="scale(1.525896,0.655353)"
       gradientUnits="userSpaceOnUse"
       id="linearGradient21449"
       xlink:href="#linearGradient2615"
       inkscape:collect="always" />
    <linearGradient
       y2="302.37277"
       x2="-11.715830"
       y1="296.62378"
       x1="-12.616244"
       spreadMethod="pad"
       gradientTransform="scale(1.732051,0.577350)"
       gradientUnits="userSpaceOnUse"
       id="linearGradient21447"
       xlink:href="#linearGradient2685"
       inkscape:collect="always" />
    <linearGradient
       y2="264.46930"
       x2="-14.394111"
       y1="262.63419"
       x1="-15.950862"
       gradientTransform="scale(1.525896,0.655353)"
       gradientUnits="userSpaceOnUse"
       id="linearGradient21445"
       xlink:href="#linearGradient2615"
       inkscape:collect="always" />
    <linearGradient
       y2="302.22537"
       x2="-10.065067"
       y1="298.02402"
       x1="-11.940928"
       spreadMethod="pad"
       gradientTransform="scale(1.732051,0.577350)"
       gradientUnits="userSpaceOnUse"
       id="linearGradient21443"
       xlink:href="#linearGradient2685"
       inkscape:collect="always" />
    <linearGradient
       y2="264.46930"
       x2="-14.394111"
       y1="262.63419"
       x1="-15.950862"
       gradientTransform="scale(1.525896,0.655353)"
       gradientUnits="userSpaceOnUse"
       id="linearGradient21441"
       xlink:href="#linearGradient2615"
       inkscape:collect="always" />
    <pattern
       patternTransform="translate(0.000000,140.3622)"
       id="pattern21439"
       xlink:href="#pattern6922"
       inkscape:collect="always" />
    <pattern
       patternTransform="translate(0.000000,140.3622)"
       id="pattern21437"
       xlink:href="#pattern6914"
       inkscape:collect="always" />
    <pattern
       id="pattern21433"
       patternTransform="translate(-16.00000,140.3622)"
       height="32.000000"
       width="32.000000"
       patternUnits="userSpaceOnUse">
      <rect
         transform="translate(16.00000,-140.3622)"
         inkscape:export-ydpi="360.00000"
         inkscape:export-xdpi="360.00000"
         style="fill:#c4c4c4;fill-opacity:1.0000000;fill-rule:evenodd;stroke:none;stroke-width:0.72500002;stroke-linecap:square;stroke-linejoin:miter;stroke-miterlimit:4.0000000;stroke-dashoffset:0.0000000;stroke-opacity:1.0000000"
         id="rect21435"
         width="32.000000"
         height="32.000000"
         x="-16.000000"
         y="140.36218"
         inkscape:export-filename="/home/adam/brick.png" />
    </pattern>
    <linearGradient
       id="linearGradient21427">
      <stop
         id="stop21429"
         offset="0.0000000"
         style="stop-color:#eaeaea;stop-opacity:1.0000000;" />
      <stop
         id="stop21431"
         offset="1"
         style="stop-color:#dfdfdf;stop-opacity:0;" />
    </linearGradient>
    <linearGradient
       id="linearGradient21421">
      <stop
         id="stop21423"
         offset="0.0000000"
         style="stop-color:#c8c8c8;stop-opacity:1.0000000;" />
      <stop
         id="stop21425"
         offset="1.0000000"
         style="stop-color:#919191;stop-opacity:1.0000000;" />
    </linearGradient>
  </defs>
  <sodipodi:namedview
     id="base"
     pagecolor="#ffffff"
     bordercolor="#666666"
     borderopacity="1.0"
     inkscape:pageopacity="0.0"
     inkscape:pageshadow="2"
     inkscape:zoom="11.197802"
     inkscape:cx="16.000000"
     inkscape:cy="15.999999"
     inkscape:current-layer="layer1"
     showgrid="true"
     inkscape:grid-bbox="true"
     inkscape:document-units="px"
     inkscape:window-width="640"
     inkscape:window-height="543"
     inkscape:window-x="223"
     inkscape:window-y="34" />
  <metadata
     id="metadata4">
    <rdf:RDF
       id="RDF5">
      <cc:Work
         rdf:about=""
         id="Work6">
        <dc:format
           id="format7">image/svg+xml</dc:format>
        <dc:type
           id="type9"
           rdf:resource="http://purl.org/dc/dcmitype/StillImage" />
      </cc:Work>
    </rdf:RDF>
  </metadata>
  <g
     id="layer1"
     inkscape:label="Layer 1"
     inkscape:groupmode="layer">
    <g
       inkscape:groupmode="layer"
       inkscape:label="Layer 1"
       id="g21473">
      <g
         inkscape:export-ydpi="360.00000"
         inkscape:export-xdpi="360.00000"
         inkscape:export-filename="/home/adam/brick.png"
         transform="translate(252.0000,-169.3750)"
         id="g14992"
         inkscape:tile-w="32.000000"
         inkscape:tile-h="32.000000"
         inkscape:tile-cx="-79.000000"
         inkscape:tile-cy="284.36218">
        <path
           id="path14994"
           transform="translate(-108.0000,-195.0000)"
           d="M -144.00000,364.37500 L -144.00000,396.37500 L -112.00000,396.37500 L -112.00000,364.37500 L -144.00000,364.37500 z "
           style="fill:#f7f7f7;fill-opacity:1.0000000" />
        <path
           sodipodi:nodetypes="ccccccccccccccccccccccccccccccccccccccccccccccccccccccccccccccccccc"
           id="path14996"
           transform="translate(-108.0000,-195.0000)"
           d="M -144.00000,364.37500 L -144.00000,369.90625 C -143.39993,369.88308 -143.29141,369.79067 -142.50000,369.78125 L -136.50000,369.71875 L -142.18750,370.09375 C -143.04782,370.14934 -143.35359,370.26735 -144.00000,370.34375 L -144.00000,385.90625 C -143.38428,385.88612 -143.32717,385.79109 -142.50000,385.78125 L -136.50000,385.71875 L -142.18750,386.09375 C -143.12723,386.15446 -143.33431,386.27112 -144.00000,386.34375 L -144.00000,396.37500 L -141.87500,396.37500 C -141.82195,395.75701 -141.65999,395.37127 -141.40625,395.62500 C -141.27766,395.75359 -141.41582,396.12267 -141.37500,396.37500 L -125.59375,396.37500 C -125.59434,396.19107 -125.60933,396.19207 -125.59375,395.87500 C -125.50734,394.11660 -124.77519,393.84401 -119.50000,393.78125 L -113.50000,393.71875 L -119.18750,394.09375 C -123.52237,394.37386 -124.96733,394.85731 -125.28125,396.15625 C -125.31882,396.31170 -125.31279,396.26171 -125.34375,396.37500 L -112.00000,396.37500 L -112.00000,386.34375 C -114.82683,386.65216 -115.99468,387.11007 -116.28125,388.65625 C -116.62107,390.48973 -116.67402,390.45482 -116.59375,388.37500 C -116.37495,385.92798 -115.61792,386.02451 -112.00000,385.90625 L -112.00000,370.34375 C -114.61065,370.65229 -116.02963,371.11510 -116.28125,372.15625 C -116.57525,373.37278 -116.66392,373.30292 -116.59375,371.87500 C -116.52030,370.38040 -115.39970,370.03752 -112.00000,369.90625 L -112.00000,364.37500 L -125.34375,364.37500 C -125.50128,364.95145 -125.59202,364.91356 -125.59375,364.37500 L -141.37500,364.37500 C -141.31033,364.77474 -141.13541,365.11997 -141.31250,365.56250 C -141.63172,366.36023 -141.85827,366.10246 -141.90625,364.93750 C -141.91651,364.68829 -141.89142,364.56633 -141.87500,364.37500 L -144.00000,364.37500 z M -120.50000,369.71875 L -126.18750,370.09375 C -130.52237,370.37386 -131.96733,370.85731 -132.28125,372.15625 C -132.57525,373.37278 -132.66392,373.30292 -132.59375,371.87500 C -132.50734,369.61660 -131.77519,369.84401 -126.50000,369.78125 L -120.50000,369.71875 z M -129.50000,377.71875 L -135.18750,378.09375 C -139.52237,378.37386 -140.96733,378.85731 -141.28125,380.15625 C -141.57525,381.37278 -141.66392,381.30292 -141.59375,379.87500 C -141.50734,378.11660 -140.77519,377.84401 -135.50000,377.78125 L -129.50000,377.71875 z M -113.50000,377.71875 L -119.18750,378.09375 C -123.52237,378.37386 -124.96733,378.85731 -125.28125,380.15625 C -125.57525,381.37278 -125.66392,381.30292 -125.59375,379.87500 C -125.50734,378.11660 -124.77519,377.84401 -119.50000,377.78125 L -113.50000,377.71875 z M -118.50000,385.68750 L -125.18750,386.06250 C -130.46628,386.35779 -131.95595,386.80954 -132.28125,388.15625 C -132.57621,389.37733 -132.66411,389.30672 -132.59375,387.87500 C -132.50569,386.08293 -131.77226,385.85273 -125.50000,385.78125 L -118.50000,385.68750 z M -138.25000,393.62500 C -136.46250,393.40318 -133.53750,393.40317 -131.75000,393.62500 C -129.96250,393.84683 -131.42500,394.03125 -135.00000,394.03125 C -138.57500,394.03125 -140.03750,393.84682 -138.25000,393.62500 z "
           style="fill:#dadada;fill-opacity:1.0000000" />
        <path
           sodipodi:nodetypes="ccccccccccccccccccccccccccccccccccccccccccccccccssscccccccccccccccccc"
           id="path14998"
           transform="translate(-108.0000,-195.0000)"
           d="M -144.00000,364.37500 L -144.00000,369.46875 L -142.25000,369.50000 C -138.53750,369.57490 -136.50434,369.82308 -137.75000,370.06250 C -139.05653,370.31362 -139.76113,370.96900 -139.37500,371.59375 C -138.93162,372.31117 -139.16337,372.36453 -140.09375,371.78125 C -140.75072,371.36938 -142.45863,371.05074 -144.00000,370.87500 L -144.00000,385.37500 L -142.34375,385.37500 C -134.55428,385.37500 -134.36880,386.49266 -142.12500,386.71875 C -143.10073,386.74719 -143.33786,386.88053 -144.00000,386.93750 L -144.00000,396.37500 L -141.84375,396.37500 C -141.85137,396.23399 -141.86700,396.28650 -141.87500,396.12500 C -142.01085,393.38175 -141.98344,393.35972 -135.25000,393.37500 C -131.38702,393.38377 -129.04690,393.75277 -129.78125,394.21875 C -130.48700,394.66656 -133.25087,394.82750 -135.93750,394.59375 C -140.28969,394.21508 -140.84703,394.39822 -141.25000,396.37500 L -125.84375,396.37500 C -125.85145,396.23561 -125.86708,396.28499 -125.87500,396.12500 C -126.01040,393.39067 -125.95914,393.37500 -119.43750,393.37500 C -115.83004,393.37500 -113.10328,393.71659 -113.37500,394.15625 C -113.64672,394.59590 -116.32497,394.81793 -119.34375,394.62500 C -124.21542,394.31368 -124.81735,394.47480 -125.21875,396.37500 L -112.00000,396.37500 L -112.00000,386.93750 C -114.53843,387.15589 -115.60136,387.60262 -116.09375,389.37500 C -116.73452,391.68150 -116.81429,391.62345 -116.90625,388.62500 L -116.75000,385.53125 L -112.00000,385.37500 L -112.00000,370.87500 C -112.27100,370.84410 -112.42502,370.73429 -112.68750,370.71875 C -115.24132,370.56753 -115.97464,370.95514 -116.31250,372.68750 C -116.65441,374.44064 -116.76472,374.35187 -116.87500,372.12500 L -116.82812,369.45313 L -112.00000,369.46875 L -112.00000,364.37500 L -125.21875,364.37500 C -125.23454,364.44974 -125.26589,364.48216 -125.28125,364.56250 C -125.64510,366.46510 -125.73429,366.35580 -125.84375,364.37500 L -141.25000,364.37500 C -141.26235,364.43556 -141.26908,364.46723 -141.28125,364.53125 C -141.65984,366.52272 -141.73361,366.41368 -141.84375,364.37500 L -144.00000,364.37500 z M -126.34375,369.37500 C -122.67709,369.37500 -119.96417,369.65167 -120.31250,370.00000 C -120.66083,370.34834 -123.24932,370.62500 -126.06250,370.62500 C -130.33538,370.62500 -131.31694,370.98178 -132.03125,372.75000 C -132.81546,374.69125 -132.87959,374.64710 -132.93750,372.12500 C -132.94803,371.66667 -133.16678,370.47917 -132.23055,369.71875 C -131.07522,368.78037 -127.45312,369.37500 -126.34375,369.37500 z M -135.34375,377.37500 C -131.67709,377.37500 -128.92905,377.61654 -129.25000,377.93750 C -129.57096,378.25845 -132.22303,378.57788 -135.15625,378.62500 C -139.64271,378.69709 -140.60918,379.03080 -141.15625,380.78125 C -141.71504,382.56916 -141.82061,382.48796 -141.90625,380.12500 C -142.00539,377.39003 -141.97398,377.37500 -135.34375,377.37500 z M -119.34375,377.37500 C -111.34691,377.37500 -111.29279,378.31585 -119.28125,378.50000 C -124.15003,378.61224 -124.95142,378.91147 -125.31250,380.75000 C -125.63855,382.41023 -125.76833,382.27892 -125.87500,380.12500 C -126.01062,377.38638 -125.98283,377.37500 -119.34375,377.37500 z M -132.93750,385.68750 L -125.75000,385.37500 C -121.76250,385.38343 -119.03748,385.74289 -119.68750,386.15625 C -120.33752,386.56962 -123.34435,386.81651 -126.37500,386.71875 C -131.29535,386.56004 -131.93596,386.75799 -132.31250,388.68750 C -132.65296,390.43212 -132.76505,390.34530 -132.87500,388.12500 L -132.93750,385.68750 z "
           style="fill:#c3c3c3;fill-opacity:1.0000000" />
        <path
           id="path15000"
           transform="translate(-108.0000,-195.0000)"
           d="M -144.00000,364.37500 L -144.00000,366.18750 C -143.91222,365.87498 -143.81469,365.56574 -143.75000,365.12500 C -143.70192,364.79743 -143.71828,364.64008 -143.68750,364.37500 L -144.00000,364.37500 z M -139.78125,367.40625 C -138.74056,368.14961 -128.68100,367.43944 -127.87500,366.56250 C -127.57903,366.24048 -127.62931,365.31410 -127.90625,364.37500 L -129.03125,364.37500 C -129.23614,365.54251 -130.02888,365.82192 -132.75000,365.71875 C -138.68582,365.49370 -140.69506,366.75352 -139.78125,367.40625 z M -118.40625,364.37500 C -118.57212,364.52582 -118.74798,364.59055 -118.90625,364.78125 C -120.13700,366.26421 -121.67391,366.31620 -123.78125,365.00000 C -124.59716,364.49039 -124.95712,364.68363 -124.78125,365.53125 C -124.63012,366.25963 -123.40631,367.10000 -122.06250,367.37500 C -120.71868,367.65000 -118.05144,367.50000 -116.00000,367.50000 C -113.29333,367.50000 -112.39747,367.60253 -112.00000,366.18750 L -112.00000,364.37500 L -113.90625,364.37500 C -114.04410,364.52665 -114.03451,364.45237 -114.18750,364.62500 C -115.69735,366.32869 -116.04321,366.45009 -115.62500,365.12500 C -115.52425,364.80577 -115.60515,364.60794 -115.62500,364.37500 L -118.40625,364.37500 z M -135.90625,370.46875 C -136.47426,370.34204 -137.26624,370.89590 -138.18750,372.15625 C -139.26259,373.62705 -142.23453,374.18284 -144.00000,373.59375 L -144.00000,375.21875 C -143.16925,375.27782 -142.47286,375.37500 -141.50000,375.37500 C -135.23333,375.37500 -135.00000,375.28526 -135.00000,372.87500 C -135.00000,371.40915 -135.33824,370.59546 -135.90625,370.46875 z M -120.31250,370.78125 C -121.30902,370.63500 -122.37067,371.20560 -122.68750,372.03125 C -123.02438,372.90915 -124.03661,373.31588 -125.12500,373.03125 C -126.14860,372.76357 -127.25449,372.97039 -127.56250,373.46875 C -127.87051,373.96712 -128.65746,374.35218 -129.31250,374.34375 C -130.02811,374.33455 -129.90129,373.95746 -129.00000,373.37500 C -127.78704,372.59113 -127.93056,372.38737 -129.75000,372.37500 C -133.32420,372.35068 -131.88666,374.81739 -128.00000,375.37500 L -119.00000,375.37500 L -119.00000,373.75000 C -119.00000,372.98743 -119.00000,371.37500 -120.31250,370.78125 z M -113.87500,372.56250 C -114.78761,372.49808 -116.00000,373.36435 -116.00000,374.40625 C -116.00000,374.78295 -114.22201,375.06075 -112.00000,375.21875 L -112.00000,373.59375 C -112.45089,373.44330 -112.89596,373.28389 -113.12500,372.96875 C -113.30992,372.71431 -113.57080,372.58397 -113.87500,372.56250 z M -129.21875,378.37500 C -129.77047,378.37500 -129.98337,379.27481 -129.68750,380.40625 C -129.24823,382.08599 -129.41234,382.26705 -130.56250,381.31250 C -131.33722,380.66953 -132.69065,380.41543 -133.56250,380.75000 C -134.43435,381.08456 -135.96634,380.91147 -136.96875,380.37500 C -138.28158,379.67239 -139.11077,379.80995 -139.96875,380.84375 C -140.62385,381.63310 -140.95733,382.62589 -140.68750,383.06250 C -140.41767,383.49909 -137.44959,383.62500 -133.93750,383.62500 L -128.03125,383.56250 L -127.81250,381.12500 C -128.03449,379.61250 -128.66703,378.37500 -129.21875,378.37500 z M -112.31250,378.93750 C -112.58243,378.77246 -113.08189,379.02816 -113.93750,379.56250 C -115.00192,380.22724 -115.59500,381.23510 -115.25000,381.81250 C -114.90500,382.38992 -115.26942,382.32587 -116.06250,381.68750 C -117.84084,380.25608 -124.94153,380.36219 -124.68750,381.81250 C -124.58599,382.39202 -122.70000,383.09714 -120.50000,383.37500 C -114.18734,384.17226 -112.00000,383.50065 -112.00000,380.75000 C -112.00000,379.69254 -112.04257,379.10254 -112.31250,378.93750 z M -118.81250,381.68750 C -118.01477,382.00672 -118.24130,382.23327 -119.40625,382.28125 C -120.46041,382.32467 -121.05104,382.08231 -120.71875,381.75000 C -120.38645,381.41771 -119.53438,381.39862 -118.81250,381.68750 z M -135.15625,386.43750 C -135.56850,386.20173 -136.16102,386.60336 -136.62500,387.81250 C -136.94237,388.63955 -137.83981,388.97428 -138.75000,388.62500 C -139.90622,388.18132 -140.12407,388.39927 -139.53125,389.43750 C -138.87475,390.58730 -138.97200,390.63719 -140.06250,389.62500 C -140.80318,388.93750 -141.86000,388.36657 -142.43750,388.37500 C -143.01500,388.38343 -142.82500,388.84184 -142.00000,389.37500 C -141.17500,389.90816 -140.99792,390.33533 -141.59375,390.34375 C -142.18959,390.35217 -142.96291,390.03709 -143.34375,389.65625 C -143.52670,389.47330 -143.77320,389.37894 -144.00000,389.25000 L -144.00000,391.46875 C -142.94079,391.57686 -139.80586,391.37500 -138.18750,391.37500 C -135.84301,391.37500 -135.13079,390.86696 -134.75000,388.87500 C -134.49591,387.54582 -134.74400,386.67327 -135.15625,386.43750 z M -119.75000,386.78125 C -120.16250,387.19375 -120.50000,388.02917 -120.50000,388.62500 C -120.50000,389.22083 -121.11094,389.90157 -121.87500,390.15625 C -122.83567,390.47647 -126.77533,390.05807 -128.25000,389.09375 C -130.43114,387.66744 -130.84429,387.62081 -130.37500,388.84375 C -130.04091,389.71437 -130.37037,390.39680 -131.15625,390.43750 C -131.90259,390.47616 -131.64669,390.83724 -130.59375,391.25000 C -129.54081,391.66277 -127.74081,391.91185 -126.59375,391.78125 C -125.44669,391.65066 -123.26250,391.48335 -121.75000,391.43750 C -119.45833,391.36806 -119.00000,390.90974 -119.00000,388.68750 C -119.00000,387.22084 -119.33750,386.36876 -119.75000,386.78125 z M -114.03125,388.71875 C -114.93659,388.77226 -115.65625,389.17914 -115.65625,389.90625 C -115.65625,390.85887 -114.65780,391.37500 -112.78125,391.37500 C -112.45041,391.37500 -112.27813,391.44036 -112.00000,391.46875 L -112.00000,389.25000 C -112.63000,388.89183 -113.36556,388.67941 -114.03125,388.71875 z M -128.78125,394.37500 C -128.89206,394.37500 -128.90237,394.87500 -128.93750,395.87500 C -128.94478,396.08232 -129.00198,396.20821 -129.03125,396.37500 L -127.90625,396.37500 C -127.95685,396.20340 -127.96190,396.04494 -128.03125,395.87500 C -128.43934,394.87500 -128.67044,394.37500 -128.78125,394.37500 z M -143.81250,394.53125 C -143.83910,394.52576 -143.96861,394.68370 -144.00000,394.68750 L -144.00000,396.37500 L -143.68750,396.37500 C -143.56157,395.29063 -143.53508,394.58849 -143.81250,394.53125 z M -121.81250,394.68750 C -122.53438,394.39863 -123.38645,394.41772 -123.71875,394.75000 C -124.05104,395.08230 -123.46041,395.32467 -122.40625,395.28125 C -121.24130,395.23327 -121.01477,395.00671 -121.81250,394.68750 z M -112.00000,394.68750 C -112.32754,394.72713 -112.97363,395.34899 -113.90625,396.37500 L -112.00000,396.37500 L -112.00000,394.68750 z M -116.37500,395.40625 C -116.93848,395.34717 -117.69227,395.72582 -118.40625,396.37500 L -115.62500,396.37500 C -115.67132,395.83147 -115.88892,395.45721 -116.37500,395.40625 z "
           style="fill:#9b9b9b;fill-opacity:1.0000000"
           sodipodi:nodetypes="ccccccccccccccccccccccccccccccccccccccccccccccccccccccccccccccccccccccccccccccccccccccccccccccccccccccccccccccccccccccccccccc" />
        <path
           sodipodi:nodetypes="cccccccccccccccccccccccccccccccccccccccccccccccccccccccccccccccccccccccccccc"
           id="path15002"
           transform="translate(-108.0000,-195.0000)"
           d="M -128.65625,364.37500 C -128.68301,364.47799 -128.68608,364.42733 -128.71875,364.56250 C -129.03828,365.88464 -130.51221,366.36105 -135.31250,366.65625 L -141.50000,367.03125 L -135.00000,366.93750 C -129.22939,366.86261 -128.49350,366.65057 -128.40625,364.87500 C -128.39109,364.56649 -128.40369,364.56204 -128.40625,364.37500 L -128.65625,364.37500 z M -112.65625,364.37500 C -112.68301,364.47799 -112.68608,364.42733 -112.71875,364.56250 C -113.03828,365.88464 -114.51221,366.36105 -119.31250,366.65625 L -125.50000,367.03125 L -119.00000,366.93750 C -113.22939,366.86261 -112.49350,366.65057 -112.40625,364.87500 C -112.39109,364.56649 -112.40369,364.56204 -112.40625,364.37500 L -112.65625,364.37500 z M -135.43750,371.71875 C -135.48790,371.67116 -135.57175,371.95424 -135.71875,372.56250 C -136.03828,373.88464 -137.51221,374.36105 -142.31250,374.65625 L -144.00000,374.75000 L -144.00000,374.96875 L -142.00000,374.93750 C -136.22939,374.86261 -135.49350,374.65057 -135.40625,372.87500 C -135.37116,372.16104 -135.38710,371.76634 -135.43750,371.71875 z M -119.43750,371.71875 C -119.48790,371.67116 -119.57175,371.95424 -119.71875,372.56250 C -120.03828,373.88464 -121.51221,374.36105 -126.31250,374.65625 L -132.50000,375.03125 L -126.00000,374.93750 C -120.22939,374.86261 -119.49350,375.51298 -119.40625,372.87500 C -119.37116,372.16104 -119.38710,371.76634 -119.43750,371.71875 z M -112.00000,374.75000 L -116.50000,375.03125 L -112.00000,374.96875 L -112.00000,374.75000 z M -128.43750,379.71875 C -128.48790,379.67116 -128.57175,379.95424 -128.71875,380.56250 C -129.03828,381.88464 -130.51221,382.36105 -135.31250,382.65625 L -141.50000,383.03125 L -135.00000,382.93750 C -127.97939,383.23761 -128.49350,382.65057 -128.40625,380.87500 C -128.37116,380.16104 -128.38710,379.76634 -128.43750,379.71875 z M -112.43750,379.71875 C -112.48790,379.67116 -112.57175,379.95424 -112.71875,380.56250 C -113.03828,381.88464 -114.51221,382.36105 -119.31250,382.65625 L -125.50000,383.03125 L -119.00000,382.93750 C -113.22939,382.86261 -112.49350,382.65057 -112.40625,380.87500 C -112.37116,380.16104 -112.38710,379.76634 -112.43750,379.71875 z M -135.43750,387.71875 C -135.48790,387.67116 -135.57175,387.95424 -135.71875,388.56250 C -136.03828,389.88464 -137.51221,390.36105 -142.31250,390.65625 L -144.00000,390.75000 L -144.00000,390.96875 L -142.00000,390.93750 C -136.22939,390.86261 -135.49350,390.65057 -135.40625,388.87500 C -135.37116,388.16104 -135.38710,387.76634 -135.43750,387.71875 z M -119.43750,387.71875 C -119.48790,387.67116 -119.57175,387.95424 -119.71875,388.56250 C -120.03828,389.88464 -121.51221,390.36105 -126.31250,390.65625 L -132.50000,391.03125 L -126.00000,390.93750 C -120.22939,390.86261 -119.49350,390.65057 -119.40625,388.87500 C -119.37116,388.16104 -119.38710,387.76634 -119.43750,387.71875 z M -112.00000,390.75000 L -116.50000,391.03125 L -112.00000,390.96875 L -112.00000,390.75000 z M -128.43750,395.71875 C -128.47670,395.68174 -128.56261,396.01453 -128.65625,396.37500 L -128.40625,396.37500 C -128.40961,396.12919 -128.40888,395.74578 -128.43750,395.71875 z M -112.43750,395.71875 C -112.47670,395.68174 -112.56261,396.01453 -112.65625,396.37500 L -112.40625,396.37500 C -112.40961,396.12919 -112.40888,395.74578 -112.43750,395.71875 z "
           style="fill:#5a5a5a;fill-opacity:1.0000000" />
      </g>
    </g>
    <g
       transform="matrix(0.999948,0.000000,0.000000,1.000000,-672.6517,-267.5530)"
       id="g22757">
      <path
         sodipodi:nodetypes="ccccccccccccccccccc"
         style="fill:#000000;fill-opacity:0.23529412"
         d="M 677.85445,292.01888 C 677.06487,290.54354 675.40786,289.74602 675.05856,289.39671 C 674.70925,289.04741 674.89176,288.76161 675.46413,288.76161 C 676.64558,288.76161 676.50688,287.57157 674.85410,283.52781 C 674.22000,281.97639 674.00716,280.02184 674.38113,279.18437 C 675.42527,276.84612 677.10893,275.93069 676.08063,274.56052 C 674.68401,272.69962 677.30244,271.53993 679.28835,270.34386 C 682.46914,271.02465 682.14729,272.57137 683.89729,271.17861 C 683.89729,270.00719 685.20636,268.59282 688.49943,269.09517 C 690.75561,269.43936 693.08687,270.10135 693.68002,270.56630 C 694.34229,271.08542 696.85099,273.47332 697.59493,272.57692 L 698.99745,274.93778 L 699.52069,281.13654 C 701.47145,283.55149 698.97153,290.86535 697.61058,290.02423 C 697.02602,289.66296 696.84640,290.00807 697.17429,290.86253 C 697.78147,292.44479 696.57091,292.10886 694.23206,293.93147 C 693.00045,294.89124 692.71326,296.08609 689.74569,294.57314 C 686.32140,292.82733 685.92976,292.80333 682.67044,294.21494 C 676.97352,294.37235 679.03857,294.23143 677.85445,292.01888 z "
         id="path22733" />
      <path
         sodipodi:nodetypes="ccscsccccccccccc"
         style="fill:#000000;fill-opacity:1.0000000"
         d="M 684.73505,292.31425 C 683.17094,291.69179 681.52378,290.79053 679.78996,291.06775 C 678.98404,291.57668 677.10400,293.44686 677.15293,291.28290 C 677.21009,288.75475 677.93802,286.44620 676.74122,282.93365 C 677.73882,279.56825 677.81753,278.62760 677.89676,276.11026 C 677.95142,274.37345 679.02020,273.23693 680.71683,273.40079 C 682.08313,273.51369 683.56081,273.13440 684.05987,271.80539 C 685.59199,271.15480 687.47803,271.30101 688.93446,272.09135 C 690.61191,273.56942 693.00116,273.30154 695.00354,273.94953 C 696.80752,274.80585 696.19091,277.16493 696.78593,278.71645 C 697.03666,280.37878 698.33484,281.41443 699.26707,282.66564 C 700.57248,284.70040 698.12260,285.59584 696.99054,286.71509 C 695.43881,288.38510 695.03100,290.73409 693.65866,292.50745 C 692.62002,294.06731 690.55020,292.14007 689.45494,293.44849 C 688.15482,293.91545 686.68210,293.00407 685.40960,292.60564 C 685.18337,292.51176 684.95852,292.41454 684.73505,292.31425 z "
         id="path22742" />
      <path
         sodipodi:nodetypes="cccccccccccccc"
         id="path22744"
         d="M 678.25164,291.67655 C 677.17667,290.29408 674.91170,289.06028 676.60077,287.38172 C 676.34517,284.53290 673.51840,281.76075 675.12336,278.88904 C 677.79132,276.94575 674.87680,273.33222 677.77559,271.74697 C 680.20483,269.61639 680.95231,272.97326 683.45266,271.72662 C 684.39706,267.91741 690.93725,269.76931 693.42774,271.11996 C 695.27624,272.82173 699.02541,273.28378 698.61511,276.57651 C 698.53426,279.61214 699.99147,282.48463 699.62850,285.48996 C 698.88901,288.50710 696.97702,290.75075 695.04753,292.92007 C 692.50376,295.48748 689.54734,294.24229 686.76666,292.87909 C 684.10766,292.45896 680.52309,295.63964 678.46646,292.68858 L 678.31742,292.22724 L 678.25164,291.67655 L 678.25164,291.67655 z "
         style="fill:#000000;fill-opacity:0.23529412" />
      <path
         id="path22751"
         d="M 678.50310,290.82851 C 677.53373,289.49777 675.44177,288.27166 677.07841,286.74415 C 676.92219,284.05968 674.34767,281.37148 675.94043,278.72032 C 678.50470,276.97291 675.87252,273.49151 678.64314,272.08733 C 680.98861,270.15689 683.35024,273.50597 685.73649,272.40824 C 686.73616,268.85668 691.06899,270.61689 693.36942,271.95945 C 695.05624,273.61303 698.56559,274.15770 698.08300,277.23967 C 697.91756,280.08977 699.20219,282.83190 698.77255,285.64520 C 697.98876,288.45851 696.12600,290.51045 694.24898,292.49202 C 691.78302,294.82956 689.04168,293.57237 686.46894,292.20946 C 683.98275,291.73631 680.52070,294.61945 678.67514,291.78582 L 678.54868,291.34792 L 678.50310,290.82851 L 678.50310,290.82851 z "
         style="fill:#000000;fill-opacity:0.31764707" />
      <path
         sodipodi:nodetypes="ccccccccccccccccccc"
         style="fill:#000000;fill-opacity:0.41764703"
         d="M 677.25330,292.19600 C 676.53952,290.86229 676.54158,289.01633 676.22581,288.70056 C 675.91004,288.38479 676.07502,288.12643 676.59245,288.12643 C 677.66048,288.12643 677.53509,287.05064 676.04098,283.39508 C 675.46776,281.99259 675.27535,280.22569 675.61342,279.46862 C 676.55732,277.35484 678.07935,276.52729 677.14977,275.28866 C 675.88722,273.60641 678.25428,272.55805 680.04954,271.47680 C 682.92497,272.09224 682.95401,272.10347 684.53601,270.84442 C 684.53601,269.78546 685.39941,269.89387 688.37634,270.34799 C 690.41593,270.65914 692.52339,271.25757 693.05959,271.67789 C 693.65828,272.14717 695.92614,274.30583 696.59866,273.49548 L 697.86655,275.62971 L 698.33955,281.23338 C 700.10304,283.41648 697.84311,290.02821 696.61282,289.26784 C 696.08437,288.94125 695.92199,289.25323 696.21841,290.02566 C 696.76730,291.45602 695.67295,291.15234 693.55864,292.79998 C 692.44526,293.66760 692.18564,294.74775 689.50296,293.38005 C 686.40740,291.80184 686.05337,291.78013 683.10695,293.05624 C 677.95694,293.19853 678.32374,294.19614 677.25330,292.19600 z "
         id="path22753" />
    </g>
  </g>
</svg>
