<?xml version="1.0" encoding="UTF-8" standalone="no"?>
<!-- Created with Inkscape (http://www.inkscape.org/) -->
<svg
   xmlns:dc="http://purl.org/dc/elements/1.1/"
   xmlns:cc="http://web.resource.org/cc/"
   xmlns:rdf="http://www.w3.org/1999/02/22-rdf-syntax-ns#"
   xmlns:svg="http://www.w3.org/2000/svg"
   xmlns="http://www.w3.org/2000/svg"
   xmlns:xlink="http://www.w3.org/1999/xlink"
   xmlns:sodipodi="http://inkscape.sourceforge.net/DTD/sodipodi-0.dtd"
   xmlns:inkscape="http://www.inkscape.org/namespaces/inkscape"
   sodipodi:docname="17.svg"
   sodipodi:docbase="/home/adam/workspace/Escape/src/org/spacebar/escape/j2se/resources/tiles"
   inkscape:version="0.41"
   sodipodi:version="0.32"
   id="svg3133"
   height="32px"
   width="32px">
  <defs
     id="defs3" />
  <sodipodi:namedview
     inkscape:window-y="0"
     inkscape:window-x="984"
     inkscape:window-height="536"
     inkscape:window-width="640"
     inkscape:document-units="px"
     inkscape:grid-bbox="true"
     showgrid="true"
     inkscape:current-layer="layer1"
     inkscape:cy="15.999999"
     inkscape:cx="16.000000"
     inkscape:zoom="11.197802"
     inkscape:pageshadow="2"
     inkscape:pageopacity="0.0"
     borderopacity="1.0"
     bordercolor="#666666"
     pagecolor="#ffffff"
     id="base" />
  <metadata
     id="metadata4">
    <rdf:RDF
       id="RDF5">
      <cc:Work
         id="Work6"
         rdf:about="">
        <dc:format
           id="format7">image/svg+xml</dc:format>
        <dc:type
           rdf:resource="http://purl.org/dc/dcmitype/StillImage"
           id="type9" />
      </cc:Work>
    </rdf:RDF>
  </metadata>
  <g
     inkscape:groupmode="layer"
     inkscape:label="Layer 1"
     id="layer1">
    <g
       id="g10428"
       transform="translate(-256.0000,-28.36218)">
      <path
         sodipodi:nodetypes="ccccc"
         style="fill:#fef642"
         d="M 260.00000,32.362183 L 284.00000,32.362183 L 284.00000,42.362183 L 260.00000,42.362183 L 260.00000,32.362183 z "
         id="path10458" />
      <path
         sodipodi:nodetypes="ccccccccccccccccccccccccccccc"
         style="fill:#e6da00"
         d="M 260.00000,32.362183 L 284.00000,32.362183 L 284.00000,42.362183 L 260.00000,42.362183 L 260.00000,32.362183 z M 283.00000,37.862183 C 283.00000,35.028850 282.61905,34.362183 281.00000,34.362183 C 279.44444,34.362183 279.00000,35.028850 279.00000,37.362183 C 279.00000,39.012183 278.55000,40.362183 278.00000,40.362183 C 277.45000,40.362183 277.00000,39.462183 277.00000,38.362183 C 277.00000,37.262183 276.55000,36.362183 276.00000,36.362183 C 275.45000,36.362183 275.00000,37.262183 275.00000,38.362183 C 275.00000,39.462183 274.55000,40.362183 274.00000,40.362183 C 273.45000,40.362183 273.00000,39.012183 273.00000,37.362183 C 273.00000,35.712183 272.55000,34.362183 272.00000,34.362183 C 271.45000,34.362183 271.00000,35.712183 271.00000,37.362183 C 271.00000,40.028850 270.66667,40.362183 268.00000,40.362183 C 265.33333,40.362183 265.00000,40.028850 265.00000,37.362183 C 265.00000,35.362183 264.50000,34.362183 263.50000,34.362183 C 262.45238,34.362183 262.00000,35.417739 262.00000,37.862183 L 262.00000,41.362183 L 272.50000,41.362183 L 283.00000,41.362183 L 283.00000,37.862183 z M 269.00000,37.362183 C 269.00000,36.812183 268.55000,36.362183 268.00000,36.362183 C 267.45000,36.362183 267.00000,36.812183 267.00000,37.362183 C 267.00000,37.912183 267.45000,38.362183 268.00000,38.362183 C 268.55000,38.362183 269.00000,37.912183 269.00000,37.362183 z "
         id="path10452" />
      <path
         sodipodi:nodetypes="cccccccccccccccccc"
         style="fill:#8e8e8e"
         d="M 256.00000,44.362183 L 256.00000,28.362183 L 272.00000,28.362183 L 288.00000,28.362183 L 288.00000,44.362183 L 288.00000,60.362183 L 272.00000,60.362183 L 256.00000,60.362183 L 256.00000,44.362183 z M 283.00000,37.362183 L 283.00000,33.362183 L 272.00000,33.362183 L 261.00000,33.362183 L 261.00000,37.362183 L 261.00000,41.362183 L 272.00000,41.362183 L 283.00000,41.362183 L 283.00000,37.362183 z "
         id="path10450" />
      <path
         sodipodi:nodetypes="cccccccccccccccccccc"
         style="fill:#676767;fill-opacity:1.0000000"
         d="M 256.00000,59.362183 C 256.00000,58.812183 256.45000,58.362183 257.00000,58.362183 C 257.61905,58.362183 258.00000,53.028850 258.00000,44.362183 L 258.00000,30.362183 L 272.00000,30.362183 C 280.66667,30.362183 286.00000,29.981231 286.00000,29.362183 C 286.00000,28.812183 286.45000,28.362183 287.00000,28.362183 C 287.62500,28.362183 288.00000,34.362183 288.00000,44.362183 L 288.00000,60.362183 L 272.00000,60.362183 C 262.00000,60.362183 256.00000,59.987183 256.00000,59.362183 z M 284.00196,37.612183 L 284.00393,32.862183 L 272.50196,33.172723 L 261.00000,33.483264 L 261.00000,37.922723 L 261.00000,42.362183 L 272.50000,42.362183 L 284.00000,42.362183 L 284.00196,37.612183 z "
         id="path10446" />
      <path
         sodipodi:nodetypes="ccccccccccccccccccccccccc"
         style="fill:#575757;fill-opacity:1.0000000"
         d="M 256.50000,59.362183 C 256.83992,58.812183 260.05100,58.362183 263.63574,58.362183 L 270.15345,58.362183 L 267.07673,55.773289 C 263.30262,52.597586 263.00811,48.642639 266.31445,45.536497 C 269.21897,42.807842 272.36478,42.773680 276.09563,45.430277 C 279.83028,48.089581 279.90995,51.802963 276.31291,55.557464 L 273.62582,58.362183 L 279.81291,58.362183 L 286.00000,58.362183 L 286.00000,43.921200 C 286.00000,35.372567 286.40803,29.228041 287.00000,28.862183 C 287.65081,28.459960 288.00000,33.851799 288.00000,44.303166 L 288.00000,60.362183 L 271.94098,60.362183 C 261.48962,60.362183 256.09778,60.012993 256.50000,59.362183 z M 260.18025,37.612183 L 260.00000,32.362183 L 271.75000,32.575939 L 283.50000,32.789695 L 272.30347,33.108190 L 261.10695,33.426685 L 260.73372,38.144434 L 260.36050,42.862183 L 260.18025,37.612183 z "
         id="path10444" />
      <path
         style="fill:#3a3a3a"
         d="M 271.22474,59.614211 L 286.94947,59.311654 L 287.25203,43.586918 L 287.55172,28.426685 L 287.77729,44.112183 L 288.00000,60.362183 L 271.75000,60.139476 L 256.04165,59.862197 L 271.22474,59.614211 z M 266.45454,54.907638 C 263.33993,51.793026 263.33993,48.931340 266.45454,45.816728 C 269.56916,42.702117 272.43084,42.702117 275.54546,45.816728 C 278.66007,48.931340 278.66007,51.793026 275.54546,54.907638 C 272.43084,58.022249 269.56916,58.022249 266.45454,54.907638 z "
         id="path10438"
         sodipodi:nodetypes="cccccccccccccc" />
      <path
         sodipodi:nodetypes="ccccc"
         style="fill:#9a0000"
         d="M 266.45454,54.907638 C 263.33993,51.793026 263.33993,48.931340 266.45454,45.816728 C 269.56916,42.702117 272.43084,42.702117 275.54546,45.816728 C 278.66007,48.931340 278.66007,51.793026 275.54546,54.907638 C 272.43084,58.022249 269.56916,58.022249 266.45454,54.907638 z "
         id="path10436" />
      <path
         sodipodi:nodetypes="ccczzcccccsss"
         style="fill:#6d0000"
         d="M 266.45454,54.907638 C 265.10455,53.557638 264.00689,51.420138 264.01531,50.157638 C 264.02786,48.277281 264.21678,48.133435 265.06006,49.362183 C 265.91004,50.600694 266.21028,49.939365 266.19471,48.674683 C 266.17619,47.171245 267.42338,45.900178 268.69607,46.075796 C 269.95882,46.250042 270.08836,45.314171 269.60503,44.532122 C 268.21400,42.281398 273.05753,43.328801 275.54546,45.816728 C 278.66007,48.931340 277.41007,51.043026 274.29546,54.157638 C 271.18084,57.272249 269.56916,58.022249 266.45454,54.907638 z M 272.98652,51.811326 C 273.56929,51.101206 273.27834,49.371239 273.17233,49.993465 C 272.91538,51.501624 272.53753,51.516593 271.16253,52.141593 C 269.87508,52.726798 272.39709,52.529557 272.98652,51.811326 z "
         id="path10434" />
      <path
         id="path10432"
         d="M 268.50000,56.362183 C 268.15344,55.801440 268.93795,55.362183 270.28600,55.362183 C 273.21700,55.362183 276.00000,52.494556 276.00000,49.474425 C 276.00000,48.242218 276.44751,47.520725 277.00000,47.862183 C 278.77382,48.958464 278.06597,52.387126 275.54546,54.907638 C 273.02494,57.428149 269.59628,58.136002 268.50000,56.362183 z "
         style="fill:#490000" />
      <path
         id="path3054"
         d="M 268.00000,49.830798 C 268.00000,48.218719 270.66157,46.690421 271.68563,47.714478 C 272.39786,48.426708 270.13807,51.362183 268.87755,51.362183 C 268.39490,51.362183 268.00000,50.673060 268.00000,49.830798 z "
         style="fill:#5b0000;fill-opacity:1.0000000" />
      <g
         transform="translate(-0.485421,0.000000)"
         id="g3111">
        <path
           transform="translate(-34.77137,-20.50659)"
           d="M 295.21522,64.802995 L 294.87995,65.262871 L 294.31406,65.202460 L 294.08343,64.682174 L 294.41869,64.222298 L 294.98459,64.282709 L 295.21522,64.802995 z "
           inkscape:randomized="0.0000000"
           inkscape:rounded="0.0000000"
           inkscape:flatsided="true"
           sodipodi:arg2="0.62994817"
           sodipodi:arg1="0.10634939"
           sodipodi:r2="3.7777965"
           sodipodi:r1="0.56911224"
           sodipodi:cy="64.742584"
           sodipodi:cx="294.64932"
           sodipodi:sides="6"
           id="path3101"
           style="color:#000000;fill:#323232;fill-opacity:1.0000000;fill-rule:nonzero;stroke:none;stroke-width:1.8000000;stroke-linecap:square;stroke-linejoin:miter;stroke-miterlimit:4.0000000;stroke-dashoffset:0.0000000;stroke-opacity:1.0000000;marker:none;marker-start:none;marker-mid:none;marker-end:none;visibility:visible;display:inline;overflow:visible"
           sodipodi:type="star" />
        <path
           transform="translate(-34.87539,-20.64528)"
           d="M 295.24989,64.733649 L 294.95735,65.258225 L 294.35678,65.267160 L 294.04875,64.751519 L 294.34130,64.226943 L 294.94187,64.218008 L 295.24989,64.733649 z "
           inkscape:randomized="0.0000000"
           inkscape:rounded="0.0000000"
           inkscape:flatsided="true"
           sodipodi:arg2="0.50872258"
           sodipodi:arg1="-0.014876205"
           sodipodi:r2="3.7777965"
           sodipodi:r1="0.60063612"
           sodipodi:cy="64.742584"
           sodipodi:cx="294.64932"
           sodipodi:sides="6"
           id="path3097"
           style="color:#000000;fill:#8c8c8c;fill-opacity:1.0000000;fill-rule:nonzero;stroke:none;stroke-width:1.8000000;stroke-linecap:square;stroke-linejoin:miter;stroke-miterlimit:4.0000000;stroke-dashoffset:0.0000000;stroke-opacity:1.0000000;marker:none;marker-start:none;marker-mid:none;marker-end:none;visibility:visible;display:inline;overflow:visible"
           sodipodi:type="star" />
      </g>
      <use
         height="1052.3622"
         width="744.09448"
         transform="translate(0.000000,11.78945)"
         id="use3127"
         xlink:href="#g3111"
         y="0.0000000"
         x="0.0000000" />
      <use
         height="1052.3622"
         width="744.09448"
         transform="translate(25.31209,0.000000)"
         id="use3129"
         xlink:href="#g3111"
         y="0.0000000"
         x="0.0000000" />
      <use
         height="1052.3622"
         width="744.09448"
         transform="translate(25.31209,11.78945)"
         id="use3131"
         xlink:href="#g3111"
         y="0.0000000"
         x="0.0000000" />
      <path
         transform="translate(-33.87914,0.107242)"
         d="M 304.09789 37.354591 A 2.1190996 2.1190996 0 1 1  299.85969,37.354591 A 2.1190996 2.1190996 0 1 1  304.09789 37.354591 z"
         sodipodi:ry="2.1190996"
         sodipodi:rx="2.1190996"
         sodipodi:cy="37.354591"
         sodipodi:cx="301.97879"
         id="path2245"
         style="color:#000000;fill:none;fill-opacity:1.0000000;fill-rule:nonzero;stroke:#000000;stroke-width:1.8000000;stroke-linecap:square;stroke-linejoin:miter;stroke-miterlimit:4.0000000;stroke-dashoffset:0.0000000;stroke-opacity:1.0000000;marker:none;marker-start:none;marker-mid:none;marker-end:none;visibility:visible;display:inline;overflow:visible"
         sodipodi:type="arc" />
      <path
         transform="translate(-34.00000,3.828125e-7)"
         sodipodi:nodetypes="czzzzsccczzccc"
         id="path3026"
         d="M 307.00000,40.362183 L 307.00000,35.205933 C 307.00000,34.706664 307.80744,34.419628 308.38036,34.430045 C 308.95356,34.440467 308.47882,35.404595 309.25536,35.491625 C 310.00105,35.575197 309.43330,34.225088 310.82636,34.509930 C 312.27011,34.805135 313.00000,35.805057 313.00000,36.561057 L 313.00000,39.052823 C 312.89047,40.019607 312.61175,40.146701 312.28125,40.362183 L 311.12500,40.362183 L 311.09375,37.268433 C 311.08189,36.094383 308.80081,35.921357 308.78125,37.169321 L 308.75000,39.163309 C 308.69308,39.915529 308.54777,40.162390 308.24778,40.362183 L 307.00000,40.362183 z "
         style="fill:#000000;fill-opacity:1.0000000;fill-rule:evenodd;stroke:none;stroke-width:1.0000000px;stroke-linecap:butt;stroke-linejoin:miter;stroke-opacity:1.0000000" />
    </g>
  </g>
</svg>
