<?xml version="1.0" encoding="UTF-8" standalone="no"?>
<!-- Created with Inkscape (http://www.inkscape.org/) -->
<svg
   xmlns:dc="http://purl.org/dc/elements/1.1/"
   xmlns:cc="http://web.resource.org/cc/"
   xmlns:rdf="http://www.w3.org/1999/02/22-rdf-syntax-ns#"
   xmlns:svg="http://www.w3.org/2000/svg"
   xmlns="http://www.w3.org/2000/svg"
   xmlns:sodipodi="http://inkscape.sourceforge.net/DTD/sodipodi-0.dtd"
   xmlns:inkscape="http://www.inkscape.org/namespaces/inkscape"
   inkscape:export-ydpi="281.25000"
   inkscape:export-xdpi="281.25000"
   inkscape:export-filename="/home/adam/heart-framer.png"
   sodipodi:docname="55.svg"
   sodipodi:docbase="/home/adam/workspace/Escape/src/org/spacebar/escape/j2se/resources/tiles"
   inkscape:version="0.41"
   sodipodi:version="0.32"
   id="svg6539"
   height="32px"
   width="32px">
  <defs
     id="defs3" />
  <sodipodi:namedview
     inkscape:window-y="483"
     inkscape:window-x="946"
     inkscape:window-height="536"
     inkscape:window-width="640"
     inkscape:document-units="px"
     inkscape:grid-bbox="true"
     showgrid="true"
     inkscape:current-layer="layer1"
     inkscape:cy="39.357664"
     inkscape:cx="16.000000"
     inkscape:zoom="17.125000"
     inkscape:pageshadow="2"
     inkscape:pageopacity="0.0"
     borderopacity="1.0"
     bordercolor="#666666"
     pagecolor="#ffffff"
     id="base" />
  <metadata
     id="metadata4">
    <rdf:RDF
       id="RDF5">
      <cc:Work
         id="Work6"
         rdf:about="">
        <dc:format
           id="format7">image/svg+xml</dc:format>
        <dc:type
           rdf:resource="http://purl.org/dc/dcmitype/StillImage"
           id="type9" />
      </cc:Work>
    </rdf:RDF>
  </metadata>
  <g
     inkscape:groupmode="layer"
     inkscape:label="Layer 1"
     id="layer1">
    <g
       transform="translate(-432.0000,-668.3622)"
       id="g6491">
      <path
         id="path6507"
         d="M 432.00000,684.36218 L 432.00000,668.36218 L 448.00000,668.36218 L 464.00000,668.36218 L 464.00000,684.36218 L 464.00000,700.36218 L 448.00000,700.36218 L 432.00000,700.36218 L 432.00000,684.36218 z "
         style="fill:#fdf2f0" />
      <path
         id="path6505"
         d="M 432.50000,684.61218 L 432.50000,668.86218 L 448.25000,668.86218 L 464.00000,668.86218 L 464.00000,684.61218 L 464.00000,700.36218 L 448.25000,700.36218 L 432.50000,700.36218 L 432.50000,684.61218 z M 458.80000,695.16218 C 459.60899,694.35319 459.93559,690.52452 459.80233,683.41218 L 459.60465,672.86218 L 459.05233,683.86218 L 458.50000,694.86218 L 447.50000,695.41451 L 436.50000,695.96683 L 447.05000,696.16451 C 454.16234,696.29777 457.99101,695.97117 458.80000,695.16218 z M 448.00000,691.01717 C 448.00000,690.82741 446.98750,689.81491 445.75000,688.76717 L 443.50000,686.86218 L 445.40499,689.11218 C 447.19521,691.22663 448.00000,691.81742 448.00000,691.01717 z M 441.47546,683.68439 C 439.76805,681.07855 439.78220,680.95696 442.00212,679.15938 C 444.53914,677.10502 443.87865,675.32210 441.20204,676.99968 C 438.82254,678.49103 438.51282,682.16636 440.57463,684.44464 C 443.06342,687.19473 443.52197,686.80775 441.47546,683.68439 z M 450.00000,680.39412 C 450.00000,679.86168 451.23750,678.75470 452.75000,677.93415 C 454.96261,676.73380 455.12455,676.43443 453.57874,676.40222 C 451.60072,676.36100 448.00000,679.01693 448.00000,680.51717 C 448.00000,680.98192 448.45000,681.36218 449.00000,681.36218 C 449.55000,681.36218 450.00000,680.92655 450.00000,680.39412 z "
         style="fill:#fee4df" />
      <path
         id="path6503"
         d="M 432.00000,698.92120 C 432.00000,698.12866 432.45000,697.20210 433.00000,696.86218 C 433.57479,696.50694 434.00000,691.25180 434.00000,684.50316 C 434.00000,676.70462 434.40294,672.35924 435.20000,671.56218 C 435.99706,670.76512 440.34244,670.36218 448.14098,670.36218 C 454.88962,670.36218 460.14476,669.93697 460.50000,669.36218 C 460.83992,668.81218 461.76648,668.36218 462.55902,668.36218 C 463.75362,668.36218 464.00000,671.09787 464.00000,684.36218 L 464.00000,700.36218 L 448.00000,700.36218 C 434.73569,700.36218 432.00000,700.11580 432.00000,698.92120 z M 459.17126,695.70719 C 460.72759,694.29873 461.00000,692.44552 461.00000,683.26621 C 461.00000,668.28814 459.13970,668.12607 458.78207,683.07299 L 458.50000,694.86218 L 446.71081,695.14425 C 431.86248,695.49952 431.87883,697.36218 446.73028,697.36218 C 455.20175,697.36218 457.71142,697.02833 459.17126,695.70719 z M 455.59537,678.88615 C 454.74923,675.51487 451.73285,675.61505 448.98717,679.10562 C 446.91524,681.73965 446.77421,681.77388 445.45065,679.96381 C 444.69246,678.92692 443.88875,677.57987 443.66463,676.97037 C 442.99786,675.15706 439.54841,677.73893 439.16412,680.33895 C 438.92897,681.92990 440.07797,683.88485 442.99520,686.85729 L 447.16217,691.10312 L 451.69551,686.25662 C 455.39286,682.30386 456.11203,680.94467 455.59537,678.88615 z M 432.00000,669.92120 C 432.00000,669.06374 432.45000,668.36218 433.00000,668.36218 C 434.29391,668.36218 434.29391,670.06250 433.00000,670.86218 C 432.45000,671.20210 432.00000,670.77866 432.00000,669.92120 z "
         style="fill:#fbd0c7" />
      <path
         id="path6501"
         d="M 432.00000,698.66218 C 432.00000,697.59070 432.34977,697.31341 432.94603,697.91218 C 433.50183,698.47031 439.58605,698.65593 447.69603,698.36218 L 461.50000,697.86218 L 462.00000,683.61002 C 462.31698,674.57469 462.13396,669.20453 461.50000,668.93897 C 460.95000,668.70858 461.28750,668.48455 462.25000,668.44113 C 463.84704,668.36908 464.00000,669.76068 464.00000,684.36218 L 464.00000,700.36218 L 448.00000,700.36218 C 433.60784,700.36218 432.00000,700.19135 432.00000,698.66218 z M 435.00000,684.59391 C 435.00000,677.50257 435.41438,673.34780 436.20000,672.56218 C 436.98562,671.77656 441.14039,671.36218 448.23174,671.36218 L 459.06347,671.36218 L 458.78174,683.11218 L 458.50000,694.86218 L 446.75000,695.14391 L 435.00000,695.42565 L 435.00000,684.59391 z M 457.00000,680.34977 C 457.00000,676.34771 452.41264,675.14375 449.48596,678.37770 L 447.66194,680.39321 L 445.28603,678.16116 C 443.42736,676.41504 442.53892,676.16176 441.20506,676.99777 C 437.92900,679.05108 438.56109,682.33926 443.12598,686.99055 L 447.42373,691.36964 L 452.21187,686.65350 C 454.84534,684.05962 457.00000,681.22295 457.00000,680.34977 z M 432.00000,669.86218 C 432.00000,669.03718 432.43588,668.36218 432.96862,668.36218 C 433.50135,668.36218 433.67821,669.03718 433.36163,669.86218 C 432.62460,671.78285 432.00000,671.78285 432.00000,669.86218 z "
         style="fill:#efa5a5" />
      <path
         id="path6499"
         d="M 432.00000,698.66218 C 432.00000,697.59070 432.34977,697.31341 432.94603,697.91218 C 433.50183,698.47031 439.58605,698.65593 447.69603,698.36218 L 461.50000,697.86218 L 462.00000,683.61002 C 462.31698,674.57469 462.13396,669.20453 461.50000,668.93897 C 460.95000,668.70858 461.28750,668.48455 462.25000,668.44113 C 463.84704,668.36908 464.00000,669.76068 464.00000,684.36218 L 464.00000,700.36218 L 448.00000,700.36218 C 433.60784,700.36218 432.00000,700.19135 432.00000,698.66218 z M 435.00000,684.66917 C 435.00000,677.51929 435.41336,673.34882 436.20000,672.56218 C 436.98519,671.77699 441.13333,671.36218 448.20000,671.36218 C 457.13333,671.36218 459.00000,671.62144 459.00000,672.86218 C 459.00000,674.10072 457.03903,674.37956 447.75000,674.46186 C 440.56917,674.52549 437.40426,674.85113 439.00000,675.36218 L 441.50000,676.16282 L 439.00000,676.27781 C 437.00490,676.36958 436.80294,676.58858 438.00000,677.36218 C 438.82500,677.89534 439.02750,678.33845 438.45000,678.34687 C 437.87250,678.35529 437.40000,679.48718 437.40000,680.86218 C 437.40000,682.23718 437.87250,683.36907 438.45000,683.37749 C 439.02750,683.38591 438.82500,683.82902 438.00000,684.36218 C 436.80294,685.13578 437.00490,685.35478 439.00000,685.44655 L 441.50000,685.56154 L 439.00000,686.36218 C 436.66846,687.10887 436.73584,687.17841 440.00000,687.39414 L 443.50000,687.62546 L 440.00000,688.36218 L 436.50000,689.09890 L 441.00000,689.38073 L 445.50000,689.66257 L 441.00000,690.36218 L 436.50000,691.06179 L 442.03759,691.21199 C 447.42162,691.35802 447.70965,691.22566 452.42432,686.43902 C 456.02199,682.78642 457.13329,680.97987 456.73034,679.43902 C 456.40484,678.19429 456.66487,677.36218 457.37933,677.36218 C 458.07506,677.36218 458.57143,678.81952 458.57143,680.86218 C 458.57143,682.78718 458.10536,684.36907 457.53571,684.37749 C 456.96607,684.38591 457.17500,684.82902 458.00000,685.36218 C 459.19706,686.13578 458.99510,686.35478 457.00000,686.44655 L 454.50000,686.56154 L 457.00000,687.36218 C 459.33154,688.10887 459.26416,688.17841 456.00000,688.39414 L 452.50000,688.62546 L 456.00000,689.36218 L 459.50000,690.09890 L 455.00000,690.38073 L 450.50000,690.66257 L 455.00000,691.36218 C 458.48957,691.90470 456.91780,692.14031 448.00000,692.41145 L 436.50000,692.76111 L 448.00000,693.36218 L 459.50000,693.96325 L 448.83179,694.16271 C 442.96427,694.27242 437.45177,694.63532 436.58179,694.96917 C 435.19899,695.49980 435.00000,694.20407 435.00000,684.66917 z M 445.67638,678.55707 C 443.22793,675.85157 443.57281,675.34511 447.75000,675.51201 C 451.19955,675.64984 451.25964,675.69938 448.50000,676.13033 C 446.26918,676.47870 445.93930,676.76084 447.21338,677.23074 C 448.29058,677.62803 448.63454,678.33547 448.13975,679.13605 C 447.53474,680.11499 446.96511,679.98110 445.67638,678.55707 z M 455.75000,675.69990 C 456.43750,675.42249 457.56250,675.42249 458.25000,675.69990 C 458.93750,675.97731 458.37500,676.20429 457.00000,676.20429 C 455.62500,676.20429 455.06250,675.97731 455.75000,675.69990 z M 432.00000,669.86218 C 432.00000,669.03718 432.43588,668.36218 432.96862,668.36218 C 433.50135,668.36218 433.67821,669.03718 433.36163,669.86218 C 432.62460,671.78285 432.00000,671.78285 432.00000,669.86218 z "
         style="fill:#d5afad" />
      <path
         sodipodi:nodetypes="ccccccccccccccccccccccccccccccccccccccccccccccccccccccccccccccccccc"
         id="path6497"
         d="M 448.00000,699.40413 L 462.50000,698.86218 L 463.03971,683.36218 L 463.53523,668.43670 L 463.78971,684.11218 L 464.00000,700.36218 L 448.75000,700.15413 L 433.50000,699.94608 L 448.00000,699.40413 z M 436.21763,683.86218 L 436.50000,672.86218 L 447.75000,672.57943 C 455.00370,672.39712 459.00000,672.66354 459.00000,673.32943 C 459.00000,673.97266 454.75683,674.39978 447.75000,674.46186 C 440.56917,674.52549 437.40426,674.85113 439.00000,675.36218 L 441.50000,676.16282 L 439.00000,676.27781 C 437.00490,676.36958 436.80294,676.58858 438.00000,677.36218 C 438.82500,677.89534 439.02750,678.33845 438.45000,678.34687 C 437.87250,678.35529 437.40000,679.48718 437.40000,680.86218 C 437.40000,682.23718 437.87250,683.36907 438.45000,683.37749 C 439.02750,683.38591 438.82500,683.82902 438.00000,684.36218 C 436.80294,685.13578 437.00490,685.35478 439.00000,685.44655 L 441.50000,685.56154 L 439.00000,686.36218 C 436.66846,687.10887 436.73584,687.17841 440.00000,687.39414 L 443.50000,687.62546 L 440.00000,688.36218 L 436.50000,689.09890 L 441.00000,689.38073 L 445.50000,689.66257 L 441.00000,690.36218 L 436.50000,691.06179 L 442.54179,691.21199 C 448.44092,691.35863 448.68605,691.25777 452.92331,686.94032 C 456.36204,683.43651 457.16071,681.98320 456.77019,679.94032 C 456.47219,678.38145 456.73083,677.36218 457.42439,677.36218 C 458.06862,677.36218 458.57143,678.89640 458.57143,680.86218 C 458.57143,682.78718 458.10536,684.36907 457.53571,684.37749 C 456.96607,684.38591 457.17500,684.82902 458.00000,685.36218 C 459.19706,686.13578 458.99510,686.35478 457.00000,686.44655 L 454.50000,686.56154 L 457.00000,687.36218 C 459.33154,688.10887 459.26416,688.17841 456.00000,688.39414 L 452.50000,688.62546 L 456.00000,689.36218 L 459.50000,690.09890 L 455.00000,690.38073 L 450.50000,690.66257 L 455.00000,691.36218 C 458.48957,691.90470 456.91780,692.14031 448.00000,692.41145 L 436.50000,692.76111 L 448.00000,693.32977 L 459.50000,693.89843 L 447.71763,694.38031 L 435.93526,694.86218 L 436.21763,683.86218 z M 445.47866,677.33860 C 443.72492,675.40073 443.76620,675.36510 447.59501,675.51201 C 451.06152,675.64502 451.16314,675.71445 448.50000,676.13033 C 445.97955,676.52393 445.80909,676.71218 447.43362,677.30800 C 448.56645,677.72347 448.93241,678.28592 448.31727,678.66610 C 447.73978,679.02300 446.46241,678.42563 445.47866,677.33860 z M 455.75000,675.69990 C 456.43750,675.42249 457.56250,675.42249 458.25000,675.69990 C 458.93750,675.97731 458.37500,676.20429 457.00000,676.20429 C 455.62500,676.20429 455.06250,675.97731 455.75000,675.69990 z "
         style="fill:#ec9393" />
      <path
         sodipodi:nodetypes="ccccccccccccccccccccccccccccc"
         id="path6495"
         d="M 448.00000,699.40413 L 462.50000,698.86218 L 463.03971,683.36218 L 463.57942,668.48090 L 463.78971,684.11218 L 464.00000,700.36218 L 448.75000,700.15413 L 433.50000,699.94608 L 448.00000,699.40413 z M 436.45090,683.86218 L 436.50000,672.86218 L 448.00000,672.80840 L 459.50000,672.75462 L 448.28245,673.09085 L 437.06490,673.42708 L 436.73334,684.14463 L 436.40179,694.86218 L 436.45090,683.86218 z M 452.12498,687.64851 C 456.29204,683.75071 457.09350,682.45256 456.75533,680.14851 C 456.53041,678.61603 456.71845,677.36218 457.17319,677.36218 C 457.62794,677.36218 458.00000,678.84349 458.00000,680.65397 C 458.00000,683.21028 457.04196,684.88601 453.71215,688.15397 C 451.35383,690.46849 448.89811,692.36218 448.25499,692.36218 C 447.61187,692.36218 449.35337,690.24103 452.12498,687.64851 z M 445.87245,677.61218 C 444.62857,676.02612 444.66394,675.99075 446.25000,677.23462 C 447.91575,678.54099 448.44548,679.36218 447.62245,679.36218 C 447.41479,679.36218 446.62729,678.57468 445.87245,677.61218 z "
         style="fill:#d68e8e" />
      <path
         sodipodi:nodetypes="cccccccccccccccccccccc"
         id="path6493"
         d="M 448.00000,699.40413 L 462.50000,698.86218 L 463.03971,683.36218 L 463.57942,668.48090 L 463.78971,684.11218 L 464.00000,700.36218 L 448.75000,700.15413 L 433.50000,699.94608 L 448.00000,699.40413 z M 452.00000,687.86218 C 454.42903,685.38718 456.64142,683.36218 456.91642,683.36218 C 457.19142,683.36218 455.42903,685.38718 453.00000,687.86218 C 450.57097,690.33718 448.35858,692.36218 448.08358,692.36218 C 447.80858,692.36218 449.57097,690.33718 452.00000,687.86218 z M 457.15789,680.36218 C 457.15789,678.98718 457.38487,678.42468 457.66228,679.11218 C 457.93969,679.79968 457.93969,680.92468 457.66228,681.61218 C 457.38487,682.29968 457.15789,681.73718 457.15789,680.36218 z M 445.87245,677.61218 C 444.62857,676.02612 444.66394,675.99075 446.25000,677.23462 C 447.91575,678.54099 448.44548,679.36218 447.62245,679.36218 C 447.41479,679.36218 446.62729,678.57468 445.87245,677.61218 z "
         style="fill:#aa7575" />
    </g>
  </g>
</svg>
